<svg width="170" height="198" viewBox="0 0 170 198" fill="none" xmlns="http://www.w3.org/2000/svg">
<path d="M1.01398 18.8213C1.00433 16.6876 0.994799 14.5538 1.01043 12.42C1.02389 10.7113 1.01641 9.00965 1.00892 7.30477L1.0089 7.30154L1.00882 7.28201C1.00021 5.29569 0.991576 3.30496 1.01589 1.29371V1H84.6714H168.327V1.29371C168.351 3.30426 168.342 5.29431 168.334 7.27995V7.28201L168.334 7.30154L168.334 7.30477C168.326 9.00965 168.319 10.7113 168.332 12.42C168.348 14.5538 168.338 16.6876 168.329 18.8213C168.322 20.3963 168.315 21.9713 168.318 23.5462C168.33 30.661 168.33 37.7756 168.318 44.8902C168.313 47.6632 168.32 50.4397 168.34 53.2199C168.345 53.9835 168.337 54.8064 168.328 55.6512L168.328 55.668C168.317 56.7493 168.306 57.8658 168.323 58.9391C168.344 60.2707 168.333 61.4656 168.29 62.5237C168.088 67.56 167.763 71.8938 167.316 75.5253C166.693 80.5969 165.881 85.3174 164.878 89.6872C163.749 94.6177 162.377 99.621 160.763 104.697C160.162 106.586 159.063 109.543 157.467 113.567C157.114 114.459 156.724 115.353 156.326 116.247C156.199 116.53 156.072 116.814 155.945 117.098L155.934 117.122C155.666 117.72 155.397 118.32 155.136 118.919C153.98 121.583 152.544 124.549 150.826 127.818C149.091 131.121 147.283 134.314 145.402 137.397C144.524 138.835 143.529 140.419 142.415 142.15C141.999 142.798 141.578 143.423 141.156 144.047L140.975 144.314L140.948 144.353C140.699 144.721 140.451 145.087 140.203 145.458C139.587 146.377 139.019 147.199 138.499 147.923C137.664 149.089 136.826 150.233 135.982 151.359C133.126 155.166 130.207 158.752 127.145 162.178C125.315 164.226 123.391 166.207 121.493 168.153C120.477 169.195 118.367 171.198 115.164 174.162C109.589 179.323 103.595 184.056 97.1815 188.363C93.2986 190.971 89.4432 193.373 85.2022 195.645C85.0352 195.733 84.8516 195.806 84.6714 195.822C84.4911 195.806 84.3075 195.733 84.1405 195.645C79.8995 193.373 76.0441 190.971 72.1612 188.363C65.7479 184.056 59.7538 179.323 54.179 174.162C50.9761 171.198 48.8661 169.195 47.8493 168.153C45.9515 166.207 44.0281 164.226 42.1976 162.178C39.1358 158.752 36.2169 155.166 33.3607 151.359C32.5168 150.233 31.6783 149.089 30.8433 147.923C30.3234 147.199 29.7556 146.377 29.1399 145.458C28.8922 145.087 28.6433 144.721 28.3948 144.353L28.3682 144.314L28.1872 144.047C27.7649 143.423 27.3436 142.798 26.9276 142.15C25.8139 140.419 24.8183 138.835 23.9409 137.397C22.06 134.314 20.2518 131.121 18.5164 127.818C16.7992 124.549 15.3625 121.583 14.2063 118.919C13.9459 118.32 13.677 117.72 13.4084 117.122L13.3977 117.098C13.2704 116.814 13.1432 116.53 13.0169 116.247C12.6186 115.353 12.2292 114.459 11.8758 113.567C10.2797 109.543 9.18108 106.586 8.58001 104.697C6.96582 99.621 5.59392 94.6177 4.46444 89.6872C3.46213 85.3174 2.64964 80.5969 2.02671 75.5253C1.57949 71.8938 1.25462 67.56 1.05235 62.5237C1.00992 61.4656 0.998991 60.2707 1.01957 58.9391C1.03689 57.8658 1.02566 56.7493 1.01479 55.668L1.01462 55.6512C1.00598 54.8064 0.997594 53.9835 1.00318 53.2199C1.02262 50.4397 1.02986 47.6632 1.02504 44.8902C1.01297 37.7756 1.01297 30.661 1.02504 23.5462C1.02809 21.9713 1.0211 20.3963 1.01398 18.8213Z" fill="white"/>
<mask id="mask0_363_1756" style="mask-type:alpha" maskUnits="userSpaceOnUse" x="1" y="1" width="168" height="195">
<path d="M1.01398 18.8213C1.00433 16.6876 0.994799 14.5538 1.01043 12.42C1.02389 10.7113 1.01641 9.00965 1.00892 7.30477L1.0089 7.30154L1.00882 7.28201C1.00021 5.29569 0.991576 3.30496 1.01589 1.29371V1H84.6714H168.327V1.29371C168.351 3.30426 168.342 5.29431 168.334 7.27995V7.28201L168.334 7.30154L168.334 7.30477C168.326 9.00965 168.319 10.7113 168.332 12.42C168.348 14.5538 168.338 16.6876 168.329 18.8213C168.322 20.3963 168.315 21.9713 168.318 23.5462C168.33 30.661 168.33 37.7756 168.318 44.8902C168.313 47.6632 168.32 50.4397 168.34 53.2199C168.345 53.9835 168.337 54.8064 168.328 55.6512L168.328 55.668C168.317 56.7493 168.306 57.8658 168.323 58.9391C168.344 60.2707 168.333 61.4656 168.29 62.5237C168.088 67.56 167.763 71.8938 167.316 75.5253C166.693 80.5969 165.881 85.3174 164.878 89.6872C163.749 94.6177 162.377 99.621 160.763 104.697C160.162 106.586 159.063 109.543 157.467 113.567C157.114 114.459 156.724 115.353 156.326 116.247C156.199 116.53 156.072 116.814 155.945 117.098L155.934 117.122C155.666 117.72 155.397 118.32 155.136 118.919C153.98 121.583 152.544 124.549 150.826 127.818C149.091 131.121 147.283 134.314 145.402 137.397C144.524 138.835 143.529 140.419 142.415 142.15C141.999 142.798 141.578 143.423 141.156 144.047L140.975 144.314L140.948 144.353C140.699 144.721 140.451 145.087 140.203 145.458C139.587 146.377 139.019 147.199 138.499 147.923C137.664 149.089 136.826 150.233 135.982 151.359C133.126 155.166 130.207 158.752 127.145 162.178C125.315 164.226 123.391 166.207 121.493 168.153C120.477 169.195 118.367 171.198 115.164 174.162C109.589 179.323 103.595 184.056 97.1815 188.363C93.2986 190.971 89.4432 193.373 85.2022 195.645C85.0352 195.733 84.8516 195.806 84.6714 195.822C84.4911 195.806 84.3075 195.733 84.1405 195.645C79.8995 193.373 76.0441 190.971 72.1612 188.363C65.7479 184.056 59.7538 179.323 54.179 174.162C50.9761 171.198 48.8661 169.195 47.8493 168.153C45.9515 166.207 44.0281 164.226 42.1976 162.178C39.1358 158.752 36.2169 155.166 33.3607 151.359C32.5168 150.233 31.6783 149.089 30.8433 147.923C30.3234 147.199 29.7556 146.377 29.1399 145.458C28.8922 145.087 28.6433 144.721 28.3948 144.353L28.3682 144.314L28.1872 144.047C27.7649 143.423 27.3436 142.798 26.9276 142.15C25.8139 140.419 24.8183 138.835 23.9409 137.397C22.06 134.314 20.2518 131.121 18.5164 127.818C16.7992 124.549 15.3625 121.583 14.2063 118.919C13.9459 118.32 13.677 117.72 13.4084 117.122L13.3977 117.098C13.2704 116.814 13.1432 116.53 13.0169 116.247C12.6186 115.353 12.2292 114.459 11.8758 113.567C10.2797 109.543 9.18108 106.586 8.58001 104.697C6.96582 99.621 5.59392 94.6177 4.46444 89.6872C3.46213 85.3174 2.64964 80.5969 2.02671 75.5253C1.57949 71.8938 1.25462 67.56 1.05235 62.5237C1.00992 61.4656 0.998991 60.2707 1.01957 58.9391C1.03689 57.8658 1.02566 56.7493 1.01479 55.668L1.01462 55.6512C1.00598 54.8064 0.997594 53.9835 1.00318 53.2199C1.02262 50.4397 1.02986 47.6632 1.02504 44.8902C1.01297 37.7756 1.01297 30.661 1.02504 23.5462C1.02809 21.9713 1.0211 20.3963 1.01398 18.8213Z" fill="white"/>
</mask>
<g mask="url(#mask0_363_1756)">
<path d="M1 49.4H0.6V49V1V0.599998H1H169H169.4V1V49V49.4H169H148H127H106H85H64H43H22H1Z" fill="#A51C30" stroke="#101820" stroke-width="0.8"/>
<path d="M169 49H148H127H106H85H64H43H22H1V59" stroke="#101820" stroke-width="2"/>
<path d="M2 58H25.6667V72H49.3333V86H73V100H96.6667V114H120.333V128H144V142V205H2V72V58Z" fill="#283F87"/>
</g>
<path d="M1.65997 56.1204C1.65133 55.2756 1.64295 54.4527 1.64854 53.6891L1.66125 1.76295V1.46924H85.3167H168.972V1.76295L168.936 62.9929C168.734 68.0292 168.409 72.363 167.961 75.9945C167.339 81.0661 166.526 85.7866 165.524 90.1564C164.394 95.0869 163.022 100.09 161.408 105.166C160.807 107.055 159.708 110.012 158.112 114.036C157.759 114.928 157.37 115.822 156.971 116.716C156.845 116.999 156.718 117.283 156.59 117.567L156.58 117.591C156.311 118.19 156.042 118.789 155.782 119.389C154.626 122.052 153.189 125.018 151.472 128.287C149.736 131.591 147.928 134.783 146.047 137.866C145.17 139.304 144.174 140.888 143.061 142.619C142.645 143.267 142.223 143.893 141.801 144.516L141.62 144.783L141.593 144.822C141.345 145.19 141.096 145.556 140.848 145.927C140.233 146.846 139.665 147.668 139.145 148.392C138.31 149.558 137.471 150.703 136.627 151.828C133.771 155.635 130.852 159.221 127.791 162.647C125.96 164.695 124.037 166.676 122.139 168.622C121.122 169.665 119.012 171.668 115.809 174.631C110.234 179.792 104.24 184.525 97.8268 188.832C93.9439 191.44 90.0885 193.842 85.8476 196.114C85.6806 196.203 85.4969 196.275 85.3167 196.291C85.1365 196.275 84.9528 196.203 84.7858 196.114C80.5448 193.842 76.6895 191.44 72.8065 188.832C66.3932 184.525 60.3991 179.792 54.8244 174.631C51.6214 171.668 49.5115 169.665 48.4947 168.622C46.5968 166.676 44.6735 164.695 42.8429 162.647C39.7811 159.221 36.8622 155.635 34.006 151.828C33.1621 150.703 32.3237 149.558 31.4886 148.392C30.9687 147.668 30.4009 146.846 29.7852 145.927C29.5375 145.556 29.2886 145.19 29.0401 144.822M1.65997 56.1204L1.66014 56.1372M1.65997 56.1204C1.66003 56.126 1.66009 56.1316 1.66014 56.1372M1.66014 56.1372C1.67102 57.2185 1.68225 58.335 1.66493 59.4083C1.64435 60.7399 1.65527 61.9348 1.69771 62.9929C1.89997 68.0292 2.22484 72.363 2.67206 75.9945C3.29499 81.0661 4.10749 85.7866 5.10979 90.1564C6.23928 95.0869 7.61118 100.09 9.22536 105.166C9.82644 107.055 10.925 110.012 12.5212 114.036C12.8745 114.928 13.2639 115.822 13.6622 116.716C13.7886 116.999 13.9158 117.283 14.043 117.567M14.043 117.567L14.0537 117.591M14.043 117.567C14.0466 117.575 14.0502 117.583 14.0537 117.591M14.0537 117.591C14.3223 118.19 14.5913 118.789 14.8517 119.389C16.0078 122.052 17.4445 125.018 19.1617 128.287C20.8971 131.591 22.7053 134.783 24.5862 137.866C25.4636 139.304 26.4592 140.888 27.5729 142.619C27.9889 143.267 28.4102 143.893 28.8325 144.516M29.0401 144.822C29.0312 144.809 29.0224 144.796 29.0135 144.783M29.0401 144.822L29.0135 144.783M29.0135 144.783C28.9533 144.694 28.8927 144.605 28.8325 144.516M29.0135 144.783L28.8325 144.516" stroke="#101820" stroke-width="2"/>
<path fill-rule="evenodd" clip-rule="evenodd" d="M66.0062 10.8057H105.091V16.1963L108.218 16.3086C109.13 17.207 109.13 17.9557 108.218 18.5546H104.994V31.3573H108.316C108.611 32.0685 109.695 32.7798 108.316 33.4911H105.091V39.1063H65.9085V33.7157H63.0748C61.9535 33.2237 61.4079 32.2285 63.0748 31.4696H65.9085V18.4423H62.7817C61.7394 17.6936 61.7394 16.9449 62.7817 16.1963H65.9085L66.0062 10.8057Z" fill="white" stroke="#101820" stroke-width="0.8"/>
<path fill-rule="evenodd" clip-rule="evenodd" d="M67.3742 11.1425L67.9605 37.7585H103.039L103.528 10.9179L101.867 9.45794C98.2202 10.6259 96.0719 9.96667 93.3659 9.45794C90.9886 8.88204 88.5931 8.3834 85.4511 11.0302C83.5271 9.82909 82.2803 8.19022 76.3638 9.57025C73.921 9.99412 71.4781 10.324 69.0353 9.57025L67.3742 11.1425Z" fill="white" stroke="#101820" stroke-width="0.8"/>
<path d="M69.0354 9.68262L69.7193 35.6248L67.9605 37.7586L69.6216 35.5125C71.5299 36.449 74.0722 36.1712 76.7547 35.6248C82.3673 35.0858 83.2626 36.4236 85.474 37.2807C89.0546 34.8624 91.4532 35.7232 94.0499 35.8494C96.4601 36.1363 98.8704 36.6604 101.281 35.5125L102.844 37.6463L101.183 35.2879L101.867 9.45801" stroke="#101820" stroke-width="0.8"/>
<path d="M85.4511 37.1971V10.8057" stroke="#101820" stroke-width="0.8"/>
<path fill-rule="evenodd" clip-rule="evenodd" d="M85.4691 37.2056C84.642 37.6933 84.0257 38.3158 83.7965 39.1853C85.2858 41.3646 86.2422 40.4134 87.1418 39.128C86.7667 38.2354 86.1763 37.64 85.4691 37.2056Z" fill="white" stroke="#101820" stroke-width="0.8"/>
<path fill-rule="evenodd" clip-rule="evenodd" d="M11.0062 10.8057H50.0914V16.1963L53.2183 16.3086C54.1303 17.207 54.1303 17.9557 53.2183 18.5546H49.9937V31.3573H53.316C53.6109 32.0685 54.6954 32.7798 53.316 33.4911H50.0914V39.1063H10.9085V33.7157H8.07484C6.95352 33.2237 6.40795 32.2285 8.07484 31.4696H10.9085V18.4423H7.78171C6.73943 17.6936 6.73943 16.9449 7.78171 16.1963H10.9085L11.0062 10.8057Z" fill="white" stroke="#101820" stroke-width="0.8"/>
<path fill-rule="evenodd" clip-rule="evenodd" d="M12.3743 11.1425L12.9605 37.7585H48.0395L48.5281 10.9179L46.867 9.45794C43.2203 10.6259 41.0719 9.96667 38.3659 9.45794C35.9887 8.88204 33.5931 8.3834 30.4512 11.0302C28.5272 9.82909 27.2803 8.19022 21.3639 9.57025C18.921 9.99412 16.4782 10.324 14.0354 9.57025L12.3743 11.1425Z" fill="white" stroke="#101820" stroke-width="0.8"/>
<path d="M14.0353 9.68262L14.7193 35.6248L12.9604 37.7586L14.6216 35.5125C16.5299 36.449 19.0722 36.1712 21.7546 35.6248C27.3672 35.0858 28.2625 36.4236 30.4739 37.2807C34.0545 34.8624 36.4532 35.7232 39.0498 35.8494C41.4601 36.1363 43.8703 36.6604 46.2806 35.5125L47.844 37.6463L46.1829 35.2879L46.8669 9.45801" stroke="#101820" stroke-width="0.8"/>
<path d="M30.4512 37.1971V10.8057" stroke="#101820" stroke-width="0.8"/>
<path fill-rule="evenodd" clip-rule="evenodd" d="M30.4691 37.2056C29.642 37.6933 29.0257 38.3158 28.7965 39.1853C30.2858 41.3646 31.2422 40.4134 32.1418 39.128C31.7667 38.2354 31.1763 37.64 30.4691 37.2056Z" fill="white" stroke="#101820" stroke-width="0.8"/>
<path fill-rule="evenodd" clip-rule="evenodd" d="M121.006 10.8057H160.091V16.1963L163.218 16.3086C164.13 17.207 164.13 17.9557 163.218 18.5546H159.994V31.3573H163.316C163.611 32.0685 164.695 32.7798 163.316 33.4911H160.091V39.1063H120.909V33.7157H118.075C116.954 33.2237 116.408 32.2285 118.075 31.4696H120.909V18.4423H117.782C116.739 17.6936 116.739 16.9449 117.782 16.1963H120.909L121.006 10.8057Z" fill="white" stroke="#101820" stroke-width="0.8"/>
<path fill-rule="evenodd" clip-rule="evenodd" d="M122.374 11.1425L122.96 37.7585H158.039L158.528 10.9179L156.867 9.45794C153.22 10.6259 151.072 9.96667 148.366 9.45794C145.989 8.88204 143.593 8.3834 140.451 11.0302C138.527 9.82909 137.28 8.19022 131.364 9.57025C128.921 9.99412 126.478 10.324 124.035 9.57025L122.374 11.1425Z" fill="white" stroke="#101820" stroke-width="0.8"/>
<path d="M124.035 9.68262L124.719 35.6248L122.961 37.7586L124.622 35.5125C126.53 36.449 129.072 36.1712 131.755 35.6248C137.367 35.0858 138.263 36.4236 140.474 37.2807C144.055 34.8624 146.453 35.7232 149.05 35.8494C151.46 36.1363 153.87 36.6604 156.281 35.5125L157.844 37.6463L156.183 35.2879L156.867 9.45801" stroke="#101820" stroke-width="0.8"/>
<path d="M140.451 37.1971V10.8057" stroke="#101820" stroke-width="0.8"/>
<path fill-rule="evenodd" clip-rule="evenodd" d="M140.469 37.2056C139.642 37.6933 139.026 38.3158 138.797 39.1853C140.286 41.3646 141.242 40.4134 142.142 39.128C141.767 38.2354 141.176 37.64 140.469 37.2056Z" fill="white" stroke="#101820" stroke-width="0.8"/>
<path d="M30.4659 15V15.4535C30.0157 15.5597 29.675 15.7477 29.4437 16.0173C29.1124 16.4177 28.8186 17.0305 28.5623 17.8558L24.1268 32H23.7798L19.0161 17.672C18.7723 16.9366 18.6004 16.4872 18.5004 16.3237C18.3441 16.0704 18.1519 15.8723 17.9237 15.7293C17.6955 15.5863 17.3876 15.4944 17 15.4535V15H22.195V15.4535C21.6074 15.5271 21.2261 15.6578 21.051 15.8457C20.876 16.0337 20.7884 16.2747 20.7884 16.5689C20.7884 16.9774 20.9322 17.6148 21.2198 18.4809L24.455 28.2249L27.4557 18.6035C27.7496 17.6556 27.8965 16.9979 27.8965 16.6301C27.8965 16.3932 27.8058 16.1664 27.6245 15.9499C27.4432 15.7334 27.1369 15.5802 26.7056 15.4903C26.6743 15.4821 26.6211 15.4699 26.5461 15.4535V15H30.4659ZM34.7232 15.907V22.4766H37.5176C38.2428 22.4766 38.7273 22.3336 38.9711 22.0476C39.2962 21.6717 39.4775 21.0099 39.515 20.062H39.862V25.8472H39.515C39.4275 25.0382 39.34 24.5194 39.2524 24.2906C39.1399 24.0046 38.9555 23.7799 38.6992 23.6164C38.4429 23.453 38.049 23.3713 37.5176 23.3713H34.7232V28.85C34.7232 29.5854 34.7482 30.0328 34.7982 30.1921C34.8482 30.3515 34.9357 30.4781 35.0608 30.5721C35.1858 30.6661 35.4234 30.7131 35.7734 30.7131H37.9302C38.6492 30.7131 39.1712 30.6477 39.4963 30.5169C39.8213 30.3862 40.1339 30.1288 40.434 29.7448C40.8216 29.2382 41.2185 28.4742 41.6249 27.4528H42L40.9029 31.62H31.1035V31.1665H31.5536C31.8537 31.1665 32.1382 31.0726 32.407 30.8846C32.607 30.7539 32.743 30.5578 32.8149 30.2963C32.8868 30.0349 32.9227 29.4996 32.9227 28.6907V17.8926C32.9227 16.8385 32.8415 16.1889 32.6789 15.9438C32.4539 15.6169 32.0788 15.4535 31.5536 15.4535H31.1035V15H40.9029L41.0435 18.6402H40.6778C40.5465 17.7659 40.4012 17.1654 40.2417 16.8385C40.0823 16.5117 39.8463 16.2625 39.5338 16.0908C39.2837 15.9683 38.843 15.907 38.2116 15.907H34.7232Z" fill="#101820"/>
<path d="M84.9814 31H81.7663L77.6895 23.0516C77.3876 23.0683 77.1418 23.0767 76.9524 23.0767C76.8754 23.0767 76.7925 23.0746 76.7037 23.0704C76.6149 23.0663 76.5231 23.06 76.4283 23.0516V27.9912C76.4283 29.061 76.5112 29.7254 76.677 29.9845C76.902 30.3523 77.2395 30.5361 77.6895 30.5361H78.1603V31H73V30.5361H73.453C73.9622 30.5361 74.3263 30.3021 74.5454 29.8341C74.6698 29.575 74.7319 28.9607 74.7319 27.9912V17.0089C74.7319 15.9391 74.649 15.2746 74.4832 15.0155C74.2523 14.6478 73.9089 14.4639 73.453 14.4639H73V14H77.3876C78.6665 14 79.6095 14.1317 80.2164 14.3949C80.8233 14.6582 81.3384 15.143 81.7618 15.8492C82.1852 16.5554 82.3968 17.3975 82.3969 18.3754C82.3968 19.4201 82.1556 20.327 81.673 21.0959C81.1904 21.8648 80.4429 22.4081 79.4304 22.7257L81.9172 27.6025C82.4857 28.7225 82.9742 29.4663 83.3827 29.8341C83.7913 30.2018 84.3242 30.4358 84.9814 30.5361V31ZM76.4283 22.2618C76.5408 22.2618 76.6385 22.2639 76.7214 22.2681C76.8043 22.2723 76.8724 22.2743 76.9257 22.2743C78.0744 22.2743 78.9404 21.9233 79.5236 21.2212C80.1068 20.5192 80.3985 19.6249 80.3985 18.5383C80.3985 17.4769 80.1631 16.614 79.6924 15.9495C79.2216 15.285 78.5984 14.9528 77.8228 14.9528C77.4793 14.9528 77.0145 15.0322 76.4283 15.191V22.2618ZM95 30.5361V31H89.8397V30.5361H90.266C90.7634 30.5361 91.1246 30.3314 91.3496 29.9218C91.4917 29.6544 91.5628 29.0108 91.5628 27.9912V17.0089C91.5628 16.148 91.5243 15.5797 91.4473 15.3038C91.3881 15.0949 91.2667 14.9152 91.0832 14.7647C90.8226 14.5642 90.5503 14.4639 90.266 14.4639H89.8397V14H95V14.4639H94.5648C94.0733 14.4639 93.7151 14.6686 93.4901 15.0782C93.3421 15.3456 93.2681 15.9892 93.2681 17.0089V27.9912C93.2681 28.852 93.3066 29.4204 93.3835 29.6962C93.4427 29.9051 93.5671 30.0848 93.7566 30.2352C94.0112 30.4358 94.2806 30.5361 94.5648 30.5361H95Z" fill="#101820"/>
<path d="M134.804 15.3498L134.922 18.9379H134.624C134.566 18.3061 134.488 17.8547 134.389 17.5839C134.227 17.1476 134.011 16.8261 133.742 16.6192C133.473 16.4123 133.119 16.3089 132.68 16.3089H131.182V27.9986C131.182 28.9389 131.253 29.5256 131.394 29.7588C131.592 30.0748 131.898 30.2327 132.311 30.2327H132.68V30.6502H128.172V30.2327H128.548C128.997 30.2327 129.316 30.0371 129.504 29.646C129.619 29.4053 129.677 28.8561 129.677 27.9986V16.3089H128.399C127.902 16.3089 127.55 16.3616 127.341 16.4669C127.069 16.6098 126.836 16.8844 126.643 17.2906C126.449 17.6968 126.335 18.2459 126.298 18.9379H126L126.125 15.3498H134.804ZM142.676 25.5275H138.56L137.838 27.9422C137.661 28.5364 137.572 28.9803 137.572 29.2736C137.572 29.5068 137.649 29.7118 137.803 29.8886C137.957 30.0654 138.29 30.1801 138.803 30.2327V30.6502H135.455V30.2327C135.899 30.1199 136.187 29.9732 136.317 29.7927C136.584 29.4316 136.879 28.6982 137.203 27.5924L140.943 15H141.217L144.918 27.7278C145.216 28.7508 145.486 29.4147 145.729 29.7193C145.972 30.024 146.311 30.1951 146.745 30.2327V30.6502H142.55V30.2327C142.973 30.2026 143.26 30.1011 143.409 29.9281C143.558 29.7551 143.632 29.5444 143.632 29.2962C143.632 28.9652 143.528 28.4424 143.318 27.7278L142.676 25.5275ZM142.456 24.6925L140.653 18.5092L138.803 24.6925H142.456ZM154.294 15V20.292H154.004C153.91 19.2765 153.742 18.4678 153.499 17.866C153.256 17.2642 152.909 16.7866 152.46 16.433C152.01 16.0795 151.545 15.9027 151.064 15.9027C150.521 15.9027 150.071 16.1415 149.716 16.6192C149.36 17.0969 149.183 17.6404 149.183 18.2496C149.183 18.716 149.295 19.1411 149.52 19.5247C149.844 20.0889 150.615 20.8411 151.833 21.7814C152.826 22.5487 153.504 23.1373 153.867 23.5473C154.23 23.9572 154.51 24.4405 154.706 24.9972C154.902 25.5538 155 26.1368 155 26.7461C155 27.9046 154.688 28.9032 154.063 29.7419C153.439 30.5806 152.635 31 151.652 31C151.344 31 151.054 30.9661 150.782 30.8984C150.62 30.8608 150.284 30.7236 149.775 30.4866C149.265 30.2497 148.942 30.1312 148.806 30.1312C148.676 30.1312 148.573 30.1876 148.497 30.3004C148.421 30.4133 148.365 30.6465 148.328 31H148.038V25.7532H148.328C148.464 26.8514 148.647 27.6733 148.877 28.2186C149.107 28.764 149.458 29.2172 149.931 29.5783C150.404 29.9394 150.923 30.1199 151.488 30.1199C152.141 30.1199 152.657 29.8717 153.036 29.3752C153.415 28.8787 153.604 28.292 153.604 27.615C153.604 27.2388 153.533 26.859 153.389 26.4753C153.245 26.0917 153.022 25.7344 152.719 25.4034C152.515 25.1777 151.958 24.6982 151.049 23.9647C150.139 23.2313 149.492 22.6465 149.108 22.2102C148.724 21.7739 148.433 21.2924 148.234 20.7659C148.036 20.2393 147.936 19.6601 147.936 19.0282C147.936 17.93 148.229 16.984 148.814 16.1904C149.4 15.3968 150.144 15 151.049 15C151.613 15 152.212 15.1994 152.844 15.598C153.137 15.7861 153.343 15.8801 153.463 15.8801C153.599 15.8801 153.71 15.8218 153.797 15.7052C153.883 15.5886 153.952 15.3536 154.004 15H154.294Z" fill="#101820"/>
<path fill-rule="evenodd" clip-rule="evenodd" d="M66.0062 10.8057H105.091V16.1963L108.218 16.3086C109.13 17.207 109.13 17.9557 108.218 18.5546H104.994V31.3573H108.316C108.611 32.0685 109.695 32.7798 108.316 33.4911H105.091V39.1063H65.9085V33.7157H63.0748C61.9535 33.2237 61.4079 32.2285 63.0748 31.4696H65.9085V18.4423H62.7817C61.7394 17.6936 61.7394 16.9449 62.7817 16.1963H65.9085L66.0062 10.8057Z" fill="white" stroke="#101820" stroke-width="0.8"/>
<path fill-rule="evenodd" clip-rule="evenodd" d="M67.3742 11.1425L67.9605 37.7585H103.039L103.528 10.9179L101.867 9.45794C98.2202 10.6259 96.0719 9.96667 93.3659 9.45794C90.9886 8.88204 88.5931 8.3834 85.4511 11.0302C83.5271 9.82909 82.2803 8.19022 76.3638 9.57025C73.921 9.99412 71.4781 10.324 69.0353 9.57025L67.3742 11.1425Z" fill="white" stroke="#101820" stroke-width="0.8"/>
<path d="M69.0354 9.68262L69.7193 35.6248L67.9605 37.7586L69.6216 35.5125C71.5299 36.449 74.0722 36.1712 76.7547 35.6248C82.3673 35.0858 83.2626 36.4236 85.474 37.2807C89.0546 34.8624 91.4532 35.7232 94.0499 35.8494C96.4601 36.1363 98.8704 36.6604 101.281 35.5125L102.844 37.6463L101.183 35.2879L101.867 9.45801" stroke="#101820" stroke-width="0.8"/>
<path d="M85.4511 37.1971V10.8057" stroke="#101820" stroke-width="0.8"/>
<path fill-rule="evenodd" clip-rule="evenodd" d="M85.4691 37.2056C84.642 37.6933 84.0257 38.3158 83.7965 39.1853C85.2858 41.3646 86.2422 40.4134 87.1418 39.128C86.7667 38.2354 86.1763 37.64 85.4691 37.2056Z" fill="white" stroke="#101820" stroke-width="0.8"/>
<path fill-rule="evenodd" clip-rule="evenodd" d="M11.0062 10.8057H50.0914V16.1963L53.2183 16.3086C54.1303 17.207 54.1303 17.9557 53.2183 18.5546H49.9937V31.3573H53.316C53.6109 32.0685 54.6954 32.7798 53.316 33.4911H50.0914V39.1063H10.9085V33.7157H8.07484C6.95352 33.2237 6.40795 32.2285 8.07484 31.4696H10.9085V18.4423H7.78171C6.73943 17.6936 6.73943 16.9449 7.78171 16.1963H10.9085L11.0062 10.8057Z" fill="white" stroke="#101820" stroke-width="0.8"/>
<path fill-rule="evenodd" clip-rule="evenodd" d="M12.3743 11.1425L12.9605 37.7585H48.0395L48.5281 10.9179L46.867 9.45794C43.2203 10.6259 41.0719 9.96667 38.3659 9.45794C35.9887 8.88204 33.5931 8.3834 30.4512 11.0302C28.5272 9.82909 27.2803 8.19022 21.3639 9.57025C18.921 9.99412 16.4782 10.324 14.0354 9.57025L12.3743 11.1425Z" fill="white" stroke="#101820" stroke-width="0.8"/>
<path d="M14.0353 9.68262L14.7193 35.6248L12.9604 37.7586L14.6216 35.5125C16.5299 36.449 19.0722 36.1712 21.7546 35.6248C27.3672 35.0858 28.2625 36.4236 30.4739 37.2807C34.0545 34.8624 36.4532 35.7232 39.0498 35.8494C41.4601 36.1363 43.8703 36.6604 46.2806 35.5125L47.844 37.6463L46.1829 35.2879L46.8669 9.45801" stroke="#101820" stroke-width="0.8"/>
<path d="M30.4512 37.1971V10.8057" stroke="#101820" stroke-width="0.8"/>
<path fill-rule="evenodd" clip-rule="evenodd" d="M30.4691 37.2056C29.642 37.6933 29.0257 38.3158 28.7965 39.1853C30.2858 41.3646 31.2422 40.4134 32.1418 39.128C31.7667 38.2354 31.1763 37.64 30.4691 37.2056Z" fill="white" stroke="#101820" stroke-width="0.8"/>
<path fill-rule="evenodd" clip-rule="evenodd" d="M121.006 10.8057H160.091V16.1963L163.218 16.3086C164.13 17.207 164.13 17.9557 163.218 18.5546H159.994V31.3573H163.316C163.611 32.0685 164.695 32.7798 163.316 33.4911H160.091V39.1063H120.909V33.7157H118.075C116.954 33.2237 116.408 32.2285 118.075 31.4696H120.909V18.4423H117.782C116.739 17.6936 116.739 16.9449 117.782 16.1963H120.909L121.006 10.8057Z" fill="white" stroke="#101820" stroke-width="0.8"/>
<path fill-rule="evenodd" clip-rule="evenodd" d="M122.374 11.1425L122.96 37.7585H158.039L158.528 10.9179L156.867 9.45794C153.22 10.6259 151.072 9.96667 148.366 9.45794C145.989 8.88204 143.593 8.3834 140.451 11.0302C138.527 9.82909 137.28 8.19022 131.364 9.57025C128.921 9.99412 126.478 10.324 124.035 9.57025L122.374 11.1425Z" fill="white" stroke="#101820" stroke-width="0.8"/>
<path d="M124.035 9.68262L124.719 35.6248L122.961 37.7586L124.622 35.5125C126.53 36.449 129.072 36.1712 131.755 35.6248C137.367 35.0858 138.263 36.4236 140.474 37.2807C144.055 34.8624 146.453 35.7232 149.05 35.8494C151.46 36.1363 153.87 36.6604 156.281 35.5125L157.844 37.6463L156.183 35.2879L156.867 9.45801" stroke="#101820" stroke-width="0.8"/>
<path d="M140.451 37.1971V10.8057" stroke="#101820" stroke-width="0.8"/>
<path fill-rule="evenodd" clip-rule="evenodd" d="M140.469 37.2056C139.642 37.6933 139.026 38.3158 138.797 39.1853C140.286 41.3646 141.242 40.4134 142.142 39.128C141.767 38.2354 141.176 37.64 140.469 37.2056Z" fill="white" stroke="#101820" stroke-width="0.8"/>
<path d="M30.4659 15V15.4535C30.0157 15.5597 29.675 15.7477 29.4437 16.0173C29.1124 16.4177 28.8186 17.0305 28.5623 17.8558L24.1268 32H23.7798L19.0161 17.672C18.7723 16.9366 18.6004 16.4872 18.5004 16.3237C18.3441 16.0704 18.1519 15.8723 17.9237 15.7293C17.6955 15.5863 17.3876 15.4944 17 15.4535V15H22.195V15.4535C21.6074 15.5271 21.2261 15.6578 21.051 15.8457C20.876 16.0337 20.7884 16.2747 20.7884 16.5689C20.7884 16.9774 20.9322 17.6148 21.2198 18.4809L24.455 28.2249L27.4557 18.6035C27.7496 17.6556 27.8965 16.9979 27.8965 16.6301C27.8965 16.3932 27.8058 16.1664 27.6245 15.9499C27.4432 15.7334 27.1369 15.5802 26.7056 15.4903C26.6743 15.4821 26.6211 15.4699 26.5461 15.4535V15H30.4659ZM34.7232 15.907V22.4766H37.5176C38.2428 22.4766 38.7273 22.3336 38.9711 22.0476C39.2962 21.6717 39.4775 21.0099 39.515 20.062H39.862V25.8472H39.515C39.4275 25.0382 39.34 24.5194 39.2524 24.2906C39.1399 24.0046 38.9555 23.7799 38.6992 23.6164C38.4429 23.453 38.049 23.3713 37.5176 23.3713H34.7232V28.85C34.7232 29.5854 34.7482 30.0328 34.7982 30.1921C34.8482 30.3515 34.9357 30.4781 35.0608 30.5721C35.1858 30.6661 35.4234 30.7131 35.7734 30.7131H37.9302C38.6492 30.7131 39.1712 30.6477 39.4963 30.5169C39.8213 30.3862 40.1339 30.1288 40.434 29.7448C40.8216 29.2382 41.2185 28.4742 41.6249 27.4528H42L40.9029 31.62H31.1035V31.1665H31.5536C31.8537 31.1665 32.1382 31.0726 32.407 30.8846C32.607 30.7539 32.743 30.5578 32.8149 30.2963C32.8868 30.0349 32.9227 29.4996 32.9227 28.6907V17.8926C32.9227 16.8385 32.8415 16.1889 32.6789 15.9438C32.4539 15.6169 32.0788 15.4535 31.5536 15.4535H31.1035V15H40.9029L41.0435 18.6402H40.6778C40.5465 17.7659 40.4012 17.1654 40.2417 16.8385C40.0823 16.5117 39.8463 16.2625 39.5338 16.0908C39.2837 15.9683 38.843 15.907 38.2116 15.907H34.7232Z" fill="#101820"/>
<path d="M84.9814 31H81.7663L77.6895 23.0516C77.3876 23.0683 77.1418 23.0767 76.9524 23.0767C76.8754 23.0767 76.7925 23.0746 76.7037 23.0704C76.6149 23.0663 76.5231 23.06 76.4283 23.0516V27.9912C76.4283 29.061 76.5112 29.7254 76.677 29.9845C76.902 30.3523 77.2395 30.5361 77.6895 30.5361H78.1603V31H73V30.5361H73.453C73.9622 30.5361 74.3263 30.3021 74.5454 29.8341C74.6698 29.575 74.7319 28.9607 74.7319 27.9912V17.0089C74.7319 15.9391 74.649 15.2746 74.4832 15.0155C74.2523 14.6478 73.9089 14.4639 73.453 14.4639H73V14H77.3876C78.6665 14 79.6095 14.1317 80.2164 14.3949C80.8233 14.6582 81.3384 15.143 81.7618 15.8492C82.1852 16.5554 82.3968 17.3975 82.3969 18.3754C82.3968 19.4201 82.1556 20.327 81.673 21.0959C81.1904 21.8648 80.4429 22.4081 79.4304 22.7257L81.9172 27.6025C82.4857 28.7225 82.9742 29.4663 83.3827 29.8341C83.7913 30.2018 84.3242 30.4358 84.9814 30.5361V31ZM76.4283 22.2618C76.5408 22.2618 76.6385 22.2639 76.7214 22.2681C76.8043 22.2723 76.8724 22.2743 76.9257 22.2743C78.0744 22.2743 78.9404 21.9233 79.5236 21.2212C80.1068 20.5192 80.3985 19.6249 80.3985 18.5383C80.3985 17.4769 80.1631 16.614 79.6924 15.9495C79.2216 15.285 78.5984 14.9528 77.8228 14.9528C77.4793 14.9528 77.0145 15.0322 76.4283 15.191V22.2618ZM95 30.5361V31H89.8397V30.5361H90.266C90.7634 30.5361 91.1246 30.3314 91.3496 29.9218C91.4917 29.6544 91.5628 29.0108 91.5628 27.9912V17.0089C91.5628 16.148 91.5243 15.5797 91.4473 15.3038C91.3881 15.0949 91.2667 14.9152 91.0832 14.7647C90.8226 14.5642 90.5503 14.4639 90.266 14.4639H89.8397V14H95V14.4639H94.5648C94.0733 14.4639 93.7151 14.6686 93.4901 15.0782C93.3421 15.3456 93.2681 15.9892 93.2681 17.0089V27.9912C93.2681 28.852 93.3066 29.4204 93.3835 29.6962C93.4427 29.9051 93.5671 30.0848 93.7566 30.2352C94.0112 30.4358 94.2806 30.5361 94.5648 30.5361H95Z" fill="#101820"/>
<path d="M134.804 15.3498L134.922 18.9379H134.624C134.566 18.3061 134.488 17.8547 134.389 17.5839C134.227 17.1476 134.011 16.8261 133.742 16.6192C133.473 16.4123 133.119 16.3089 132.68 16.3089H131.182V27.9986C131.182 28.9389 131.253 29.5256 131.394 29.7588C131.592 30.0748 131.898 30.2327 132.311 30.2327H132.68V30.6502H128.172V30.2327H128.548C128.997 30.2327 129.316 30.0371 129.504 29.646C129.619 29.4053 129.677 28.8561 129.677 27.9986V16.3089H128.399C127.902 16.3089 127.55 16.3616 127.341 16.4669C127.069 16.6098 126.836 16.8844 126.643 17.2906C126.449 17.6968 126.335 18.2459 126.298 18.9379H126L126.125 15.3498H134.804ZM142.676 25.5275H138.56L137.838 27.9422C137.661 28.5364 137.572 28.9803 137.572 29.2736C137.572 29.5068 137.649 29.7118 137.803 29.8886C137.957 30.0654 138.29 30.1801 138.803 30.2327V30.6502H135.455V30.2327C135.899 30.1199 136.187 29.9732 136.317 29.7927C136.584 29.4316 136.879 28.6982 137.203 27.5924L140.943 15H141.217L144.918 27.7278C145.216 28.7508 145.486 29.4147 145.729 29.7193C145.972 30.024 146.311 30.1951 146.745 30.2327V30.6502H142.55V30.2327C142.973 30.2026 143.26 30.1011 143.409 29.9281C143.558 29.7551 143.632 29.5444 143.632 29.2962C143.632 28.9652 143.528 28.4424 143.318 27.7278L142.676 25.5275ZM142.456 24.6925L140.653 18.5092L138.803 24.6925H142.456ZM154.294 15V20.292H154.004C153.91 19.2765 153.742 18.4678 153.499 17.866C153.256 17.2642 152.909 16.7866 152.46 16.433C152.01 16.0795 151.545 15.9027 151.064 15.9027C150.521 15.9027 150.071 16.1415 149.716 16.6192C149.36 17.0969 149.183 17.6404 149.183 18.2496C149.183 18.716 149.295 19.1411 149.52 19.5247C149.844 20.0889 150.615 20.8411 151.833 21.7814C152.826 22.5487 153.504 23.1373 153.867 23.5473C154.23 23.9572 154.51 24.4405 154.706 24.9972C154.902 25.5538 155 26.1368 155 26.7461C155 27.9046 154.688 28.9032 154.063 29.7419C153.439 30.5806 152.635 31 151.652 31C151.344 31 151.054 30.9661 150.782 30.8984C150.62 30.8608 150.284 30.7236 149.775 30.4866C149.265 30.2497 148.942 30.1312 148.806 30.1312C148.676 30.1312 148.573 30.1876 148.497 30.3004C148.421 30.4133 148.365 30.6465 148.328 31H148.038V25.7532H148.328C148.464 26.8514 148.647 27.6733 148.877 28.2186C149.107 28.764 149.458 29.2172 149.931 29.5783C150.404 29.9394 150.923 30.1199 151.488 30.1199C152.141 30.1199 152.657 29.8717 153.036 29.3752C153.415 28.8787 153.604 28.292 153.604 27.615C153.604 27.2388 153.533 26.859 153.389 26.4753C153.245 26.0917 153.022 25.7344 152.719 25.4034C152.515 25.1777 151.958 24.6982 151.049 23.9647C150.139 23.2313 149.492 22.6465 149.108 22.2102C148.724 21.7739 148.433 21.2924 148.234 20.7659C148.036 20.2393 147.936 19.6601 147.936 19.0282C147.936 17.93 148.229 16.984 148.814 16.1904C149.4 15.3968 150.144 15 151.049 15C151.613 15 152.212 15.1994 152.844 15.598C153.137 15.7861 153.343 15.8801 153.463 15.8801C153.599 15.8801 153.71 15.8218 153.797 15.7052C153.883 15.5886 153.952 15.3536 154.004 15H154.294Z" fill="#101820"/>
<path d="M101.063 76.9926C101.063 76.9926 112.367 65.8817 105.534 57.6848C102.905 57.905 100.097 57.8543 96.7579 57C95.9948 58.9619 95.154 60.9173 93.5247 62.8029C103.054 72.296 100.818 74.5309 101.063 76.9926Z" fill="#283F87" stroke="#283F87" stroke-width="1.41064" stroke-linecap="round" stroke-linejoin="round"/>
<path d="M102.344 75.938C102.344 75.938 95.2697 61.7533 85.3624 65.7191C84.7594 68.2876 83.8434 70.9427 81.9991 73.8542C83.6292 75.1862 85.229 76.5901 86.5189 78.7224C98.4922 72.5926 99.9266 75.4102 102.344 75.938Z" fill="#283F87" stroke="#283F87" stroke-width="1.41064" stroke-linecap="round" stroke-linejoin="round"/>
<path d="M101.737 74.3943C101.737 74.3943 86.0602 76.7386 86.7704 87.3865C89.0269 88.7537 91.2689 90.4454 93.468 93.099C95.2386 91.9603 97.0682 90.8727 99.4947 90.3049C97.3649 77.0234 100.488 76.5298 101.737 74.3943Z" fill="#283F87" stroke="#283F87" stroke-width="1.41064" stroke-linecap="round" stroke-linejoin="round"/>
<path d="M100.081 74.4947C100.081 74.4947 97.4662 90.1283 107.812 92.7433C109.81 91.0197 112.112 89.4102 115.315 88.1387C114.779 86.103 114.31 84.0268 114.52 81.5436C101.23 79.465 101.726 76.3424 100.081 74.4947Z" fill="#283F87" stroke="#283F87" stroke-width="1.41064" stroke-linecap="round" stroke-linejoin="round"/>
<path d="M99.6644 76.1003C99.6644 76.1003 113.725 83.418 119.409 74.3863C118.387 71.9538 117.568 69.2674 117.348 65.8279C115.247 65.7085 113.127 65.513 110.83 64.5461C104.747 76.5429 101.93 75.1067 99.6644 76.1003Z" fill="#283F87" stroke="#283F87" stroke-width="1.41064" stroke-linecap="round" stroke-linejoin="round"/>
<path d="M102.671 69.8164C102.671 69.8164 101.139 71.4629 99.6405 72.0379C98.1425 72.613 95.9023 72.4149 95.9023 72.4149C95.9023 72.4149 96.9943 74.381 97.0783 75.9835C97.1623 77.5859 96.282 79.6554 96.282 79.6554C96.282 79.6554 98.4892 79.2237 100.039 79.6391C101.589 80.0543 103.285 81.532 103.285 81.532C103.285 81.532 103.557 79.2994 104.431 77.9537C105.305 76.6079 107.234 75.4513 107.234 75.4513C107.234 75.4513 105.195 74.5027 104.185 73.2556C103.175 72.0086 102.671 69.8164 102.671 69.8164Z" fill="#283F87" stroke="#283F87" stroke-width="1.41064" stroke-linecap="round" stroke-linejoin="round"/>
<path d="M101.075 77.5459C102.054 77.5459 102.847 76.7526 102.847 75.774C102.847 74.7953 102.054 74.002 101.075 74.002C100.096 74.002 99.3029 74.7953 99.3029 75.774C99.3029 76.7526 100.096 77.5459 101.075 77.5459Z" fill="#FEE46E" stroke="#806600" stroke-width="1.66241" stroke-linecap="round" stroke-linejoin="round"/>
<path d="M102.344 75.9382C102.344 75.9382 95.2697 61.7535 85.3624 65.7193C84.7594 68.2879 83.8434 70.9429 81.9991 73.8544C83.6293 75.1864 85.2291 76.5904 86.5189 78.7226C98.4922 72.5928 99.9266 75.4104 102.344 75.9382Z" fill="#283F87" stroke="#283F87" stroke-width="1.41064" stroke-linecap="round" stroke-linejoin="round"/>
<path d="M101.737 74.3945C101.737 74.3945 86.0603 76.7388 86.7704 87.3867C89.0269 88.754 91.269 90.4456 93.4681 93.0993C95.2386 91.9606 97.0682 90.8729 99.4947 90.3051C97.3649 77.0236 100.488 76.5301 101.737 74.3945Z" fill="#283F87" stroke="#283F87" stroke-width="1.41064" stroke-linecap="round" stroke-linejoin="round"/>
<path d="M100.081 74.4951C100.081 74.4951 97.4662 90.1287 107.812 92.7437C109.81 91.0201 112.112 89.4106 115.315 88.1391C114.779 86.1033 114.31 84.0272 114.52 81.544C101.23 79.4654 101.726 76.3428 100.081 74.4951Z" fill="#283F87" stroke="#283F87" stroke-width="1.41064" stroke-linecap="round" stroke-linejoin="round"/>
<path d="M99.6644 76.1005C99.6644 76.1005 113.725 83.4183 119.409 74.3866C118.387 71.9541 117.568 69.2677 117.348 65.8282C115.247 65.7087 113.127 65.5133 110.83 64.5464C104.747 76.5432 101.93 75.1069 99.6644 76.1005Z" fill="#283F87" stroke="#283F87" stroke-width="1.41064" stroke-linecap="round" stroke-linejoin="round"/>
<path d="M102.671 69.8164C102.671 69.8164 101.139 71.4629 99.6405 72.0379C98.1425 72.613 95.9023 72.4149 95.9023 72.4149C95.9023 72.4149 96.9943 74.381 97.0783 75.9835C97.1623 77.5859 96.282 79.6554 96.282 79.6554C96.282 79.6554 98.4892 79.2237 100.039 79.6391C101.589 80.0543 103.285 81.532 103.285 81.532C103.285 81.532 103.557 79.2994 104.431 77.9537C105.305 76.6079 107.234 75.4513 107.234 75.4513C107.234 75.4513 105.195 74.5027 104.185 73.2556C103.175 72.0086 102.671 69.8164 102.671 69.8164Z" fill="#283F87" stroke="#283F87" stroke-width="1.41064" stroke-linecap="round" stroke-linejoin="round"/>
<path d="M101.075 77.5459C102.054 77.5459 102.847 76.7526 102.847 75.774C102.847 74.7953 102.054 74.002 101.075 74.002C100.096 74.002 99.3029 74.7953 99.3029 75.774C99.3029 76.7526 100.096 77.5459 101.075 77.5459Z" fill="white" stroke="white" stroke-width="1.66241" stroke-linecap="round" stroke-linejoin="round"/>
<path d="M144.063 76.9926C144.063 76.9926 155.367 65.8817 148.534 57.6848C145.905 57.905 143.097 57.8543 139.758 57C138.995 58.9619 138.154 60.9173 136.525 62.8029C146.054 72.296 143.818 74.5309 144.063 76.9926Z" fill="#283F87" stroke="#283F87" stroke-width="1.41064" stroke-linecap="round" stroke-linejoin="round"/>
<path d="M145.344 75.938C145.344 75.938 138.27 61.7533 128.362 65.7191C127.759 68.2876 126.843 70.9427 124.999 73.8542C126.629 75.1862 128.229 76.5901 129.519 78.7224C141.492 72.5926 142.927 75.4102 145.344 75.938Z" fill="#283F87" stroke="#283F87" stroke-width="1.41064" stroke-linecap="round" stroke-linejoin="round"/>
<path d="M144.737 74.3943C144.737 74.3943 129.06 76.7386 129.77 87.3865C132.027 88.7537 134.269 90.4454 136.468 93.099C138.239 91.9603 140.068 90.8727 142.495 90.3049C140.365 77.0234 143.488 76.5298 144.737 74.3943Z" fill="#283F87" stroke="#283F87" stroke-width="1.41064" stroke-linecap="round" stroke-linejoin="round"/>
<path d="M143.081 74.4947C143.081 74.4947 140.466 90.1283 150.812 92.7433C152.81 91.0197 155.112 89.4102 158.315 88.1387C157.779 86.103 157.31 84.0268 157.52 81.5436C144.23 79.465 144.726 76.3424 143.081 74.4947Z" fill="#283F87" stroke="#283F87" stroke-width="1.41064" stroke-linecap="round" stroke-linejoin="round"/>
<path d="M142.664 76.1003C142.664 76.1003 156.725 83.418 162.409 74.3863C161.387 71.9538 160.568 69.2674 160.348 65.8279C158.247 65.7085 156.127 65.513 153.83 64.5461C147.747 76.5429 144.93 75.1067 142.664 76.1003Z" fill="#283F87" stroke="#283F87" stroke-width="1.41064" stroke-linecap="round" stroke-linejoin="round"/>
<path d="M145.671 69.8164C145.671 69.8164 144.139 71.4629 142.641 72.0379C141.142 72.613 138.902 72.4149 138.902 72.4149C138.902 72.4149 139.994 74.381 140.078 75.9835C140.162 77.5859 139.282 79.6554 139.282 79.6554C139.282 79.6554 141.489 79.2237 143.039 79.6391C144.589 80.0543 146.285 81.532 146.285 81.532C146.285 81.532 146.557 79.2994 147.431 77.9537C148.305 76.6079 150.234 75.4513 150.234 75.4513C150.234 75.4513 148.195 74.5027 147.185 73.2556C146.175 72.0086 145.671 69.8164 145.671 69.8164Z" fill="#283F87" stroke="#283F87" stroke-width="1.41064" stroke-linecap="round" stroke-linejoin="round"/>
<path d="M144.075 77.5459C145.054 77.5459 145.847 76.7526 145.847 75.774C145.847 74.7953 145.054 74.002 144.075 74.002C143.096 74.002 142.303 74.7953 142.303 75.774C142.303 76.7526 143.096 77.5459 144.075 77.5459Z" fill="#FEE46E" stroke="#806600" stroke-width="1.66241" stroke-linecap="round" stroke-linejoin="round"/>
<path d="M145.344 75.9382C145.344 75.9382 138.27 61.7535 128.362 65.7193C127.759 68.2879 126.843 70.9429 124.999 73.8544C126.629 75.1864 128.229 76.5904 129.519 78.7226C141.492 72.5928 142.927 75.4104 145.344 75.9382Z" fill="#283F87" stroke="#283F87" stroke-width="1.41064" stroke-linecap="round" stroke-linejoin="round"/>
<path d="M144.737 74.3945C144.737 74.3945 129.06 76.7388 129.77 87.3867C132.027 88.754 134.269 90.4456 136.468 93.0993C138.239 91.9606 140.068 90.8729 142.495 90.3051C140.365 77.0236 143.488 76.5301 144.737 74.3945Z" fill="#283F87" stroke="#283F87" stroke-width="1.41064" stroke-linecap="round" stroke-linejoin="round"/>
<path d="M143.081 74.4951C143.081 74.4951 140.466 90.1287 150.812 92.7437C152.81 91.0201 155.112 89.4106 158.315 88.1391C157.779 86.1033 157.31 84.0272 157.52 81.544C144.23 79.4654 144.726 76.3428 143.081 74.4951Z" fill="#283F87" stroke="#283F87" stroke-width="1.41064" stroke-linecap="round" stroke-linejoin="round"/>
<path d="M142.664 76.1005C142.664 76.1005 156.725 83.4183 162.409 74.3866C161.387 71.9541 160.568 69.2677 160.348 65.8282C158.247 65.7087 156.127 65.5133 153.83 64.5464C147.747 76.5432 144.93 75.1069 142.664 76.1005Z" fill="#283F87" stroke="#283F87" stroke-width="1.41064" stroke-linecap="round" stroke-linejoin="round"/>
<path d="M145.671 69.8164C145.671 69.8164 144.139 71.4629 142.641 72.0379C141.142 72.613 138.902 72.4149 138.902 72.4149C138.902 72.4149 139.994 74.381 140.078 75.9835C140.162 77.5859 139.282 79.6554 139.282 79.6554C139.282 79.6554 141.489 79.2237 143.039 79.6391C144.589 80.0543 146.285 81.532 146.285 81.532C146.285 81.532 146.557 79.2994 147.431 77.9537C148.305 76.6079 150.234 75.4513 150.234 75.4513C150.234 75.4513 148.195 74.5027 147.185 73.2556C146.175 72.0086 145.671 69.8164 145.671 69.8164Z" fill="#283F87" stroke="#283F87" stroke-width="1.41064" stroke-linecap="round" stroke-linejoin="round"/>
<path d="M144.075 77.5459C145.054 77.5459 145.847 76.7526 145.847 75.774C145.847 74.7953 145.054 74.002 144.075 74.002C143.096 74.002 142.303 74.7953 142.303 75.774C142.303 76.7526 143.096 77.5459 144.075 77.5459Z" fill="white" stroke="white" stroke-width="1.66241" stroke-linecap="round" stroke-linejoin="round"/>
<path d="M62.0629 140.993C62.0629 140.993 73.3674 129.882 66.5342 121.685C63.905 121.905 61.0968 121.854 57.7579 121C56.9948 122.962 56.154 124.917 54.5247 126.803C64.0544 136.296 61.818 138.531 62.0629 140.993Z" fill="white" stroke="white" stroke-width="1.41064" stroke-linecap="round" stroke-linejoin="round"/>
<path d="M63.3436 139.938C63.3436 139.938 56.2697 125.753 46.3624 129.719C45.7594 132.288 44.8434 134.943 42.9991 137.854C44.6292 139.186 46.229 140.59 47.5189 142.722C59.4922 136.593 60.9266 139.41 63.3436 139.938Z" fill="white" stroke="white" stroke-width="1.41064" stroke-linecap="round" stroke-linejoin="round"/>
<path d="M62.7366 138.394C62.7366 138.394 47.0602 140.739 47.7704 151.386C50.0269 152.754 52.2689 154.445 54.468 157.099C56.2386 155.96 58.0682 154.873 60.4947 154.305C58.3649 141.023 61.4878 140.53 62.7366 138.394Z" fill="white" stroke="white" stroke-width="1.41064" stroke-linecap="round" stroke-linejoin="round"/>
<path d="M61.0809 138.495C61.0809 138.495 58.4662 154.128 68.8123 156.743C70.81 155.02 73.1117 153.41 76.315 152.139C75.7792 150.103 75.3101 148.027 75.5199 145.544C62.2303 143.465 62.7259 140.342 61.0809 138.495Z" fill="white" stroke="white" stroke-width="1.41064" stroke-linecap="round" stroke-linejoin="round"/>
<path d="M60.6644 140.1C60.6644 140.1 74.7249 147.418 80.409 138.386C79.3871 135.954 78.5676 133.267 78.3483 129.828C76.2465 129.708 74.127 129.513 71.8302 128.546C65.7466 140.543 62.93 139.107 60.6644 140.1Z" fill="white" stroke="white" stroke-width="1.41064" stroke-linecap="round" stroke-linejoin="round"/>
<path d="M63.6711 133.816C63.6711 133.816 62.1386 135.463 60.6405 136.038C59.1425 136.613 56.9023 136.415 56.9023 136.415C56.9023 136.415 57.9943 138.381 58.0783 139.983C58.1623 141.586 57.282 143.655 57.282 143.655C57.282 143.655 59.4892 143.224 61.0392 143.639C62.5891 144.054 64.2855 145.532 64.2855 145.532C64.2855 145.532 64.5572 143.299 65.4312 141.954C66.3051 140.608 68.2339 139.451 68.2339 139.451C68.2339 139.451 66.1948 138.503 65.185 137.256C64.1751 136.009 63.6711 133.816 63.6711 133.816Z" fill="white" stroke="white" stroke-width="1.41064" stroke-linecap="round" stroke-linejoin="round"/>
<path d="M62.0749 141.546C63.0535 141.546 63.8469 140.753 63.8469 139.774C63.8469 138.795 63.0535 138.002 62.0749 138.002C61.0962 138.002 60.3029 138.795 60.3029 139.774C60.3029 140.753 61.0962 141.546 62.0749 141.546Z" fill="#FEE46E" stroke="#806600" stroke-width="1.66241" stroke-linecap="round" stroke-linejoin="round"/>
<path d="M63.3436 139.938C63.3436 139.938 56.2697 125.754 46.3624 129.719C45.7594 132.288 44.8434 134.943 42.9991 137.854C44.6293 139.186 46.2291 140.59 47.5189 142.723C59.4922 136.593 60.9266 139.41 63.3436 139.938Z" fill="white" stroke="white" stroke-width="1.41064" stroke-linecap="round" stroke-linejoin="round"/>
<path d="M62.7367 138.395C62.7367 138.395 47.0603 140.739 47.7704 151.387C50.0269 152.754 52.269 154.446 54.4681 157.099C56.2386 155.961 58.0682 154.873 60.4947 154.305C58.3649 141.024 61.4878 140.53 62.7367 138.395Z" fill="white" stroke="white" stroke-width="1.41064" stroke-linecap="round" stroke-linejoin="round"/>
<path d="M61.0809 138.495C61.0809 138.495 58.4662 154.129 68.8123 156.744C70.81 155.02 73.1117 153.411 76.315 152.139C75.7792 150.103 75.3101 148.027 75.5199 145.544C62.2303 143.465 62.7259 140.343 61.0809 138.495Z" fill="white" stroke="white" stroke-width="1.41064" stroke-linecap="round" stroke-linejoin="round"/>
<path d="M60.6644 140.101C60.6644 140.101 74.7248 147.418 80.409 138.387C79.3871 135.954 78.5676 133.268 78.3482 129.828C76.2465 129.709 74.127 129.513 71.8302 128.546C65.7466 140.543 62.93 139.107 60.6644 140.101Z" fill="white" stroke="white" stroke-width="1.41064" stroke-linecap="round" stroke-linejoin="round"/>
<path d="M63.6711 133.816C63.6711 133.816 62.1386 135.463 60.6405 136.038C59.1425 136.613 56.9023 136.415 56.9023 136.415C56.9023 136.415 57.9943 138.381 58.0783 139.983C58.1623 141.586 57.282 143.655 57.282 143.655C57.282 143.655 59.4892 143.224 61.0392 143.639C62.5891 144.054 64.2855 145.532 64.2855 145.532C64.2855 145.532 64.5572 143.299 65.4312 141.954C66.3051 140.608 68.2339 139.451 68.2339 139.451C68.2339 139.451 66.1948 138.503 65.185 137.256C64.1751 136.009 63.6711 133.816 63.6711 133.816Z" fill="white" stroke="white" stroke-width="1.41064" stroke-linecap="round" stroke-linejoin="round"/>
<path d="M62.0749 141.546C63.0535 141.546 63.8469 140.753 63.8469 139.774C63.8469 138.795 63.0535 138.002 62.0749 138.002C61.0962 138.002 60.3029 138.795 60.3029 139.774C60.3029 140.753 61.0962 141.546 62.0749 141.546Z" fill="#283F87" stroke="#283F87" stroke-width="1.66241" stroke-linecap="round" stroke-linejoin="round"/>
<path fill-rule="evenodd" clip-rule="evenodd" d="M66.0062 10.8057H105.091V16.1963L108.218 16.3086C109.13 17.207 109.13 17.9557 108.218 18.5546H104.994V31.3573H108.316C108.611 32.0685 109.695 32.7798 108.316 33.4911H105.091V39.1063H65.9085V33.7157H63.0748C61.9535 33.2237 61.4079 32.2285 63.0748 31.4696H65.9085V18.4423H62.7817C61.7394 17.6936 61.7394 16.9449 62.7817 16.1963H65.9085L66.0062 10.8057Z" fill="white" stroke="#101820" stroke-width="0.8"/>
<path fill-rule="evenodd" clip-rule="evenodd" d="M67.3742 11.1425L67.9605 37.7585H103.039L103.528 10.9179L101.867 9.45794C98.2202 10.6259 96.0719 9.96667 93.3659 9.45794C90.9886 8.88204 88.5931 8.3834 85.4511 11.0302C83.5271 9.82909 82.2803 8.19022 76.3638 9.57025C73.921 9.99412 71.4781 10.324 69.0353 9.57025L67.3742 11.1425Z" fill="white" stroke="#101820" stroke-width="0.8"/>
<path d="M69.0354 9.68262L69.7193 35.6248L67.9605 37.7586L69.6216 35.5125C71.5299 36.449 74.0722 36.1712 76.7547 35.6248C82.3673 35.0858 83.2626 36.4236 85.474 37.2807C89.0546 34.8624 91.4532 35.7232 94.0499 35.8494C96.4601 36.1363 98.8704 36.6604 101.281 35.5125L102.844 37.6463L101.183 35.2879L101.867 9.45801" stroke="#101820" stroke-width="0.8"/>
<path d="M85.4511 37.1971V10.8057" stroke="#101820" stroke-width="0.8"/>
<path fill-rule="evenodd" clip-rule="evenodd" d="M85.4691 37.2056C84.642 37.6933 84.0257 38.3158 83.7965 39.1853C85.2858 41.3646 86.2422 40.4134 87.1418 39.128C86.7667 38.2354 86.1763 37.64 85.4691 37.2056Z" fill="white" stroke="#101820" stroke-width="0.8"/>
<path fill-rule="evenodd" clip-rule="evenodd" d="M11.0062 10.8057H50.0914V16.1963L53.2183 16.3086C54.1303 17.207 54.1303 17.9557 53.2183 18.5546H49.9937V31.3573H53.316C53.6109 32.0685 54.6954 32.7798 53.316 33.4911H50.0914V39.1063H10.9085V33.7157H8.07484C6.95352 33.2237 6.40795 32.2285 8.07484 31.4696H10.9085V18.4423H7.78171C6.73943 17.6936 6.73943 16.9449 7.78171 16.1963H10.9085L11.0062 10.8057Z" fill="white" stroke="#101820" stroke-width="0.8"/>
<path fill-rule="evenodd" clip-rule="evenodd" d="M12.3743 11.1425L12.9605 37.7585H48.0395L48.5281 10.9179L46.867 9.45794C43.2203 10.6259 41.0719 9.96667 38.3659 9.45794C35.9887 8.88204 33.5931 8.3834 30.4512 11.0302C28.5272 9.82909 27.2803 8.19022 21.3639 9.57025C18.921 9.99412 16.4782 10.324 14.0354 9.57025L12.3743 11.1425Z" fill="white" stroke="#101820" stroke-width="0.8"/>
<path d="M14.0353 9.68262L14.7193 35.6248L12.9604 37.7586L14.6216 35.5125C16.5299 36.449 19.0722 36.1712 21.7546 35.6248C27.3672 35.0858 28.2625 36.4236 30.4739 37.2807C34.0545 34.8624 36.4532 35.7232 39.0498 35.8494C41.4601 36.1363 43.8703 36.6604 46.2806 35.5125L47.844 37.6463L46.1829 35.2879L46.8669 9.45801" stroke="#101820" stroke-width="0.8"/>
<path d="M30.4512 37.1971V10.8057" stroke="#101820" stroke-width="0.8"/>
<path fill-rule="evenodd" clip-rule="evenodd" d="M30.4691 37.2056C29.642 37.6933 29.0257 38.3158 28.7965 39.1853C30.2858 41.3646 31.2422 40.4134 32.1418 39.128C31.7667 38.2354 31.1763 37.64 30.4691 37.2056Z" fill="white" stroke="#101820" stroke-width="0.8"/>
<path fill-rule="evenodd" clip-rule="evenodd" d="M121.006 10.8057H160.091V16.1963L163.218 16.3086C164.13 17.207 164.13 17.9557 163.218 18.5546H159.994V31.3573H163.316C163.611 32.0685 164.695 32.7798 163.316 33.4911H160.091V39.1063H120.909V33.7157H118.075C116.954 33.2237 116.408 32.2285 118.075 31.4696H120.909V18.4423H117.782C116.739 17.6936 116.739 16.9449 117.782 16.1963H120.909L121.006 10.8057Z" fill="white" stroke="#101820" stroke-width="0.8"/>
<path fill-rule="evenodd" clip-rule="evenodd" d="M122.374 11.1425L122.96 37.7585H158.039L158.528 10.9179L156.867 9.45794C153.22 10.6259 151.072 9.96667 148.366 9.45794C145.989 8.88204 143.593 8.3834 140.451 11.0302C138.527 9.82909 137.28 8.19022 131.364 9.57025C128.921 9.99412 126.478 10.324 124.035 9.57025L122.374 11.1425Z" fill="white" stroke="#101820" stroke-width="0.8"/>
<path d="M124.035 9.68262L124.719 35.6248L122.961 37.7586L124.622 35.5125C126.53 36.449 129.072 36.1712 131.755 35.6248C137.367 35.0858 138.263 36.4236 140.474 37.2807C144.055 34.8624 146.453 35.7232 149.05 35.8494C151.46 36.1363 153.87 36.6604 156.281 35.5125L157.844 37.6463L156.183 35.2879L156.867 9.45801" stroke="#101820" stroke-width="0.8"/>
<path d="M140.451 37.1971V10.8057" stroke="#101820" stroke-width="0.8"/>
<path fill-rule="evenodd" clip-rule="evenodd" d="M140.469 37.2056C139.642 37.6933 139.026 38.3158 138.797 39.1853C140.286 41.3646 141.242 40.4134 142.142 39.128C141.767 38.2354 141.176 37.64 140.469 37.2056Z" fill="white" stroke="#101820" stroke-width="0.8"/>
<path d="M30.4659 15V15.4535C30.0157 15.5597 29.675 15.7477 29.4437 16.0173C29.1124 16.4177 28.8186 17.0305 28.5623 17.8558L24.1268 32H23.7798L19.0161 17.672C18.7723 16.9366 18.6004 16.4872 18.5004 16.3237C18.3441 16.0704 18.1519 15.8723 17.9237 15.7293C17.6955 15.5863 17.3876 15.4944 17 15.4535V15H22.195V15.4535C21.6074 15.5271 21.2261 15.6578 21.051 15.8457C20.876 16.0337 20.7884 16.2747 20.7884 16.5689C20.7884 16.9774 20.9322 17.6148 21.2198 18.4809L24.455 28.2249L27.4557 18.6035C27.7496 17.6556 27.8965 16.9979 27.8965 16.6301C27.8965 16.3932 27.8058 16.1664 27.6245 15.9499C27.4432 15.7334 27.1369 15.5802 26.7056 15.4903C26.6743 15.4821 26.6211 15.4699 26.5461 15.4535V15H30.4659ZM34.7232 15.907V22.4766H37.5176C38.2428 22.4766 38.7273 22.3336 38.9711 22.0476C39.2962 21.6717 39.4775 21.0099 39.515 20.062H39.862V25.8472H39.515C39.4275 25.0382 39.34 24.5194 39.2524 24.2906C39.1399 24.0046 38.9555 23.7799 38.6992 23.6164C38.4429 23.453 38.049 23.3713 37.5176 23.3713H34.7232V28.85C34.7232 29.5854 34.7482 30.0328 34.7982 30.1921C34.8482 30.3515 34.9357 30.4781 35.0608 30.5721C35.1858 30.6661 35.4234 30.7131 35.7734 30.7131H37.9302C38.6492 30.7131 39.1712 30.6477 39.4963 30.5169C39.8213 30.3862 40.1339 30.1288 40.434 29.7448C40.8216 29.2382 41.2185 28.4742 41.6249 27.4528H42L40.9029 31.62H31.1035V31.1665H31.5536C31.8537 31.1665 32.1382 31.0726 32.407 30.8846C32.607 30.7539 32.743 30.5578 32.8149 30.2963C32.8868 30.0349 32.9227 29.4996 32.9227 28.6907V17.8926C32.9227 16.8385 32.8415 16.1889 32.6789 15.9438C32.4539 15.6169 32.0788 15.4535 31.5536 15.4535H31.1035V15H40.9029L41.0435 18.6402H40.6778C40.5465 17.7659 40.4012 17.1654 40.2417 16.8385C40.0823 16.5117 39.8463 16.2625 39.5338 16.0908C39.2837 15.9683 38.843 15.907 38.2116 15.907H34.7232Z" fill="#101820"/>
<path d="M84.9814 31H81.7663L77.6895 23.0516C77.3876 23.0683 77.1418 23.0767 76.9524 23.0767C76.8754 23.0767 76.7925 23.0746 76.7037 23.0704C76.6149 23.0663 76.5231 23.06 76.4283 23.0516V27.9912C76.4283 29.061 76.5112 29.7254 76.677 29.9845C76.902 30.3523 77.2395 30.5361 77.6895 30.5361H78.1603V31H73V30.5361H73.453C73.9622 30.5361 74.3263 30.3021 74.5454 29.8341C74.6698 29.575 74.7319 28.9607 74.7319 27.9912V17.0089C74.7319 15.9391 74.649 15.2746 74.4832 15.0155C74.2523 14.6478 73.9089 14.4639 73.453 14.4639H73V14H77.3876C78.6665 14 79.6095 14.1317 80.2164 14.3949C80.8233 14.6582 81.3384 15.143 81.7618 15.8492C82.1852 16.5554 82.3968 17.3975 82.3969 18.3754C82.3968 19.4201 82.1556 20.327 81.673 21.0959C81.1904 21.8648 80.4429 22.4081 79.4304 22.7257L81.9172 27.6025C82.4857 28.7225 82.9742 29.4663 83.3827 29.8341C83.7913 30.2018 84.3242 30.4358 84.9814 30.5361V31ZM76.4283 22.2618C76.5408 22.2618 76.6385 22.2639 76.7214 22.2681C76.8043 22.2723 76.8724 22.2743 76.9257 22.2743C78.0744 22.2743 78.9404 21.9233 79.5236 21.2212C80.1068 20.5192 80.3985 19.6249 80.3985 18.5383C80.3985 17.4769 80.1631 16.614 79.6924 15.9495C79.2216 15.285 78.5984 14.9528 77.8228 14.9528C77.4793 14.9528 77.0145 15.0322 76.4283 15.191V22.2618ZM95 30.5361V31H89.8397V30.5361H90.266C90.7634 30.5361 91.1246 30.3314 91.3496 29.9218C91.4917 29.6544 91.5628 29.0108 91.5628 27.9912V17.0089C91.5628 16.148 91.5243 15.5797 91.4473 15.3038C91.3881 15.0949 91.2667 14.9152 91.0832 14.7647C90.8226 14.5642 90.5503 14.4639 90.266 14.4639H89.8397V14H95V14.4639H94.5648C94.0733 14.4639 93.7151 14.6686 93.4901 15.0782C93.3421 15.3456 93.2681 15.9892 93.2681 17.0089V27.9912C93.2681 28.852 93.3066 29.4204 93.3835 29.6962C93.4427 29.9051 93.5671 30.0848 93.7566 30.2352C94.0112 30.4358 94.2806 30.5361 94.5648 30.5361H95Z" fill="#101820"/>
<path d="M134.804 15.3498L134.922 18.9379H134.624C134.566 18.3061 134.488 17.8547 134.389 17.5839C134.227 17.1476 134.011 16.8261 133.742 16.6192C133.473 16.4123 133.119 16.3089 132.68 16.3089H131.182V27.9986C131.182 28.9389 131.253 29.5256 131.394 29.7588C131.592 30.0748 131.898 30.2327 132.311 30.2327H132.68V30.6502H128.172V30.2327H128.548C128.997 30.2327 129.316 30.0371 129.504 29.646C129.619 29.4053 129.677 28.8561 129.677 27.9986V16.3089H128.399C127.902 16.3089 127.55 16.3616 127.341 16.4669C127.069 16.6098 126.836 16.8844 126.643 17.2906C126.449 17.6968 126.335 18.2459 126.298 18.9379H126L126.125 15.3498H134.804ZM142.676 25.5275H138.56L137.838 27.9422C137.661 28.5364 137.572 28.9803 137.572 29.2736C137.572 29.5068 137.649 29.7118 137.803 29.8886C137.957 30.0654 138.29 30.1801 138.803 30.2327V30.6502H135.455V30.2327C135.899 30.1199 136.187 29.9732 136.317 29.7927C136.584 29.4316 136.879 28.6982 137.203 27.5924L140.943 15H141.217L144.918 27.7278C145.216 28.7508 145.486 29.4147 145.729 29.7193C145.972 30.024 146.311 30.1951 146.745 30.2327V30.6502H142.55V30.2327C142.973 30.2026 143.26 30.1011 143.409 29.9281C143.558 29.7551 143.632 29.5444 143.632 29.2962C143.632 28.9652 143.528 28.4424 143.318 27.7278L142.676 25.5275ZM142.456 24.6925L140.653 18.5092L138.803 24.6925H142.456ZM154.294 15V20.292H154.004C153.91 19.2765 153.742 18.4678 153.499 17.866C153.256 17.2642 152.909 16.7866 152.46 16.433C152.01 16.0795 151.545 15.9027 151.064 15.9027C150.521 15.9027 150.071 16.1415 149.716 16.6192C149.36 17.0969 149.183 17.6404 149.183 18.2496C149.183 18.716 149.295 19.1411 149.52 19.5247C149.844 20.0889 150.615 20.8411 151.833 21.7814C152.826 22.5487 153.504 23.1373 153.867 23.5473C154.23 23.9572 154.51 24.4405 154.706 24.9972C154.902 25.5538 155 26.1368 155 26.7461C155 27.9046 154.688 28.9032 154.063 29.7419C153.439 30.5806 152.635 31 151.652 31C151.344 31 151.054 30.9661 150.782 30.8984C150.62 30.8608 150.284 30.7236 149.775 30.4866C149.265 30.2497 148.942 30.1312 148.806 30.1312C148.676 30.1312 148.573 30.1876 148.497 30.3004C148.421 30.4133 148.365 30.6465 148.328 31H148.038V25.7532H148.328C148.464 26.8514 148.647 27.6733 148.877 28.2186C149.107 28.764 149.458 29.2172 149.931 29.5783C150.404 29.9394 150.923 30.1199 151.488 30.1199C152.141 30.1199 152.657 29.8717 153.036 29.3752C153.415 28.8787 153.604 28.292 153.604 27.615C153.604 27.2388 153.533 26.859 153.389 26.4753C153.245 26.0917 153.022 25.7344 152.719 25.4034C152.515 25.1777 151.958 24.6982 151.049 23.9647C150.139 23.2313 149.492 22.6465 149.108 22.2102C148.724 21.7739 148.433 21.2924 148.234 20.7659C148.036 20.2393 147.936 19.6601 147.936 19.0282C147.936 17.93 148.229 16.984 148.814 16.1904C149.4 15.3968 150.144 15 151.049 15C151.613 15 152.212 15.1994 152.844 15.598C153.137 15.7861 153.343 15.8801 153.463 15.8801C153.599 15.8801 153.71 15.8218 153.797 15.7052C153.883 15.5886 153.952 15.3536 154.004 15H154.294Z" fill="#101820"/>
<path fill-rule="evenodd" clip-rule="evenodd" d="M66.0062 10.8057H105.091V16.1963L108.218 16.3086C109.13 17.207 109.13 17.9557 108.218 18.5546H104.994V31.3573H108.316C108.611 32.0685 109.695 32.7798 108.316 33.4911H105.091V39.1063H65.9085V33.7157H63.0748C61.9535 33.2237 61.4079 32.2285 63.0748 31.4696H65.9085V18.4423H62.7817C61.7394 17.6936 61.7394 16.9449 62.7817 16.1963H65.9085L66.0062 10.8057Z" fill="#AD8B3A" stroke="#101820" stroke-width="0.8"/>
<path fill-rule="evenodd" clip-rule="evenodd" d="M67.3742 11.1425L67.9605 37.7585H103.039L103.528 10.9179L101.867 9.45794C98.2202 10.6259 96.0719 9.96667 93.3659 9.45794C90.9886 8.88204 88.5931 8.3834 85.4511 11.0302C83.5271 9.82909 82.2803 8.19022 76.3638 9.57025C73.921 9.99412 71.4781 10.324 69.0353 9.57025L67.3742 11.1425Z" fill="white" stroke="#101820" stroke-width="0.8"/>
<path d="M69.0354 9.68262L69.7193 35.6248L67.9605 37.7586L69.6216 35.5125C71.5299 36.449 74.0722 36.1712 76.7547 35.6248C82.3673 35.0858 83.2626 36.4236 85.474 37.2807C89.0546 34.8624 91.4532 35.7232 94.0499 35.8494C96.4601 36.1363 98.8704 36.6604 101.281 35.5125L102.844 37.6463L101.183 35.2879L101.867 9.45801" stroke="#101820" stroke-width="0.8"/>
<path d="M85.4511 37.1971V10.8057" stroke="#101820" stroke-width="0.8"/>
<path fill-rule="evenodd" clip-rule="evenodd" d="M85.4691 37.2056C84.642 37.6933 84.0257 38.3158 83.7965 39.1853C85.2858 41.3646 86.2422 40.4134 87.1418 39.128C86.7667 38.2354 86.1763 37.64 85.4691 37.2056Z" fill="#AD8B3A" stroke="#101820" stroke-width="0.8"/>
<path fill-rule="evenodd" clip-rule="evenodd" d="M11.0062 10.8057H50.0914V16.1963L53.2183 16.3086C54.1303 17.207 54.1303 17.9557 53.2183 18.5546H49.9937V31.3573H53.316C53.6109 32.0685 54.6954 32.7798 53.316 33.4911H50.0914V39.1063H10.9085V33.7157H8.07484C6.95352 33.2237 6.40795 32.2285 8.07484 31.4696H10.9085V18.4423H7.78171C6.73943 17.6936 6.73943 16.9449 7.78171 16.1963H10.9085L11.0062 10.8057Z" fill="#AD8B3A" stroke="#101820" stroke-width="0.8"/>
<path fill-rule="evenodd" clip-rule="evenodd" d="M12.3743 11.1425L12.9605 37.7585H48.0395L48.5281 10.9179L46.867 9.45794C43.2203 10.6259 41.0719 9.96667 38.3659 9.45794C35.9887 8.88204 33.5931 8.3834 30.4512 11.0302C28.5272 9.82909 27.2803 8.19022 21.3639 9.57025C18.921 9.99412 16.4782 10.324 14.0354 9.57025L12.3743 11.1425Z" fill="white" stroke="#101820" stroke-width="0.8"/>
<path d="M14.0353 9.68262L14.7193 35.6248L12.9604 37.7586L14.6216 35.5125C16.5299 36.449 19.0722 36.1712 21.7546 35.6248C27.3672 35.0858 28.2625 36.4236 30.4739 37.2807C34.0545 34.8624 36.4532 35.7232 39.0498 35.8494C41.4601 36.1363 43.8703 36.6604 46.2806 35.5125L47.844 37.6463L46.1829 35.2879L46.8669 9.45801" stroke="#101820" stroke-width="0.8"/>
<path d="M30.4512 37.1971V10.8057" stroke="#101820" stroke-width="0.8"/>
<path fill-rule="evenodd" clip-rule="evenodd" d="M30.4691 37.2056C29.642 37.6933 29.0257 38.3158 28.7965 39.1853C30.2858 41.3646 31.2422 40.4134 32.1418 39.128C31.7667 38.2354 31.1763 37.64 30.4691 37.2056Z" fill="#AD8B3A" stroke="#101820" stroke-width="0.8"/>
<path fill-rule="evenodd" clip-rule="evenodd" d="M121.006 10.8057H160.091V16.1963L163.218 16.3086C164.13 17.207 164.13 17.9557 163.218 18.5546H159.994V31.3573H163.316C163.611 32.0685 164.695 32.7798 163.316 33.4911H160.091V39.1063H120.909V33.7157H118.075C116.954 33.2237 116.408 32.2285 118.075 31.4696H120.909V18.4423H117.782C116.739 17.6936 116.739 16.9449 117.782 16.1963H120.909L121.006 10.8057Z" fill="#AD8B3A" stroke="#101820" stroke-width="0.8"/>
<path fill-rule="evenodd" clip-rule="evenodd" d="M122.374 11.1425L122.96 37.7585H158.039L158.528 10.9179L156.867 9.45794C153.22 10.6259 151.072 9.96667 148.366 9.45794C145.989 8.88204 143.593 8.3834 140.451 11.0302C138.527 9.82909 137.28 8.19022 131.364 9.57025C128.921 9.99412 126.478 10.324 124.035 9.57025L122.374 11.1425Z" fill="white" stroke="#101820" stroke-width="0.8"/>
<path d="M124.035 9.68262L124.719 35.6248L122.961 37.7586L124.622 35.5125C126.53 36.449 129.072 36.1712 131.755 35.6248C137.367 35.0858 138.263 36.4236 140.474 37.2807C144.055 34.8624 146.453 35.7232 149.05 35.8494C151.46 36.1363 153.87 36.6604 156.281 35.5125L157.844 37.6463L156.183 35.2879L156.867 9.45801" stroke="#101820" stroke-width="0.8"/>
<path d="M140.451 37.1971V10.8057" stroke="#101820" stroke-width="0.8"/>
<path fill-rule="evenodd" clip-rule="evenodd" d="M140.469 37.2056C139.642 37.6933 139.026 38.3158 138.797 39.1853C140.286 41.3646 141.242 40.4134 142.142 39.128C141.767 38.2354 141.176 37.64 140.469 37.2056Z" fill="#AD8B3A" stroke="#101820" stroke-width="0.8"/>
<path d="M30.4659 15V15.4535C30.0157 15.5597 29.675 15.7477 29.4437 16.0173C29.1124 16.4177 28.8186 17.0305 28.5623 17.8558L24.1268 32H23.7798L19.0161 17.672C18.7723 16.9366 18.6004 16.4872 18.5004 16.3237C18.3441 16.0704 18.1519 15.8723 17.9237 15.7293C17.6955 15.5863 17.3876 15.4944 17 15.4535V15H22.195V15.4535C21.6074 15.5271 21.2261 15.6578 21.051 15.8457C20.876 16.0337 20.7884 16.2747 20.7884 16.5689C20.7884 16.9774 20.9322 17.6148 21.2198 18.4809L24.455 28.2249L27.4557 18.6035C27.7496 17.6556 27.8965 16.9979 27.8965 16.6301C27.8965 16.3932 27.8058 16.1664 27.6245 15.9499C27.4432 15.7334 27.1369 15.5802 26.7056 15.4903C26.6743 15.4821 26.6211 15.4699 26.5461 15.4535V15H30.4659ZM34.7232 15.907V22.4766H37.5176C38.2428 22.4766 38.7273 22.3336 38.9711 22.0476C39.2962 21.6717 39.4775 21.0099 39.515 20.062H39.862V25.8472H39.515C39.4275 25.0382 39.34 24.5194 39.2524 24.2906C39.1399 24.0046 38.9555 23.7799 38.6992 23.6164C38.4429 23.453 38.049 23.3713 37.5176 23.3713H34.7232V28.85C34.7232 29.5854 34.7482 30.0328 34.7982 30.1921C34.8482 30.3515 34.9357 30.4781 35.0608 30.5721C35.1858 30.6661 35.4234 30.7131 35.7734 30.7131H37.9302C38.6492 30.7131 39.1712 30.6477 39.4963 30.5169C39.8213 30.3862 40.1339 30.1288 40.434 29.7448C40.8216 29.2382 41.2185 28.4742 41.6249 27.4528H42L40.9029 31.62H31.1035V31.1665H31.5536C31.8537 31.1665 32.1382 31.0726 32.407 30.8846C32.607 30.7539 32.743 30.5578 32.8149 30.2963C32.8868 30.0349 32.9227 29.4996 32.9227 28.6907V17.8926C32.9227 16.8385 32.8415 16.1889 32.6789 15.9438C32.4539 15.6169 32.0788 15.4535 31.5536 15.4535H31.1035V15H40.9029L41.0435 18.6402H40.6778C40.5465 17.7659 40.4012 17.1654 40.2417 16.8385C40.0823 16.5117 39.8463 16.2625 39.5338 16.0908C39.2837 15.9683 38.843 15.907 38.2116 15.907H34.7232Z" fill="#101820"/>
<path d="M84.9814 31H81.7663L77.6895 23.0516C77.3876 23.0683 77.1418 23.0767 76.9524 23.0767C76.8754 23.0767 76.7925 23.0746 76.7037 23.0704C76.6149 23.0663 76.5231 23.06 76.4283 23.0516V27.9912C76.4283 29.061 76.5112 29.7254 76.677 29.9845C76.902 30.3523 77.2395 30.5361 77.6895 30.5361H78.1603V31H73V30.5361H73.453C73.9622 30.5361 74.3263 30.3021 74.5454 29.8341C74.6698 29.575 74.7319 28.9607 74.7319 27.9912V17.0089C74.7319 15.9391 74.649 15.2746 74.4832 15.0155C74.2523 14.6478 73.9089 14.4639 73.453 14.4639H73V14H77.3876C78.6665 14 79.6095 14.1317 80.2164 14.3949C80.8233 14.6582 81.3384 15.143 81.7618 15.8492C82.1852 16.5554 82.3968 17.3975 82.3969 18.3754C82.3968 19.4201 82.1556 20.327 81.673 21.0959C81.1904 21.8648 80.4429 22.4081 79.4304 22.7257L81.9172 27.6025C82.4857 28.7225 82.9742 29.4663 83.3827 29.8341C83.7913 30.2018 84.3242 30.4358 84.9814 30.5361V31ZM76.4283 22.2618C76.5408 22.2618 76.6385 22.2639 76.7214 22.2681C76.8043 22.2723 76.8724 22.2743 76.9257 22.2743C78.0744 22.2743 78.9404 21.9233 79.5236 21.2212C80.1068 20.5192 80.3985 19.6249 80.3985 18.5383C80.3985 17.4769 80.1631 16.614 79.6924 15.9495C79.2216 15.285 78.5984 14.9528 77.8228 14.9528C77.4793 14.9528 77.0145 15.0322 76.4283 15.191V22.2618ZM95 30.5361V31H89.8397V30.5361H90.266C90.7634 30.5361 91.1246 30.3314 91.3496 29.9218C91.4917 29.6544 91.5628 29.0108 91.5628 27.9912V17.0089C91.5628 16.148 91.5243 15.5797 91.4473 15.3038C91.3881 15.0949 91.2667 14.9152 91.0832 14.7647C90.8226 14.5642 90.5503 14.4639 90.266 14.4639H89.8397V14H95V14.4639H94.5648C94.0733 14.4639 93.7151 14.6686 93.4901 15.0782C93.3421 15.3456 93.2681 15.9892 93.2681 17.0089V27.9912C93.2681 28.852 93.3066 29.4204 93.3835 29.6962C93.4427 29.9051 93.5671 30.0848 93.7566 30.2352C94.0112 30.4358 94.2806 30.5361 94.5648 30.5361H95Z" fill="#101820"/>
<path d="M134.804 15.3498L134.922 18.9379H134.624C134.566 18.3061 134.488 17.8547 134.389 17.5839C134.227 17.1476 134.011 16.8261 133.742 16.6192C133.473 16.4123 133.119 16.3089 132.68 16.3089H131.182V27.9986C131.182 28.9389 131.253 29.5256 131.394 29.7588C131.592 30.0748 131.898 30.2327 132.311 30.2327H132.68V30.6502H128.172V30.2327H128.548C128.997 30.2327 129.316 30.0371 129.504 29.646C129.619 29.4053 129.677 28.8561 129.677 27.9986V16.3089H128.399C127.902 16.3089 127.55 16.3616 127.341 16.4669C127.069 16.6098 126.836 16.8844 126.643 17.2906C126.449 17.6968 126.335 18.2459 126.298 18.9379H126L126.125 15.3498H134.804ZM142.676 25.5275H138.56L137.838 27.9422C137.661 28.5364 137.572 28.9803 137.572 29.2736C137.572 29.5068 137.649 29.7118 137.803 29.8886C137.957 30.0654 138.29 30.1801 138.803 30.2327V30.6502H135.455V30.2327C135.899 30.1199 136.187 29.9732 136.317 29.7927C136.584 29.4316 136.879 28.6982 137.203 27.5924L140.943 15H141.217L144.918 27.7278C145.216 28.7508 145.486 29.4147 145.729 29.7193C145.972 30.024 146.311 30.1951 146.745 30.2327V30.6502H142.55V30.2327C142.973 30.2026 143.26 30.1011 143.409 29.9281C143.558 29.7551 143.632 29.5444 143.632 29.2962C143.632 28.9652 143.528 28.4424 143.318 27.7278L142.676 25.5275ZM142.456 24.6925L140.653 18.5092L138.803 24.6925H142.456ZM154.294 15V20.292H154.004C153.91 19.2765 153.742 18.4678 153.499 17.866C153.256 17.2642 152.909 16.7866 152.46 16.433C152.01 16.0795 151.545 15.9027 151.064 15.9027C150.521 15.9027 150.071 16.1415 149.716 16.6192C149.36 17.0969 149.183 17.6404 149.183 18.2496C149.183 18.716 149.295 19.1411 149.52 19.5247C149.844 20.0889 150.615 20.8411 151.833 21.7814C152.826 22.5487 153.504 23.1373 153.867 23.5473C154.23 23.9572 154.51 24.4405 154.706 24.9972C154.902 25.5538 155 26.1368 155 26.7461C155 27.9046 154.688 28.9032 154.063 29.7419C153.439 30.5806 152.635 31 151.652 31C151.344 31 151.054 30.9661 150.782 30.8984C150.62 30.8608 150.284 30.7236 149.775 30.4866C149.265 30.2497 148.942 30.1312 148.806 30.1312C148.676 30.1312 148.573 30.1876 148.497 30.3004C148.421 30.4133 148.365 30.6465 148.328 31H148.038V25.7532H148.328C148.464 26.8514 148.647 27.6733 148.877 28.2186C149.107 28.764 149.458 29.2172 149.931 29.5783C150.404 29.9394 150.923 30.1199 151.488 30.1199C152.141 30.1199 152.657 29.8717 153.036 29.3752C153.415 28.8787 153.604 28.292 153.604 27.615C153.604 27.2388 153.533 26.859 153.389 26.4753C153.245 26.0917 153.022 25.7344 152.719 25.4034C152.515 25.1777 151.958 24.6982 151.049 23.9647C150.139 23.2313 149.492 22.6465 149.108 22.2102C148.724 21.7739 148.433 21.2924 148.234 20.7659C148.036 20.2393 147.936 19.6601 147.936 19.0282C147.936 17.93 148.229 16.984 148.814 16.1904C149.4 15.3968 150.144 15 151.049 15C151.613 15 152.212 15.1994 152.844 15.598C153.137 15.7861 153.343 15.8801 153.463 15.8801C153.599 15.8801 153.71 15.8218 153.797 15.7052C153.883 15.5886 153.952 15.3536 154.004 15H154.294Z" fill="#101820"/>
</svg>
