<svg width="170" height="198" viewBox="0 0 170 198" fill="none" xmlns="http://www.w3.org/2000/svg">
<path d="M1.01398 18.8213C1.00433 16.6876 0.994799 14.5538 1.01043 12.42C1.02389 10.7113 1.01641 9.00965 1.00892 7.30477L1.0089 7.30154L1.00882 7.28201C1.00021 5.29569 0.991576 3.30496 1.01589 1.29371V1H84.6714H168.327V1.29371C168.351 3.30426 168.342 5.29431 168.334 7.27995V7.28201L168.334 7.30154L168.334 7.30477C168.326 9.00965 168.319 10.7113 168.332 12.42C168.348 14.5538 168.338 16.6876 168.329 18.8213C168.322 20.3963 168.315 21.9713 168.318 23.5462C168.33 30.661 168.33 37.7756 168.318 44.8902C168.313 47.6632 168.32 50.4397 168.34 53.2199C168.345 53.9835 168.337 54.8064 168.328 55.6512L168.328 55.668C168.317 56.7493 168.306 57.8658 168.323 58.9391C168.344 60.2707 168.333 61.4656 168.29 62.5237C168.088 67.56 167.763 71.8938 167.316 75.5253C166.693 80.5969 165.881 85.3174 164.878 89.6872C163.749 94.6177 162.377 99.621 160.763 104.697C160.162 106.586 159.063 109.543 157.467 113.567C157.114 114.459 156.724 115.353 156.326 116.247C156.199 116.53 156.072 116.814 155.945 117.098L155.934 117.122C155.666 117.72 155.397 118.32 155.136 118.919C153.98 121.583 152.544 124.549 150.826 127.818C149.091 131.121 147.283 134.314 145.402 137.397C144.524 138.835 143.529 140.419 142.415 142.15C141.999 142.798 141.578 143.423 141.156 144.047L140.975 144.314L140.948 144.353C140.699 144.721 140.451 145.087 140.203 145.458C139.587 146.377 139.019 147.199 138.499 147.923C137.664 149.089 136.826 150.233 135.982 151.359C133.126 155.166 130.207 158.752 127.145 162.178C125.315 164.226 123.391 166.207 121.493 168.153C120.477 169.195 118.367 171.198 115.164 174.162C109.589 179.323 103.595 184.056 97.1815 188.363C93.2986 190.971 89.4432 193.373 85.2022 195.645C85.0352 195.733 84.8516 195.806 84.6714 195.822C84.4911 195.806 84.3075 195.733 84.1405 195.645C79.8995 193.373 76.0441 190.971 72.1612 188.363C65.7479 184.056 59.7538 179.323 54.179 174.162C50.9761 171.198 48.8661 169.195 47.8493 168.153C45.9515 166.207 44.0281 164.226 42.1976 162.178C39.1358 158.752 36.2169 155.166 33.3607 151.359C32.5168 150.233 31.6783 149.089 30.8433 147.923C30.3234 147.199 29.7556 146.377 29.1399 145.458C28.8922 145.087 28.6433 144.721 28.3948 144.353L28.3682 144.314L28.1872 144.047C27.7649 143.423 27.3436 142.798 26.9276 142.15C25.8139 140.419 24.8183 138.835 23.9409 137.397C22.06 134.314 20.2518 131.121 18.5164 127.818C16.7992 124.549 15.3625 121.583 14.2063 118.919C13.9459 118.32 13.677 117.72 13.4084 117.122L13.3977 117.098C13.2704 116.814 13.1432 116.53 13.0169 116.247C12.6186 115.353 12.2292 114.459 11.8758 113.567C10.2797 109.543 9.18108 106.586 8.58001 104.697C6.96582 99.621 5.59392 94.6177 4.46444 89.6872C3.46213 85.3174 2.64964 80.5969 2.02671 75.5253C1.57949 71.8938 1.25462 67.56 1.05235 62.5237C1.00992 61.4656 0.998991 60.2707 1.01957 58.9391C1.03689 57.8658 1.02566 56.7493 1.01479 55.668L1.01462 55.6512C1.00598 54.8064 0.997594 53.9835 1.00318 53.2199C1.02262 50.4397 1.02986 47.6632 1.02504 44.8902C1.01297 37.7756 1.01297 30.661 1.02504 23.5462C1.02809 21.9713 1.0211 20.3963 1.01398 18.8213Z" fill="white"/>
<path d="M21.6403 131.594C22.8884 133.866 24.1722 136.083 25.4919 138.246C26.3668 139.681 27.3602 141.261 28.4723 142.99L28.4724 142.99C28.8849 143.632 29.3032 144.253 29.7253 144.876L21.6403 131.594ZM21.6403 131.594L85.7955 67.7056L149.951 131.594C148.703 133.866 147.419 136.083 146.099 138.246C145.224 139.681 144.231 141.261 143.119 142.99L143.119 142.99C142.706 143.632 142.288 144.253 141.866 144.876C141.866 144.876 141.866 144.876 141.866 144.876L141.685 145.144L141.658 145.183L141.658 145.183C141.606 145.26 141.553 145.338 141.501 145.415C141.305 145.705 141.108 145.995 140.912 146.289C140.298 147.205 139.733 148.023 139.217 148.742L139.217 148.742C138.384 149.905 137.548 151.046 136.706 152.168C133.858 155.966 130.948 159.54 127.897 162.954C127.782 163.083 127.666 163.211 127.551 163.339L86.1467 122.494L85.7955 122.148L85.4444 122.494L44.0404 163.339C43.9247 163.211 43.8095 163.083 43.6946 162.955C40.6431 159.54 37.7332 155.966 34.8848 152.168C34.0432 151.046 33.2069 149.905 32.3739 148.742L32.3736 148.742C31.8576 148.023 31.2929 147.205 30.6795 146.289C30.4836 145.996 30.2868 145.705 30.0911 145.416C30.0383 145.339 29.9856 145.261 29.933 145.183L29.9328 145.183L29.9063 145.144L29.9062 145.143L29.7253 144.876L21.6403 131.594Z" fill="#283F87" stroke="#101820"/>
<mask id="mask0_209_4084" style="mask-type:alpha" maskUnits="userSpaceOnUse" x="1" y="1" width="168" height="195">
<path d="M1.01398 18.8213C1.00433 16.6876 0.994799 14.5538 1.01043 12.42C1.02389 10.7113 1.01641 9.00965 1.00892 7.30477L1.0089 7.30154L1.00882 7.28201C1.00021 5.29569 0.991576 3.30496 1.01589 1.29371V1H84.6714H168.327V1.29371C168.351 3.30426 168.342 5.29431 168.334 7.27995V7.28201L168.334 7.30154L168.334 7.30477C168.326 9.00965 168.319 10.7113 168.332 12.42C168.348 14.5538 168.338 16.6876 168.329 18.8213C168.322 20.3963 168.315 21.9713 168.318 23.5462C168.33 30.661 168.33 37.7756 168.318 44.8902C168.313 47.6632 168.32 50.4397 168.34 53.2199C168.345 53.9835 168.337 54.8064 168.328 55.6512L168.328 55.668C168.317 56.7493 168.306 57.8658 168.323 58.9391C168.344 60.2707 168.333 61.4656 168.29 62.5237C168.088 67.56 167.763 71.8938 167.316 75.5253C166.693 80.5969 165.881 85.3174 164.878 89.6872C163.749 94.6177 162.377 99.621 160.763 104.697C160.162 106.586 159.063 109.543 157.467 113.567C157.114 114.459 156.724 115.353 156.326 116.247C156.199 116.53 156.072 116.814 155.945 117.098L155.934 117.122C155.666 117.72 155.397 118.32 155.136 118.919C153.98 121.583 152.544 124.549 150.826 127.818C149.091 131.121 147.283 134.314 145.402 137.397C144.524 138.835 143.529 140.419 142.415 142.15C141.999 142.798 141.578 143.423 141.156 144.047L140.975 144.314L140.948 144.353C140.699 144.721 140.451 145.087 140.203 145.458C139.587 146.377 139.019 147.199 138.499 147.923C137.664 149.089 136.826 150.233 135.982 151.359C133.126 155.166 130.207 158.752 127.145 162.178C125.315 164.226 123.391 166.207 121.493 168.153C120.477 169.195 118.367 171.198 115.164 174.162C109.589 179.323 103.595 184.056 97.1815 188.363C93.2986 190.971 89.4432 193.373 85.2022 195.645C85.0352 195.733 84.8516 195.806 84.6714 195.822C84.4911 195.806 84.3075 195.733 84.1405 195.645C79.8995 193.373 76.0441 190.971 72.1612 188.363C65.7479 184.056 59.7538 179.323 54.179 174.162C50.9761 171.198 48.8661 169.195 47.8493 168.153C45.9515 166.207 44.0281 164.226 42.1976 162.178C39.1358 158.752 36.2169 155.166 33.3607 151.359C32.5168 150.233 31.6783 149.089 30.8433 147.923C30.3234 147.199 29.7556 146.377 29.1399 145.458C28.8922 145.087 28.6433 144.721 28.3948 144.353L28.3682 144.314L28.1872 144.047C27.7649 143.423 27.3436 142.798 26.9276 142.15C25.8139 140.419 24.8183 138.835 23.9409 137.397C22.06 134.314 20.2518 131.121 18.5164 127.818C16.7992 124.549 15.3625 121.583 14.2063 118.919C13.9459 118.32 13.677 117.72 13.4084 117.122L13.3977 117.098C13.2704 116.814 13.1432 116.53 13.0169 116.247C12.6186 115.353 12.2292 114.459 11.8758 113.567C10.2797 109.543 9.18108 106.586 8.58001 104.697C6.96582 99.621 5.59392 94.6177 4.46444 89.6872C3.46213 85.3174 2.64964 80.5969 2.02671 75.5253C1.57949 71.8938 1.25462 67.56 1.05235 62.5237C1.00992 61.4656 0.998991 60.2707 1.01957 58.9391C1.03689 57.8658 1.02566 56.7493 1.01479 55.668L1.01462 55.6512C1.00598 54.8064 0.997594 53.9835 1.00318 53.2199C1.02262 50.4397 1.02986 47.6632 1.02504 44.8902C1.01297 37.7756 1.01297 30.661 1.02504 23.5462C1.02809 21.9713 1.0211 20.3963 1.01398 18.8213Z" fill="white"/>
</mask>
<g mask="url(#mask0_209_4084)">
<path d="M1 49.4H0.6V49V1V0.599998H1H169H169.4V1V49V49.4H169H148H127H106H85H64H43H22H1Z" fill="#A51C30" stroke="#101820" stroke-width="0.8"/>
<path d="M169 49H148H127H106H85H64H43H22H1V59" stroke="#101820" stroke-width="2"/>
</g>
<path d="M1.65991 56.1204C1.65127 55.2756 1.64289 54.4527 1.64848 53.6891L1.66119 1.76295V1.46924H85.3167H168.972V1.76295L168.936 62.9929C168.734 68.0292 168.409 72.363 167.961 75.9945C167.339 81.0661 166.526 85.7866 165.524 90.1564C164.394 95.0869 163.022 100.09 161.408 105.166C160.807 107.055 159.708 110.012 158.112 114.036C157.759 114.928 157.37 115.822 156.971 116.716C156.845 116.999 156.718 117.283 156.59 117.567L156.58 117.591C156.311 118.19 156.042 118.789 155.782 119.389C154.626 122.052 153.189 125.018 151.472 128.287C149.736 131.591 147.928 134.783 146.047 137.866C145.17 139.304 144.174 140.888 143.061 142.619C142.645 143.267 142.223 143.893 141.801 144.516L141.62 144.783L141.593 144.822C141.345 145.19 141.096 145.556 140.848 145.927C140.233 146.846 139.665 147.668 139.145 148.392C138.31 149.558 137.471 150.703 136.627 151.828C133.771 155.635 130.852 159.221 127.791 162.647C125.96 164.695 124.037 166.676 122.139 168.622C121.122 169.665 119.012 171.668 115.809 174.631C110.234 179.792 104.24 184.525 97.8268 188.832C93.9439 191.44 90.0885 193.842 85.8476 196.114C85.6806 196.203 85.4969 196.275 85.3167 196.291C85.1365 196.275 84.9528 196.203 84.7858 196.114C80.5448 193.842 76.6895 191.44 72.8065 188.832C66.3932 184.525 60.3991 179.792 54.8244 174.631C51.6214 171.668 49.5115 169.665 48.4947 168.622C46.5968 166.676 44.6735 164.695 42.8429 162.647C39.7811 159.221 36.8622 155.635 34.006 151.828C33.1621 150.703 32.3237 149.558 31.4886 148.392C30.9687 147.668 30.4009 146.846 29.7852 145.927C29.5375 145.556 29.2886 145.19 29.0401 144.822M1.65991 56.1204L1.66008 56.1372M1.65991 56.1204C1.65997 56.126 1.66003 56.1316 1.66008 56.1372M1.66008 56.1372C1.67096 57.2185 1.68219 58.335 1.66487 59.4083C1.64429 60.7399 1.65521 61.9348 1.69765 62.9929C1.89991 68.0292 2.22478 72.363 2.672 75.9945C3.29493 81.0661 4.10743 85.7866 5.10973 90.1564C6.23922 95.0869 7.61112 100.09 9.2253 105.166C9.82638 107.055 10.925 110.012 12.5212 114.036C12.8745 114.928 13.2639 115.822 13.6622 116.716C13.7886 116.999 13.9158 117.283 14.043 117.567M14.043 117.567L14.0537 117.591M14.043 117.567C14.0466 117.575 14.0502 117.583 14.0537 117.591M14.0537 117.591C14.3223 118.19 14.5913 118.789 14.8517 119.389C16.0078 122.052 17.4445 125.018 19.1617 128.287C20.8971 131.591 22.7053 134.783 24.5862 137.866C25.4636 139.304 26.4592 140.888 27.5729 142.619C27.9889 143.267 28.4102 143.893 28.8325 144.516M29.0401 144.822C29.0312 144.809 29.0224 144.796 29.0135 144.783M29.0401 144.822L29.0135 144.783M29.0135 144.783C28.9533 144.694 28.8927 144.605 28.8325 144.516M29.0135 144.783L28.8325 144.516" stroke="#101820" stroke-width="2"/>
<path fill-rule="evenodd" clip-rule="evenodd" d="M66.0062 10.8057H105.091V16.1963L108.218 16.3086C109.13 17.207 109.13 17.9557 108.218 18.5546H104.994V31.3573H108.316C108.611 32.0685 109.695 32.7798 108.316 33.4911H105.091V39.1063H65.9085V33.7157H63.0748C61.9535 33.2237 61.4079 32.2285 63.0748 31.4696H65.9085V18.4423H62.7817C61.7394 17.6936 61.7394 16.9449 62.7817 16.1963H65.9085L66.0062 10.8057Z" fill="#AD8B3A" stroke="#101820" stroke-width="0.8"/>
<path fill-rule="evenodd" clip-rule="evenodd" d="M67.3742 11.1425L67.9605 37.7585H103.039L103.528 10.9179L101.867 9.45794C98.2203 10.6259 96.0719 9.96667 93.3659 9.45794C90.9887 8.88204 88.5931 8.3834 85.4511 11.0302C83.5272 9.82909 82.2803 8.19022 76.3638 9.57025C73.921 9.99412 71.4782 10.324 69.0353 9.57025L67.3742 11.1425Z" fill="white" stroke="#101820" stroke-width="0.8"/>
<path d="M69.0353 9.68262L69.7193 35.6248L67.9605 37.7586L69.6216 35.5125C71.5299 36.449 74.0722 36.1712 76.7547 35.6248C82.3672 35.0858 83.2626 36.4236 85.4739 37.2807C89.0546 34.8624 91.4532 35.7232 94.0499 35.8494C96.4601 36.1363 98.8704 36.6604 101.281 35.5125L102.844 37.6463L101.183 35.2879L101.867 9.45801" stroke="#101820" stroke-width="0.8"/>
<path d="M85.4511 37.1971V10.8057" stroke="#101820" stroke-width="0.8"/>
<path fill-rule="evenodd" clip-rule="evenodd" d="M85.4691 37.2053C84.6419 37.6931 84.0257 38.3155 83.7965 39.1851C85.2858 41.3643 86.2422 40.4132 87.1417 39.1277C86.7667 38.2352 86.1763 37.6397 85.4691 37.2053Z" fill="#AD8B3A" stroke="#101820" stroke-width="0.8"/>
<path fill-rule="evenodd" clip-rule="evenodd" d="M11.0062 10.8057H50.0914V16.1963L53.2183 16.3086C54.1303 17.207 54.1303 17.9557 53.2183 18.5546H49.9937V31.3573H53.316C53.6109 32.0685 54.6954 32.7798 53.316 33.4911H50.0914V39.1063H10.9085V33.7157H8.07484C6.95352 33.2237 6.40795 32.2285 8.07484 31.4696H10.9085V18.4423H7.78171C6.73943 17.6936 6.73943 16.9449 7.78171 16.1963H10.9085L11.0062 10.8057Z" fill="#AD8B3A" stroke="#101820" stroke-width="0.8"/>
<path fill-rule="evenodd" clip-rule="evenodd" d="M12.3742 11.1425L12.9605 37.7585H48.0395L48.528 10.9179L46.8669 9.45794C43.2203 10.6259 41.0719 9.96667 38.3659 9.45794C35.9887 8.88204 33.5931 8.3834 30.4511 11.0302C28.5272 9.82909 27.2803 8.19022 21.3638 9.57025C18.921 9.99412 16.4782 10.324 14.0353 9.57025L12.3742 11.1425Z" fill="white" stroke="#101820" stroke-width="0.8"/>
<path d="M14.0353 9.68262L14.7193 35.6248L12.9605 37.7586L14.6216 35.5125C16.5299 36.449 19.0722 36.1712 21.7547 35.6248C27.3672 35.0858 28.2626 36.4236 30.4739 37.2807C34.0546 34.8624 36.4532 35.7232 39.0499 35.8494C41.4601 36.1363 43.8704 36.6604 46.2806 35.5125L47.8441 37.6463L46.1829 35.2879L46.8669 9.45801" stroke="#101820" stroke-width="0.8"/>
<path d="M30.4511 37.1971V10.8057" stroke="#101820" stroke-width="0.8"/>
<path fill-rule="evenodd" clip-rule="evenodd" d="M30.4691 37.2053C29.6419 37.6931 29.0257 38.3155 28.7965 39.1851C30.2858 41.3643 31.2422 40.4132 32.1417 39.1277C31.7667 38.2352 31.1763 37.6397 30.4691 37.2053Z" fill="#AD8B3A" stroke="#101820" stroke-width="0.8"/>
<path fill-rule="evenodd" clip-rule="evenodd" d="M121.006 10.8057H160.091V16.1963L163.218 16.3086C164.13 17.207 164.13 17.9557 163.218 18.5546H159.994V31.3573H163.316C163.611 32.0685 164.695 32.7798 163.316 33.4911H160.091V39.1063H120.909V33.7157H118.075C116.954 33.2237 116.408 32.2285 118.075 31.4696H120.909V18.4423H117.782C116.739 17.6936 116.739 16.9449 117.782 16.1963H120.909L121.006 10.8057Z" fill="#AD8B3A" stroke="#101820" stroke-width="0.8"/>
<path fill-rule="evenodd" clip-rule="evenodd" d="M122.374 11.1425L122.96 37.7585H158.039L158.528 10.9179L156.867 9.45794C153.22 10.6259 151.072 9.96667 148.366 9.45794C145.989 8.88204 143.593 8.3834 140.451 11.0302C138.527 9.82909 137.28 8.19022 131.364 9.57025C128.921 9.99412 126.478 10.324 124.035 9.57025L122.374 11.1425Z" fill="white" stroke="#101820" stroke-width="0.8"/>
<path d="M124.035 9.68262L124.719 35.6248L122.96 37.7586L124.622 35.5125C126.53 36.449 129.072 36.1712 131.755 35.6248C137.367 35.0858 138.263 36.4236 140.474 37.2807C144.055 34.8624 146.453 35.7232 149.05 35.8494C151.46 36.1363 153.87 36.6604 156.281 35.5125L157.844 37.6463L156.183 35.2879L156.867 9.45801" stroke="#101820" stroke-width="0.8"/>
<path d="M140.451 37.1971V10.8057" stroke="#101820" stroke-width="0.8"/>
<path fill-rule="evenodd" clip-rule="evenodd" d="M140.469 37.2053C139.642 37.6931 139.026 38.3155 138.796 39.1851C140.286 41.3643 141.242 40.4132 142.142 39.1277C141.767 38.2352 141.176 37.6397 140.469 37.2053Z" fill="#AD8B3A" stroke="#101820" stroke-width="0.8"/>
<path d="M30.4659 15V15.4535C30.0157 15.5597 29.675 15.7477 29.4437 16.0173C29.1124 16.4177 28.8186 17.0305 28.5623 17.8558L24.1268 32H23.7798L19.0161 17.672C18.7723 16.9366 18.6004 16.4872 18.5004 16.3237C18.3441 16.0704 18.1519 15.8723 17.9237 15.7293C17.6955 15.5863 17.3876 15.4944 17 15.4535V15H22.195V15.4535C21.6074 15.5271 21.2261 15.6578 21.051 15.8457C20.876 16.0337 20.7884 16.2747 20.7884 16.5689C20.7884 16.9774 20.9322 17.6148 21.2198 18.4809L24.455 28.2249L27.4557 18.6035C27.7496 17.6556 27.8965 16.9979 27.8965 16.6301C27.8965 16.3932 27.8058 16.1664 27.6245 15.9499C27.4432 15.7334 27.1369 15.5802 26.7056 15.4903C26.6743 15.4821 26.6211 15.4699 26.5461 15.4535V15H30.4659ZM34.7232 15.907V22.4766H37.5176C38.2428 22.4766 38.7273 22.3336 38.9711 22.0476C39.2962 21.6717 39.4775 21.0099 39.515 20.062H39.862V25.8472H39.515C39.4275 25.0382 39.34 24.5194 39.2524 24.2906C39.1399 24.0046 38.9555 23.7799 38.6992 23.6164C38.4429 23.453 38.049 23.3713 37.5176 23.3713H34.7232V28.85C34.7232 29.5854 34.7482 30.0328 34.7982 30.1921C34.8482 30.3515 34.9357 30.4781 35.0608 30.5721C35.1858 30.6661 35.4234 30.7131 35.7734 30.7131H37.9302C38.6492 30.7131 39.1712 30.6477 39.4963 30.5169C39.8213 30.3862 40.1339 30.1288 40.434 29.7448C40.8216 29.2382 41.2185 28.4742 41.6249 27.4528H42L40.9029 31.62H31.1035V31.1665H31.5536C31.8537 31.1665 32.1382 31.0726 32.407 30.8846C32.607 30.7539 32.743 30.5578 32.8149 30.2963C32.8868 30.0349 32.9227 29.4996 32.9227 28.6907V17.8926C32.9227 16.8385 32.8415 16.1889 32.6789 15.9438C32.4539 15.6169 32.0788 15.4535 31.5536 15.4535H31.1035V15H40.9029L41.0435 18.6402H40.6778C40.5465 17.7659 40.4012 17.1654 40.2417 16.8385C40.0823 16.5117 39.8463 16.2625 39.5338 16.0908C39.2837 15.9683 38.843 15.907 38.2116 15.907H34.7232Z" fill="#101820"/>
<path d="M84.9814 31H81.7663L77.6895 23.0516C77.3876 23.0683 77.1418 23.0767 76.9524 23.0767C76.8754 23.0767 76.7925 23.0746 76.7037 23.0704C76.6149 23.0663 76.5231 23.06 76.4283 23.0516V27.9912C76.4283 29.061 76.5112 29.7254 76.677 29.9845C76.902 30.3523 77.2395 30.5361 77.6895 30.5361H78.1603V31H73V30.5361H73.453C73.9622 30.5361 74.3263 30.3021 74.5454 29.8341C74.6698 29.575 74.7319 28.9607 74.7319 27.9912V17.0089C74.7319 15.9391 74.649 15.2746 74.4832 15.0155C74.2523 14.6478 73.9089 14.4639 73.453 14.4639H73V14H77.3876C78.6665 14 79.6095 14.1317 80.2164 14.3949C80.8233 14.6582 81.3384 15.143 81.7618 15.8492C82.1852 16.5554 82.3968 17.3975 82.3969 18.3754C82.3968 19.4201 82.1556 20.327 81.673 21.0959C81.1904 21.8648 80.4429 22.4081 79.4304 22.7257L81.9172 27.6025C82.4857 28.7225 82.9742 29.4663 83.3827 29.8341C83.7913 30.2018 84.3242 30.4358 84.9814 30.5361V31ZM76.4283 22.2618C76.5408 22.2618 76.6385 22.2639 76.7214 22.2681C76.8043 22.2723 76.8724 22.2743 76.9257 22.2743C78.0744 22.2743 78.9404 21.9233 79.5236 21.2212C80.1068 20.5192 80.3985 19.6249 80.3985 18.5383C80.3985 17.4769 80.1631 16.614 79.6924 15.9495C79.2216 15.285 78.5984 14.9528 77.8228 14.9528C77.4793 14.9528 77.0145 15.0322 76.4283 15.191V22.2618ZM95 30.5361V31H89.8397V30.5361H90.266C90.7634 30.5361 91.1246 30.3314 91.3496 29.9218C91.4917 29.6544 91.5628 29.0108 91.5628 27.9912V17.0089C91.5628 16.148 91.5243 15.5797 91.4473 15.3038C91.3881 15.0949 91.2667 14.9152 91.0832 14.7647C90.8226 14.5642 90.5503 14.4639 90.266 14.4639H89.8397V14H95V14.4639H94.5648C94.0733 14.4639 93.7151 14.6686 93.4901 15.0782C93.3421 15.3456 93.2681 15.9892 93.2681 17.0089V27.9912C93.2681 28.852 93.3066 29.4204 93.3835 29.6962C93.4427 29.9051 93.5671 30.0848 93.7566 30.2352C94.0112 30.4358 94.2806 30.5361 94.5648 30.5361H95Z" fill="#101820"/>
<path d="M134.804 15.3498L134.922 18.9379H134.624C134.566 18.3061 134.488 17.8547 134.389 17.5839C134.227 17.1476 134.011 16.8261 133.742 16.6192C133.473 16.4123 133.119 16.3089 132.68 16.3089H131.182V27.9986C131.182 28.9389 131.253 29.5256 131.394 29.7588C131.592 30.0748 131.898 30.2327 132.311 30.2327H132.68V30.6502H128.172V30.2327H128.548C128.997 30.2327 129.316 30.0371 129.504 29.646C129.619 29.4053 129.677 28.8561 129.677 27.9986V16.3089H128.399C127.902 16.3089 127.55 16.3616 127.341 16.4669C127.069 16.6098 126.836 16.8844 126.643 17.2906C126.449 17.6968 126.335 18.2459 126.298 18.9379H126L126.125 15.3498H134.804ZM142.676 25.5275H138.56L137.838 27.9422C137.661 28.5364 137.572 28.9803 137.572 29.2736C137.572 29.5068 137.649 29.7118 137.803 29.8886C137.957 30.0654 138.29 30.1801 138.803 30.2327V30.6502H135.455V30.2327C135.899 30.1199 136.187 29.9732 136.317 29.7927C136.584 29.4316 136.879 28.6982 137.203 27.5924L140.943 15H141.217L144.918 27.7278C145.216 28.7508 145.486 29.4147 145.729 29.7193C145.972 30.024 146.311 30.1951 146.745 30.2327V30.6502H142.55V30.2327C142.973 30.2026 143.26 30.1011 143.409 29.9281C143.558 29.7551 143.632 29.5444 143.632 29.2962C143.632 28.9652 143.528 28.4424 143.318 27.7278L142.676 25.5275ZM142.456 24.6925L140.653 18.5092L138.803 24.6925H142.456ZM154.294 15V20.292H154.004C153.91 19.2765 153.742 18.4678 153.499 17.866C153.256 17.2642 152.909 16.7866 152.46 16.433C152.01 16.0795 151.545 15.9027 151.064 15.9027C150.521 15.9027 150.071 16.1415 149.716 16.6192C149.36 17.0969 149.183 17.6404 149.183 18.2496C149.183 18.716 149.295 19.1411 149.52 19.5247C149.844 20.0889 150.615 20.8411 151.833 21.7814C152.826 22.5487 153.504 23.1373 153.867 23.5473C154.23 23.9572 154.51 24.4405 154.706 24.9972C154.902 25.5538 155 26.1368 155 26.7461C155 27.9046 154.688 28.9032 154.063 29.7419C153.439 30.5806 152.635 31 151.652 31C151.344 31 151.054 30.9661 150.782 30.8984C150.62 30.8608 150.284 30.7236 149.775 30.4866C149.265 30.2497 148.942 30.1312 148.806 30.1312C148.676 30.1312 148.573 30.1876 148.497 30.3004C148.421 30.4133 148.365 30.6465 148.328 31H148.038V25.7532H148.328C148.464 26.8514 148.647 27.6733 148.877 28.2186C149.107 28.764 149.458 29.2172 149.931 29.5783C150.404 29.9394 150.923 30.1199 151.488 30.1199C152.141 30.1199 152.657 29.8717 153.036 29.3752C153.415 28.8787 153.604 28.292 153.604 27.615C153.604 27.2388 153.533 26.859 153.389 26.4753C153.245 26.0917 153.022 25.7344 152.719 25.4034C152.515 25.1777 151.958 24.6982 151.049 23.9647C150.139 23.2313 149.492 22.6465 149.108 22.2102C148.724 21.7739 148.433 21.2924 148.234 20.7659C148.036 20.2393 147.936 19.6601 147.936 19.0282C147.936 17.93 148.229 16.984 148.814 16.1904C149.4 15.3968 150.144 15 151.049 15C151.613 15 152.212 15.1994 152.844 15.598C153.137 15.7861 153.343 15.8801 153.463 15.8801C153.599 15.8801 153.71 15.8218 153.797 15.7052C153.883 15.5886 153.952 15.3536 154.004 15H154.294Z" fill="#101820"/>
<path fill-rule="evenodd" clip-rule="evenodd" d="M49.7353 138.1C50.197 139.564 51.4098 141.116 51.1581 142.584C50.2195 143.771 48.5954 144.498 47.976 145.683C48.1509 145.576 49.9869 144.186 50.3778 143.803C50.673 143.514 49.4695 145.649 49.613 145.498C50.4613 144.609 51.1068 143.522 51.4394 143.27C51.7719 143.018 50.759 145.394 50.9859 145.049C51.2485 144.649 51.8053 143.284 52.1601 143.085C52.8403 142.705 53.5995 142.976 54.4888 142.573C53.7795 142.386 53.0703 142.198 52.3611 142.011C51.5375 140.548 51.6802 139.615 52.1426 138.101C51.3402 138.101 50.5378 138.1 49.7353 138.1Z" fill="#A51C30" stroke="#101820" stroke-width="0.8"/>
<path fill-rule="evenodd" clip-rule="evenodd" d="M53.1089 137.548C53.5705 139.012 54.7834 140.564 54.5317 142.032C53.5931 143.219 51.9659 144.323 51.3903 145.112C52.2406 144.644 53.413 143.635 54.1298 143.045C54.2109 142.978 52.6723 145.572 52.7536 145.505C53.2391 144.744 54.2332 143.501 54.7715 142.579C54.8539 142.515 54.0326 145.203 54.1161 145.142C54.1996 145.08 55.1457 142.517 55.2307 142.459C56.0457 141.8 57.2747 141.605 58.2239 141.291C57.5147 141.103 56.4438 141.646 55.7346 141.459C54.911 139.996 55.0537 139.063 55.5161 137.549C54.7137 137.549 53.9113 137.548 53.1089 137.548Z" fill="#A51C30" stroke="#101820" stroke-width="0.8"/>
<path fill-rule="evenodd" clip-rule="evenodd" d="M32.8012 122.937C33.0939 122.566 34.1363 121.523 34.6285 120.973C33.8195 118.69 35.9269 116.746 38.1705 116.972C39.708 117.127 40.7075 118.282 41.3828 119.628C41.7237 120.702 42.6696 121.364 43.3787 122.188C44.5335 122.521 45.7075 122.728 46.9117 122.736C50.6179 122.545 53.5469 124.301 56.591 126.241C61.7928 130.651 66.9308 130.155 72.9936 128.918C72.7343 129.582 72.7714 130.426 72.1007 130.84C71.6346 131.283 71.0806 131.668 70.9782 132.35C70.8362 132.905 70.6301 133.404 70.0288 133.567C68.8386 134.117 67.8588 135.031 66.6637 135.56C65.3702 135.897 63.9424 134.187 62.6204 134.718C60.605 135.618 58.7691 136.898 56.8076 137.91C53.4548 138.649 49.7887 138.804 46.8575 137.884C44.0647 137.007 41.9755 135.138 40.0217 132.539C39.1171 131.346 38.6301 129.575 38.2299 127.817C37.7354 125.645 37.4965 123.59 36.6327 122.568C36.2534 122.119 34.459 122.878 33.7641 122.904C33.4482 123.218 33.1015 123.373 33.206 123.696C32.8165 123.863 32.5178 123.295 32.8012 122.937Z" fill="white" stroke="#101820" stroke-width="0.8"/>
<path d="M44.7035 128.47C44.3047 133.46 49.4138 133.633 53.3033 133.019C55.5823 132.659 57.8531 132.441 60.1478 132.34C60.5567 131.859 61.6092 131.533 61.5847 130.948C61.1489 130.457 61.4767 130.132 61.8396 129.745C61.8236 129.605 61.8076 129.466 61.7916 129.327" stroke="#101820" stroke-width="0.8"/>
<path d="M59.4532 133.948L63.6334 134.632" stroke="#101820" stroke-width="0.8"/>
<path d="M61.3074 132.762C63.5108 132.953 65.6252 133.044 68.7485 134.267" stroke="#101820" stroke-width="0.8"/>
<path d="M62.2478 131.682C65.3409 131.782 68.4821 131.785 71.2002 132.642" stroke="#101820" stroke-width="0.8"/>
<path d="M63.768 130.813C66.4705 130.832 69.1779 130.849 72.4309 130.464" stroke="#101820" stroke-width="0.8"/>
<path d="M49.4397 131.463C53.4268 131.309 57.4801 130.974 61.2815 131.33L61.5362 131.532" stroke="#101820" stroke-width="0.8"/>
<path d="M52.6173 130.018C55.5437 129.985 58.4656 129.911 61.4399 130.294" stroke="#101820" stroke-width="0.8"/>
<path d="M55.9276 128.455C57.5043 128.44 59.1267 128.48 61.0549 128.898" stroke="#101820" stroke-width="0.8"/>
<path d="M39.4342 121.299L40.4176 123.408L40.8219 122.899" stroke="#101820" stroke-width="0.8"/>
<path d="M40.7434 121.01L41.3491 122.653" stroke="#101820" stroke-width="0.8"/>
<path fill-rule="evenodd" clip-rule="evenodd" d="M37.9543 119.502C38.107 119.83 37.9356 120.233 37.5719 120.403C37.2081 120.572 36.7889 120.444 36.6363 120.117C36.4836 119.789 36.6549 119.386 37.0187 119.216C37.3825 119.047 37.8016 119.175 37.9543 119.502Z" fill="#101820" stroke="#101820" stroke-width="0.8"/>
<path d="M37.5838 119.614C37.6182 119.688 37.6249 119.771 37.6025 119.845C37.5801 119.919 37.5304 119.977 37.4644 120.008C37.3983 120.039 37.3214 120.039 37.2504 120.009C37.1794 119.979 37.1202 119.92 37.0858 119.846C37.0515 119.773 37.0448 119.69 37.0672 119.616C37.0896 119.542 37.1392 119.483 37.2053 119.453C37.2713 119.422 37.3483 119.421 37.4193 119.452C37.4903 119.482 37.5494 119.541 37.5838 119.614Z" fill="#101820" stroke="#101820" stroke-width="0.8" stroke-linecap="round"/>
<path d="M47.5114 128.152C47.5114 128.152 50.3467 128.848 51.3177 128.483C52.2886 128.118 51.3951 126.692 51.3951 126.692" stroke="#101820" stroke-width="0.8"/>
<path d="M44.8976 125.859C44.8976 125.859 51.2985 128.141 48.8733 125.199" stroke="#101820" stroke-width="0.8"/>
<path d="M35.8952 122.14C36.2269 121.132 34.5672 122.269 33.7534 122.893" stroke="#101820" stroke-width="0.8"/>
<path fill-rule="evenodd" clip-rule="evenodd" d="M117.059 137.789C117.521 139.253 118.734 140.805 118.482 142.273C117.543 143.46 115.919 144.187 115.3 145.372C115.475 145.265 117.311 143.875 117.702 143.493C117.997 143.204 116.793 145.338 116.937 145.188C117.785 144.298 118.431 143.212 118.763 142.96C119.096 142.708 118.083 145.083 118.31 144.738C118.572 144.338 119.129 142.973 119.484 142.775C120.164 142.394 120.923 142.666 121.813 142.262C121.103 142.075 120.394 141.887 119.685 141.7C118.861 140.237 119.004 139.304 119.466 137.79C118.664 137.79 117.862 137.79 117.059 137.789Z" fill="#A51C30" stroke="#101820" stroke-width="0.8"/>
<path fill-rule="evenodd" clip-rule="evenodd" d="M120.433 137.237C120.894 138.701 122.107 140.253 121.855 141.721C120.917 142.908 119.29 144.013 118.714 144.801C119.564 144.333 120.737 143.324 121.454 142.735C121.535 142.668 119.996 145.261 120.077 145.194C120.563 144.433 121.557 143.19 122.095 142.268C122.178 142.204 121.356 144.892 121.44 144.831C121.523 144.77 122.469 142.206 122.554 142.148C123.369 141.489 124.599 141.294 125.548 140.98C124.838 140.792 123.768 141.335 123.058 141.148C122.235 139.685 122.377 138.752 122.84 137.238C122.037 137.238 121.235 137.238 120.433 137.237Z" fill="#A51C30" stroke="#101820" stroke-width="0.8"/>
<path fill-rule="evenodd" clip-rule="evenodd" d="M100.125 122.626C100.418 122.255 101.46 121.212 101.952 120.662C101.143 118.379 103.251 116.436 105.494 116.662C107.032 116.816 108.031 117.972 108.707 119.317C109.047 120.391 109.993 121.054 110.702 121.877C111.857 122.21 113.031 122.418 114.235 122.426C117.942 122.235 120.871 123.99 123.915 125.93C129.117 130.341 134.255 129.844 140.317 128.607C140.058 129.271 140.095 130.116 139.425 130.529C138.958 130.972 138.404 131.357 138.302 132.039C138.16 132.594 137.954 133.093 137.353 133.256C136.162 133.807 135.183 134.721 133.987 135.249C132.694 135.587 131.266 133.876 129.944 134.407C127.929 135.308 126.093 136.588 124.131 137.599C120.779 138.338 117.112 138.493 114.181 137.573C111.388 136.697 109.299 134.827 107.345 132.228C106.441 131.036 105.954 129.264 105.554 127.506C105.059 125.334 104.82 123.28 103.957 122.257C103.577 121.808 101.783 122.567 101.088 122.594C100.772 122.907 100.425 123.062 100.53 123.385C100.14 123.553 99.8416 122.984 100.125 122.626Z" fill="white" stroke="#101820" stroke-width="0.8"/>
<path d="M112.027 128.159C111.628 133.149 116.738 133.322 120.627 132.708C122.906 132.348 125.177 132.13 127.472 132.029C127.881 131.549 128.933 131.222 128.908 130.637C128.473 130.146 128.8 129.821 129.163 129.434C129.147 129.295 129.131 129.156 129.115 129.016" stroke="#101820" stroke-width="0.8"/>
<path d="M126.777 133.637L130.957 134.322" stroke="#101820" stroke-width="0.8"/>
<path d="M128.631 132.452C130.835 132.642 132.949 132.733 136.072 133.956" stroke="#101820" stroke-width="0.8"/>
<path d="M129.572 131.371C132.665 131.471 135.806 131.474 138.524 132.331" stroke="#101820" stroke-width="0.8"/>
<path d="M131.092 130.502C133.794 130.522 136.502 130.538 139.755 130.153" stroke="#101820" stroke-width="0.8"/>
<path d="M116.763 131.152C120.751 130.999 124.804 130.663 128.605 131.02L128.86 131.222" stroke="#101820" stroke-width="0.8"/>
<path d="M119.941 129.708C122.867 129.674 125.789 129.6 128.764 129.983" stroke="#101820" stroke-width="0.8"/>
<path d="M123.251 128.145C124.828 128.129 126.45 128.169 128.379 128.587" stroke="#101820" stroke-width="0.8"/>
<path d="M106.758 120.989L107.741 123.097L108.146 122.588" stroke="#101820" stroke-width="0.8"/>
<path d="M108.067 120.699L108.673 122.342" stroke="#101820" stroke-width="0.8"/>
<path fill-rule="evenodd" clip-rule="evenodd" d="M105.278 119.191C105.431 119.519 105.259 119.922 104.896 120.092C104.532 120.261 104.113 120.133 103.96 119.806C103.807 119.479 103.979 119.075 104.342 118.906C104.706 118.736 105.125 118.864 105.278 119.191Z" fill="#101820" stroke="#101820" stroke-width="0.8"/>
<path d="M104.908 119.303C104.942 119.377 104.949 119.46 104.926 119.534C104.904 119.608 104.854 119.667 104.788 119.697C104.722 119.728 104.645 119.728 104.574 119.698C104.503 119.668 104.444 119.609 104.41 119.536C104.375 119.462 104.369 119.379 104.391 119.305C104.413 119.231 104.463 119.173 104.529 119.142C104.595 119.111 104.672 119.111 104.743 119.141C104.814 119.171 104.873 119.23 104.908 119.303Z" fill="#101820" stroke="#101820" stroke-width="0.8" stroke-linecap="round"/>
<path d="M114.835 127.841C114.835 127.841 117.671 128.538 118.641 128.173C119.612 127.808 118.719 126.381 118.719 126.381" stroke="#101820" stroke-width="0.8"/>
<path d="M112.221 125.548C112.221 125.548 118.622 127.83 116.197 124.888" stroke="#101820" stroke-width="0.8"/>
<path d="M103.219 121.829C103.551 120.822 101.891 121.958 101.077 122.582" stroke="#101820" stroke-width="0.8"/>
<path fill-rule="evenodd" clip-rule="evenodd" d="M81.7353 108.789C82.197 110.253 83.4098 111.805 83.1581 113.273C82.2195 114.46 80.5954 115.187 79.976 116.372C80.1509 116.265 81.9869 114.875 82.3778 114.493C82.673 114.204 81.4695 116.338 81.613 116.188C82.4613 115.298 83.1068 114.212 83.4394 113.96C83.7719 113.708 82.759 116.083 82.9859 115.738C83.2485 115.338 83.8053 113.973 84.1601 113.775C84.8403 113.394 85.5995 113.666 86.4888 113.262C85.7795 113.075 85.0703 112.887 84.3611 112.7C83.5375 111.237 83.6802 110.304 84.1426 108.79C83.3402 108.79 82.5378 108.79 81.7353 108.789Z" fill="#A51C30" stroke="#101820" stroke-width="0.8"/>
<path fill-rule="evenodd" clip-rule="evenodd" d="M85.1089 108.237C85.5705 109.701 86.7834 111.253 86.5317 112.721C85.5931 113.908 83.9659 115.013 83.3903 115.801C84.2406 115.333 85.413 114.324 86.1298 113.735C86.2109 113.668 84.6723 116.261 84.7536 116.194C85.2391 115.433 86.2332 114.19 86.7715 113.268C86.8539 113.204 86.0326 115.892 86.1161 115.831C86.1996 115.77 87.1457 113.206 87.2307 113.148C88.0457 112.489 89.2747 112.294 90.2239 111.98C89.5147 111.792 88.4438 112.335 87.7346 112.148C86.911 110.685 87.0537 109.752 87.5161 108.238C86.7137 108.238 85.9113 108.238 85.1089 108.237Z" fill="#A51C30" stroke="#101820" stroke-width="0.8"/>
<path fill-rule="evenodd" clip-rule="evenodd" d="M64.8012 93.6258C65.0939 93.2553 66.1363 92.2124 66.6285 91.662C65.8195 89.3795 67.9269 87.4357 70.1705 87.6615C71.708 87.8163 72.7075 88.9717 73.3828 90.3174C73.7237 91.3912 74.6696 92.0536 75.3787 92.877C76.5335 93.2103 77.7075 93.4175 78.9117 93.4255C82.6179 93.2346 85.5469 94.9904 88.591 96.9305C93.7928 101.341 98.9308 100.844 104.994 99.6068C104.734 100.271 104.771 101.116 104.101 101.529C103.635 101.972 103.081 102.357 102.978 103.039C102.836 103.594 102.63 104.093 102.029 104.256C100.839 104.807 99.8588 105.721 98.6637 106.249C97.3702 106.587 95.9424 104.876 94.6204 105.407C92.605 106.308 90.7691 107.588 88.8076 108.599C85.4548 109.338 81.7887 109.493 78.8575 108.573C76.0647 107.697 73.9755 105.827 72.0217 103.228C71.1171 102.036 70.6301 100.264 70.2299 98.5062C69.7354 96.334 69.4965 94.2797 68.6327 93.2572C68.2534 92.8082 66.459 93.5671 65.7641 93.5935C65.4482 93.9072 65.1015 94.0621 65.206 94.3853C64.8165 94.5526 64.5178 93.9844 64.8012 93.6258Z" fill="white" stroke="#101820" stroke-width="0.8"/>
<path d="M76.7035 99.1591C76.3047 104.149 81.4138 104.322 85.3033 103.708C87.5823 103.348 89.8531 103.13 92.1478 103.029C92.5567 102.549 93.6092 102.222 93.5847 101.637C93.1489 101.146 93.4767 100.821 93.8396 100.434C93.8236 100.295 93.8076 100.156 93.7916 100.016" stroke="#101820" stroke-width="0.8"/>
<path d="M91.4532 104.637L95.6334 105.322" stroke="#101820" stroke-width="0.8"/>
<path d="M93.3074 103.452C95.5108 103.642 97.6252 103.733 100.749 104.956" stroke="#101820" stroke-width="0.8"/>
<path d="M94.2478 102.371C97.3409 102.471 100.482 102.474 103.2 103.331" stroke="#101820" stroke-width="0.8"/>
<path d="M95.768 101.502C98.4705 101.522 101.178 101.538 104.431 101.153" stroke="#101820" stroke-width="0.8"/>
<path d="M81.4397 102.152C85.4268 101.999 89.4801 101.663 93.2815 102.02L93.5362 102.222" stroke="#101820" stroke-width="0.8"/>
<path d="M84.6173 100.708C87.5437 100.674 90.4656 100.6 93.4399 100.983" stroke="#101820" stroke-width="0.8"/>
<path d="M87.9276 99.1445C89.5043 99.1288 91.1267 99.1693 93.0549 99.5869" stroke="#101820" stroke-width="0.8"/>
<path d="M71.4342 91.9885L72.4176 94.0974L72.8219 93.588" stroke="#101820" stroke-width="0.8"/>
<path d="M72.7434 91.699L73.3491 93.3422" stroke="#101820" stroke-width="0.8"/>
<path fill-rule="evenodd" clip-rule="evenodd" d="M69.9543 90.1914C70.107 90.5188 69.9356 90.9222 69.5719 91.0918C69.2081 91.2615 68.7889 91.1334 68.6363 90.806C68.4836 90.4786 68.6549 90.0752 69.0187 89.9056C69.3825 89.736 69.8016 89.864 69.9543 90.1914Z" fill="#101820" stroke="#101820" stroke-width="0.8"/>
<path d="M69.5838 90.3034C69.6182 90.3771 69.6249 90.46 69.6025 90.5339C69.5801 90.6078 69.5304 90.6666 69.4644 90.6974C69.3983 90.7281 69.3214 90.7284 69.2504 90.6981C69.1794 90.6677 69.1202 90.6093 69.0858 90.5356C69.0515 90.4619 69.0448 90.3791 69.0672 90.3052C69.0896 90.2313 69.1392 90.1725 69.2053 90.1417C69.2713 90.1109 69.3483 90.1107 69.4193 90.141C69.4903 90.1713 69.5494 90.2297 69.5838 90.3034Z" fill="#101820" stroke="#101820" stroke-width="0.8" stroke-linecap="round"/>
<path d="M79.5114 98.8408C79.5114 98.8408 82.3467 99.5376 83.3177 99.1726C84.2886 98.8076 83.3951 97.3809 83.3951 97.3809" stroke="#101820" stroke-width="0.8"/>
<path d="M76.8976 96.5483C76.8976 96.5483 83.2985 98.8302 80.8733 95.8882" stroke="#101820" stroke-width="0.8"/>
<path d="M67.8952 92.8288C68.2269 91.8217 66.5672 92.9581 65.7534 93.5818" stroke="#101820" stroke-width="0.8"/>
<path d="M33.0412 77.2591C38.3826 74.0828 33.9969 72.0755 30.2334 73.1413C32.1035 69.0995 30.1348 67.4445 26.482 66.8365C27.96 64.9554 30.093 63.252 26.1517 59.9019C28.7303 59.0357 30.3254 57.6028 27.7488 52C31.8807 52.4669 31.0757 57.0574 35.9746 54.6488C35.3416 61.3574 37.7875 60.7539 40.9289 58.5012C40.9991 61.2189 38.494 66.3825 43.9757 63.9617C41.7488 68.2095 43.1643 69.8125 46.8731 69.7487C47.0978 74.0674 43.7477 76.4309 44.1779 80.8616C41.1073 77.4226 36.7552 81.0896 33.0412 77.2591Z" fill="#021B0B" stroke="#101820" stroke-width="0.8"/>
<path d="M29.3807 53.5771C29.9287 53.979 30.3615 54.5006 30.934 55.059C31.4524 55.5645 32.1383 56.0875 33.0708 56.2234C33.5358 56.2916 34.0536 56.2266 34.6055 56.09C33.7747 57.2267 33.4076 58.9088 33.3729 61.016C32.624 59.5495 31.8662 58.0876 31.0995 56.6304C30.679 55.8337 30.4272 55.2973 29.8856 54.5805C29.8405 54.5206 29.8141 54.4955 29.8032 54.4987C29.7278 54.5225 30.4156 55.9361 30.6623 56.4552C31.556 58.3414 32.4604 60.2226 33.3754 62.0986C31.5407 60.6592 29.8122 59.7673 28.2891 60.1827C29.8347 60.144 31.7384 61.2253 33.7953 62.9551C34.5606 64.5093 35.3442 66.0543 36.1459 67.59C35.0434 66.9602 33.9235 66.3542 32.7256 65.9948C31.3243 65.5743 29.8128 65.4976 28.2073 66.2943C28.1803 66.2865 28.1552 66.2769 28.1281 66.2691C28.6111 65.6612 29.0619 64.9876 29.2461 64.1072C29.3981 63.3776 29.3021 62.5404 28.8919 61.7238C28.6394 61.2208 28.2363 60.7127 27.7533 60.1936C28.6291 59.7222 29.3936 59.0653 29.7497 58.0246C30.149 56.859 30.0331 55.4454 29.3807 53.5771ZM34.8038 56.0372C34.8682 56.0199 34.9313 56.005 34.997 55.9857C34.9655 57.0007 34.9906 57.901 35.1452 58.5972C35.3699 59.6069 35.869 60.4235 36.6682 60.7745C37.4668 61.1255 38.3072 60.9581 39.0852 60.6425C39.3247 60.5453 39.5669 60.4036 39.8084 60.2748C39.7942 60.363 39.7878 60.4377 39.7813 60.5111C38.1262 61.7547 36.6753 63.3795 36.2303 66.5589C35.5251 65.2065 34.8238 63.8458 34.1244 62.4798C34.0072 62.2499 33.8887 62.0207 33.7708 61.7907C33.7219 59.2972 34.0916 57.3826 34.8038 56.0379V56.0372ZM28.235 66.3026C29.8824 65.9046 31.2786 65.9774 32.611 66.3773C33.9422 66.7766 35.2063 67.5076 36.484 68.243L36.5832 68.4356C37.1418 69.4908 37.7137 70.5389 38.2988 71.5796C37.3251 70.9195 36.3623 70.5601 35.4124 70.4983C34.1038 70.4133 32.8351 70.8577 31.7236 71.8488C33.0077 71.2222 34.1837 70.8184 35.3867 70.8969C36.4757 70.9678 37.5994 71.4392 38.7722 72.4129C39.0993 72.9848 39.429 73.5528 39.7639 74.1124C40.2083 74.8623 40.6707 75.6014 41.1505 76.3291C40.7149 76.1696 40.2501 76.1063 39.7878 76.1436C39.1431 76.1939 38.532 76.4115 37.9311 76.6472C36.9026 77.0504 35.9102 77.4999 34.7787 77.5018C34.6931 77.4413 34.61 77.3885 34.5224 77.3196C35.3062 76.7367 35.9244 76.1539 36.2193 75.5054C36.6354 74.5896 36.3198 73.4865 35.6449 72.912C34.9706 72.3382 34.0832 72.0774 33.1037 71.9769C32.6335 71.9286 32.1383 71.9293 31.6353 71.9692C32.0333 70.4609 31.8871 69.162 31.1723 68.167C30.4987 67.23 29.4644 66.6691 28.235 66.3026ZM39.7775 60.542C39.7729 60.589 39.7691 60.6335 39.7601 60.6902C39.6203 61.5209 39.4658 62.3794 39.5076 63.2056C39.5282 63.6191 39.5971 64.0364 39.8097 64.4415C40.0441 64.8768 40.431 65.2102 40.8961 65.3778C41.1923 65.4809 41.5002 65.5163 41.8241 65.5079C40.7988 66.0598 40.1651 66.9936 39.7665 68.0839C39.3498 69.2238 39.1946 70.5479 39.1212 71.9293C38.4511 70.7367 37.7957 69.536 37.1551 68.3274C36.9548 67.95 36.7577 67.5662 36.5581 67.1868C36.8885 63.7266 38.3033 62.1134 39.7775 60.542ZM42.1371 65.486C42.2073 65.4777 42.2755 65.4731 42.347 65.4603C41.8962 66.8198 41.8511 67.9828 42.4069 68.934C42.8075 69.6212 43.4843 70.0803 44.2507 70.3379C44.6815 70.4816 45.1626 70.5569 45.6688 70.6013C44.8097 71.2627 43.8424 71.7464 43.0696 72.6203C42.3425 73.4414 41.828 74.6096 41.8859 76.6311C41.3585 75.7456 40.8149 74.8543 40.2778 73.9437C40.0087 73.4865 39.7407 73.0241 39.4748 72.5572C39.5314 70.9665 39.6873 69.4627 40.142 68.2211C40.547 67.1134 41.1788 66.2157 42.1371 65.486ZM45.7473 70.6078C45.8072 70.6123 45.8652 70.6187 45.9251 70.6232C45.8343 72.1952 45.2772 73.2894 44.6165 74.598C44.1612 75.4983 43.6853 76.5384 42.7424 78.1033C42.6072 77.8683 42.4732 77.6332 42.3361 77.3988C42.1087 74.9451 42.6182 73.7318 43.3678 72.8843C44.0903 72.0684 45.0763 71.5822 45.7473 70.6078ZM35.0724 77.7047C36.1504 77.8367 37.1409 77.3859 38.0766 77.0188C38.6691 76.787 39.2436 76.5867 39.818 76.5423C40.3912 76.4972 40.9663 76.5989 41.5974 76.9847C41.7097 77.1464 41.8237 77.307 41.9394 77.4664L41.9445 77.5308L41.9844 77.5269C42.1731 77.7833 42.3676 78.0344 42.5641 78.2824C40.5805 78.3043 39.4181 78.3442 38.4379 78.3809C37.206 78.4266 36.2148 78.4137 35.0724 77.7047Z" fill="#596449"/>
<path d="M52.7573 87.5463C46.8711 85.5532 50.7429 82.6758 54.6455 82.9334C51.9736 79.3707 53.5546 77.3415 57 75.9852C55.1627 74.4538 52.7212 73.2321 55.8781 69.1343C53.1753 68.8246 51.3167 67.7562 52.6684 61.7393C48.7252 63.0569 50.4692 67.3788 45.1755 66.0444C47.1931 72.4728 44.6751 72.3936 41.1337 70.8442C41.6315 73.5168 45.1574 78.0454 39.2919 76.8205C42.3547 80.5106 41.305 82.3731 37.6645 83.0841C38.3446 87.3544 42.1139 88.9677 42.6162 93.3913C44.9024 89.3882 49.9237 92.0666 52.7573 87.5463Z" fill="#021B0B" stroke="#101820" stroke-width="0.8"/>
<path d="M51.4017 63.6216C50.9489 64.1284 50.6353 64.7293 50.191 65.3945C49.7897 65.9973 49.2275 66.6516 48.344 66.9788C47.9035 67.1423 47.3838 67.1868 46.8151 67.1681C47.8648 68.1064 48.5732 69.6758 49.0472 71.7289C49.4739 70.1388 49.9103 68.5513 50.3565 66.9665C50.6025 66.0991 50.7364 65.5214 51.117 64.708C51.1492 64.6397 51.1686 64.6101 51.1801 64.6114C51.2587 64.6178 50.8807 66.1441 50.748 66.7038C50.265 68.7324 49.7756 70.7655 49.2707 72.7883C50.7648 70.998 52.2698 69.7654 53.8463 69.8542C52.3265 70.1389 50.6901 71.593 49.0382 73.7137C48.6138 75.3933 48.1696 77.0678 47.7058 78.7369C48.6524 77.8907 49.6217 77.0651 50.7184 76.4636C52.0012 75.7604 53.4631 75.3701 55.2 75.8145C55.2245 75.8016 55.2477 75.7868 55.2721 75.7739C54.6732 75.2799 54.0917 74.7152 53.7285 73.8928C53.4271 73.2101 53.3466 72.3716 53.5778 71.4868C53.7194 70.9426 54.0086 70.3617 54.3725 69.7538C53.4174 69.4749 52.5325 68.9919 51.9671 68.0484C51.3341 66.9916 51.1531 65.5845 51.4017 63.6216ZM46.6103 67.1584C46.5433 67.1546 46.4789 67.1533 46.4107 67.1481C46.6528 68.1341 46.8164 69.0202 46.8099 69.7325C46.8009 70.7674 46.4828 71.6703 45.7744 72.1797C45.066 72.6898 44.2095 72.7014 43.3826 72.5545C43.1282 72.5094 42.8616 72.4212 42.5988 72.3452C42.631 72.4289 42.6529 72.4998 42.6748 72.5706C44.5534 73.4426 46.3102 74.7293 47.4082 77.7465C47.8168 76.2717 48.2199 74.7954 48.6177 73.3177L48.8199 72.57C48.3478 70.1208 47.5873 68.3254 46.6103 67.1584ZM55.1749 75.8286C53.4805 75.7829 52.13 76.1448 50.9103 76.8139C49.6919 77.4818 48.6074 78.4607 47.5113 79.446C47.4919 79.5149 47.4739 79.5857 47.4539 79.6546C47.1255 80.8113 46.7842 81.9563 46.4319 83.0872C47.2466 82.239 48.1134 81.6865 49.0292 81.4289C50.2914 81.0727 51.6245 81.2421 52.9189 81.9801C51.5324 81.6349 50.2979 81.4855 49.1374 81.8127C48.087 82.1089 47.0862 82.8045 46.1428 84.001C45.9418 84.6283 45.737 85.2523 45.5271 85.8699C45.2437 86.702 44.9501 87.5224 44.6326 88.3268C45.0254 88.0801 45.467 87.9215 45.927 87.8618C46.5678 87.7768 47.2105 87.8618 47.8474 87.9668C48.9371 88.1471 50.0023 88.3796 51.1087 88.1458C51.1795 88.0685 51.2503 87.9996 51.3212 87.914C50.4337 87.507 49.7073 87.0658 49.2842 86.4939C48.6853 85.6844 48.7645 84.54 49.3048 83.8374C49.8445 83.1355 50.6585 82.6956 51.5955 82.3936C52.0634 82.2458 52.5436 82.1406 53.0304 82.0793C52.3265 80.6876 52.1983 79.3867 52.6903 78.2643C53.154 77.2074 54.0492 76.443 55.1749 75.8286ZM42.6851 72.6009C42.6993 72.646 42.7115 72.6878 42.7328 72.7413C43.0425 73.525 43.3729 74.332 43.5043 75.1498C43.5693 75.5575 43.5899 75.9806 43.4656 76.4205C43.3426 76.8603 43.0303 77.3027 42.5988 77.5636C42.3303 77.7252 42.0366 77.825 41.7185 77.8843C42.8358 78.2101 43.6505 78.9907 44.2674 79.9747C44.9121 81.0025 45.3403 82.2648 45.7003 83.6004C46.1071 82.2945 46.4978 80.9837 46.8724 79.6682C46.9896 79.2573 47.1023 78.8413 47.2182 78.4278C46.1743 75.1131 44.4535 73.8303 42.6851 72.6009ZM41.4074 77.9274C41.3372 77.9339 41.2696 77.9435 41.1975 77.9467C41.9207 79.1819 42.2073 80.3102 41.8627 81.3561C41.6135 82.1115 41.0474 82.7021 40.3519 83.1129C39.9603 83.3441 39.505 83.5174 39.0195 83.6668C39.9983 84.1343 41.0448 84.4061 41.9825 85.0997C42.8648 85.7508 43.6118 86.787 43.9757 88.7756C44.3074 87.7993 44.6538 86.8147 44.9887 85.8119C45.1568 85.309 45.3223 84.8009 45.4852 84.2889C45.0988 82.7439 44.6319 81.3072 43.9293 80.1866C43.3021 79.1884 42.4964 78.4413 41.4074 77.9274ZM38.9441 83.6893C38.8868 83.7067 38.8314 83.7247 38.7735 83.7408C39.1901 85.2607 39.9623 86.2138 40.8819 87.3563C41.515 88.1419 42.197 89.0603 43.4457 90.3934C43.5281 90.1358 43.6112 89.8782 43.6962 89.6206C43.407 87.1734 42.6561 86.0921 41.7455 85.4197C40.8697 84.7725 39.8032 84.5027 38.9441 83.6893ZM50.8646 88.4053C49.8374 88.7595 48.7748 88.5251 47.7824 88.3609C47.1545 88.2572 46.5511 88.1812 45.9798 88.2579C45.4099 88.3332 44.8689 88.5528 44.3318 89.0616C44.2552 89.2432 44.1779 89.4241 44.0981 89.6038L44.1064 89.6682L44.0665 89.6721C43.9351 89.9619 43.7973 90.2485 43.6563 90.5318C45.6012 90.1396 46.7468 89.9368 47.7135 89.768C48.9274 89.5562 49.8954 89.3366 50.8646 88.4053Z" fill="#596449"/>
<path d="M28.0688 94.4049C31.9007 89.5118 27.0855 89.2265 23.9621 91.581C24.2441 87.1361 21.8098 86.3053 18.1847 87.0601C18.8822 84.7713 20.2545 82.4117 15.3678 80.7141C17.4589 78.974 18.4281 77.0613 14 72.7697C18.0205 71.711 18.9305 76.2814 22.6264 72.2642C24.4624 78.7467 26.5252 77.3002 28.6381 74.0635C29.6866 76.5719 29.219 82.2919 33.454 78.0524C32.9143 82.8181 34.8135 83.8002 38.2479 82.3995C40.0196 86.3446 37.7514 89.7598 39.7549 93.7352C35.6488 91.6396 32.9175 96.6325 28.0695 94.4049H28.0688Z" fill="#021B0B" stroke="#101820" stroke-width="0.8"/>
<path d="M16.0904 73.6494C16.7473 73.8259 17.3398 74.1562 18.0752 74.4699C18.7418 74.7532 19.57 74.9928 20.4883 74.7822C20.9468 74.6772 21.406 74.4299 21.871 74.1028C21.5071 75.4629 21.7744 77.1637 22.504 79.1408C21.2755 78.0447 20.0403 76.9561 18.7984 75.8751C18.1177 75.2839 17.6888 74.8743 16.9244 74.4029C16.8606 74.363 16.8278 74.3494 16.8188 74.3559C16.757 74.4055 17.9097 75.4745 18.327 75.8693C19.8424 77.3046 21.366 78.7313 22.8975 80.1493C20.6667 79.4705 18.7328 79.2645 17.4621 80.2028C18.8899 79.6077 21.0557 79.9271 23.5995 80.7953C24.8749 81.9677 26.164 83.125 27.4667 84.2671C26.2109 84.0784 24.948 83.9193 23.7012 84.0172C22.2426 84.1318 20.8058 84.6071 19.597 85.9299C19.5693 85.9325 19.5416 85.9325 19.5139 85.935C19.7445 85.1938 19.9216 84.403 19.7741 83.5155C19.6518 82.7801 19.2596 82.0343 18.5821 81.4212C18.1648 81.0432 17.6045 80.7154 16.9669 80.4069C17.6128 79.6502 18.0888 78.7608 18.0443 77.6622C17.9941 76.4315 17.3746 75.1551 16.0904 73.6494ZM22.0371 73.9824C22.0912 73.9418 22.1447 73.9057 22.1988 73.8639C22.5362 74.8215 22.8853 75.6523 23.2807 76.2447C23.8558 77.1051 24.617 77.686 25.4883 77.724C26.3603 77.7627 27.0829 77.3022 27.694 76.7265C27.8821 76.5494 28.0573 76.3297 28.235 76.1224C28.2543 76.21 28.2749 76.2814 28.2955 76.3529C27.202 78.1111 26.4376 80.15 27.1724 83.276C26.0261 82.2694 24.8798 81.2544 23.7341 80.2343L23.1545 79.7191C22.2078 77.4123 21.86 75.4938 22.0371 73.9824ZM19.626 85.9286C21.017 84.9613 22.3456 84.524 23.7321 84.4152C25.118 84.3057 26.5612 84.5298 28.018 84.7533L28.1803 84.8969C29.0828 85.6789 29.9952 86.4494 30.9173 87.2082C29.7703 86.9442 28.7425 86.9577 27.8351 87.2436C26.5844 87.6378 25.5618 88.511 24.8843 89.8364C25.8548 88.7886 26.8053 87.9868 27.9549 87.6249C28.9962 87.2964 30.214 87.3299 31.6592 87.8136C32.1711 88.2283 32.6844 88.6379 33.1983 89.0391C33.884 89.5774 34.5826 90.0992 35.2933 90.604C34.7961 90.615 34.353 90.7335 33.9557 90.9248C33.3728 91.2049 32.8821 91.628 32.4068 92.0653C31.5941 92.8136 30.831 93.5916 29.7767 94.0024C29.6756 93.9767 29.5784 93.9574 29.4721 93.9252C29.9918 93.0983 30.3576 92.3306 30.3982 91.6196C30.4549 90.615 29.7613 89.7012 28.9247 89.4101C28.0882 89.1183 27.1666 89.1969 26.2173 89.4571C25.7614 89.5827 25.2996 89.7617 24.845 89.9813C24.6711 88.4312 24.0651 87.2726 23.0386 86.6035C22.0719 85.9737 20.9043 85.8243 19.6253 85.9279L19.626 85.9286ZM28.3033 76.3832C28.3161 76.4283 28.329 76.4708 28.34 76.5268C28.5106 77.3518 28.6768 78.2083 29.0149 78.9637C29.1843 79.3411 29.3994 79.7062 29.7433 80.0063C30.1194 80.3277 30.6011 80.4988 31.0957 80.4868C31.4101 80.4712 31.7191 80.3985 32.0076 80.2723C31.2515 81.1578 30.9984 82.2571 31.021 83.4183C31.0448 84.6309 31.379 85.9215 31.8099 87.2366C30.7536 86.3671 29.7081 85.4848 28.6736 84.5897C28.3516 84.3102 28.0283 84.0236 27.7056 83.7416C26.7615 80.3966 27.4976 78.3809 28.3033 76.3832ZM32.2916 80.1384C32.3534 80.1062 32.4152 80.0759 32.4777 80.0392C32.5498 81.4689 32.9285 82.5701 33.7895 83.2553C34.4123 83.7512 35.2095 83.9348 36.0165 83.8968C36.4705 83.8755 36.9458 83.7712 37.4333 83.6302C36.8724 84.5575 36.1453 85.3586 35.7408 86.4522C35.3602 87.4806 35.3029 88.7564 36.0886 90.6195C35.2759 89.9852 34.4464 89.3508 33.6169 88.6959C33.2003 88.3674 32.7836 88.0325 32.3676 87.6944C31.844 86.1901 31.4466 84.732 31.4209 83.4099C31.397 82.2314 31.6624 81.1656 32.2916 80.1384ZM37.5099 83.6076C37.5672 83.5909 37.6233 83.5754 37.6806 83.5574C38.1649 85.0566 38.0412 86.277 37.8982 87.737C37.7997 88.7416 37.7327 89.8828 37.4185 91.6828C37.2085 91.5121 36.9979 91.3421 36.7854 91.1733C35.6861 88.9676 35.7222 87.6519 36.115 86.5906C36.493 85.5686 37.2369 84.7591 37.5099 83.6076ZM30.1239 94.0855C31.1768 93.8183 31.9374 93.0403 32.6773 92.3596C33.1455 91.9281 33.6086 91.534 34.1283 91.2841C34.646 91.0355 35.2192 90.9228 35.9469 91.0542C36.1111 91.1637 36.2754 91.2732 36.4402 91.3794C36.4499 91.3987 36.4583 91.4181 36.4686 91.4374L36.5046 91.4193C36.7725 91.59 37.0449 91.7536 37.318 91.9133C35.4762 92.6513 34.4071 93.1092 33.5062 93.4975C32.3746 93.987 31.4454 94.3335 30.1239 94.0855Z" fill="#596449"/>
<path d="M29.4457 82.5759C27.3985 82.5759 25.7388 80.9162 25.7388 78.869C25.7388 76.8217 27.3985 75.1621 29.4457 75.1621C31.493 75.1621 33.1526 76.8217 33.1526 78.869C33.1526 80.9162 31.493 82.5759 29.4457 82.5759Z" fill="#A51C30" stroke="#101820" stroke-width="0.8" stroke-linecap="round"/>
<path d="M34.3724 76.5776C32.3251 76.5776 30.6655 74.918 30.6655 72.8707C30.6655 70.8235 32.3251 69.1638 34.3724 69.1638C36.4196 69.1638 38.0792 70.8235 38.0792 72.8707C38.0792 74.918 36.4196 76.5776 34.3724 76.5776Z" fill="#A51C30" stroke="#101820" stroke-width="0.8" stroke-linecap="round"/>
<path d="M36.7288 83.0041C34.6815 83.0041 33.0219 81.3445 33.0219 79.2972C33.0219 77.25 34.6815 75.5903 36.7288 75.5903C38.776 75.5903 40.4356 77.25 40.4356 79.2972C40.4356 81.3445 38.776 83.0041 36.7288 83.0041Z" fill="#A51C30" stroke="#101820" stroke-width="0.8" stroke-linecap="round"/>
<path d="M136.959 77.2591C131.617 74.0828 136.003 72.0755 139.767 73.1413C137.896 69.0995 139.865 67.4445 143.518 66.8365C142.04 64.9554 139.907 63.252 143.848 59.9019C141.27 59.0357 139.675 57.6028 142.251 52C138.119 52.4669 138.924 57.0574 134.025 54.6488C134.658 61.3574 132.213 60.7539 129.071 58.5012C129.001 61.2189 131.506 66.3825 126.024 63.9617C128.251 68.2095 126.836 69.8125 123.127 69.7487C122.902 74.0674 126.252 76.4309 125.822 80.8616C128.893 77.4226 133.245 81.0896 136.959 77.2591Z" fill="#021B0B" stroke="#101820" stroke-width="0.8"/>
<path d="M140.619 53.5771C140.071 53.979 139.638 54.5006 139.066 55.059C138.548 55.5645 137.862 56.0875 136.929 56.2234C136.464 56.2916 135.946 56.2266 135.395 56.09C136.225 57.2267 136.592 58.9088 136.627 61.016C137.376 59.5495 138.134 58.0876 138.9 56.6304C139.321 55.8337 139.573 55.2973 140.114 54.5805C140.159 54.5206 140.186 54.4955 140.197 54.4987C140.272 54.5225 139.584 55.9361 139.338 56.4552C138.444 58.3414 137.54 60.2226 136.625 62.0986C138.459 60.6592 140.188 59.7673 141.711 60.1827C140.165 60.144 138.262 61.2253 136.205 62.9551C135.439 64.5093 134.656 66.0543 133.854 67.59C134.957 66.9602 136.077 66.3542 137.274 65.9948C138.676 65.5743 140.187 65.4976 141.793 66.2943C141.82 66.2865 141.845 66.2769 141.872 66.2691C141.389 65.6612 140.938 64.9876 140.754 64.1072C140.602 63.3776 140.698 62.5404 141.108 61.7238C141.361 61.2208 141.764 60.7127 142.247 60.1936C141.371 59.7222 140.606 59.0653 140.25 58.0246C139.851 56.859 139.967 55.4454 140.619 53.5771ZM135.196 56.0372C135.132 56.0199 135.069 56.005 135.003 55.9857C135.035 57.0007 135.009 57.901 134.855 58.5972C134.63 59.6069 134.131 60.4235 133.332 60.7745C132.533 61.1255 131.693 60.9581 130.915 60.6425C130.675 60.5453 130.433 60.4036 130.192 60.2748C130.206 60.363 130.212 60.4377 130.219 60.5111C131.874 61.7547 133.325 63.3795 133.77 66.5589C134.475 65.2065 135.176 63.8458 135.876 62.4798C135.993 62.2499 136.111 62.0207 136.229 61.7907C136.278 59.2972 135.908 57.3826 135.196 56.0379V56.0372ZM141.765 66.3026C140.118 65.9046 138.721 65.9774 137.389 66.3773C136.058 66.7766 134.794 67.5076 133.516 68.243L133.417 68.4356C132.858 69.4908 132.286 70.5389 131.701 71.5796C132.675 70.9195 133.638 70.5601 134.588 70.4983C135.896 70.4133 137.165 70.8577 138.276 71.8488C136.992 71.2222 135.816 70.8184 134.613 70.8969C133.524 70.9678 132.401 71.4392 131.228 72.4129C130.901 72.9848 130.571 73.5528 130.236 74.1124C129.792 74.8623 129.329 75.6014 128.85 76.3291C129.285 76.1696 129.75 76.1063 130.212 76.1436C130.857 76.1939 131.468 76.4115 132.069 76.6472C133.097 77.0504 134.09 77.4999 135.221 77.5018C135.307 77.4413 135.39 77.3885 135.478 77.3196C134.694 76.7367 134.076 76.1539 133.781 75.5054C133.365 74.5896 133.68 73.4865 134.355 72.912C135.029 72.3382 135.917 72.0774 136.896 71.9769C137.366 71.9286 137.862 71.9293 138.365 71.9692C137.967 70.4609 138.113 69.162 138.828 68.167C139.501 67.23 140.536 66.6691 141.765 66.3026ZM130.223 60.542C130.227 60.589 130.231 60.6335 130.24 60.6902C130.38 61.5209 130.534 62.3794 130.492 63.2056C130.472 63.6191 130.403 64.0364 130.19 64.4415C129.956 64.8768 129.569 65.2102 129.104 65.3778C128.808 65.4809 128.5 65.5163 128.176 65.5079C129.201 66.0598 129.835 66.9936 130.233 68.0839C130.65 69.2238 130.805 70.5479 130.879 71.9293C131.549 70.7367 132.204 69.536 132.845 68.3274C133.045 67.95 133.242 67.5662 133.442 67.1868C133.112 63.7266 131.697 62.1134 130.223 60.542ZM127.863 65.486C127.793 65.4777 127.724 65.4731 127.653 65.4603C128.104 66.8198 128.149 67.9828 127.593 68.934C127.193 69.6212 126.516 70.0803 125.749 70.3379C125.318 70.4816 124.837 70.5569 124.331 70.6013C125.19 71.2627 126.158 71.7464 126.93 72.6203C127.657 73.4414 128.172 74.6096 128.114 76.6311C128.642 75.7456 129.185 74.8543 129.722 73.9437C129.991 73.4865 130.259 73.0241 130.525 72.5572C130.469 70.9665 130.313 69.4627 129.858 68.2211C129.453 67.1134 128.821 66.2157 127.863 65.486ZM124.253 70.6078C124.193 70.6123 124.135 70.6187 124.075 70.6232C124.166 72.1952 124.723 73.2894 125.384 74.598C125.839 75.4983 126.315 76.5384 127.258 78.1033C127.393 77.8683 127.527 77.6332 127.664 77.3988C127.891 74.9451 127.382 73.7318 126.632 72.8843C125.91 72.0684 124.924 71.5822 124.253 70.6078ZM134.928 77.7047C133.85 77.8367 132.859 77.3859 131.923 77.0188C131.331 76.787 130.756 76.5867 130.182 76.5423C129.609 76.4972 129.034 76.5989 128.403 76.9847C128.29 77.1464 128.176 77.307 128.061 77.4664L128.055 77.5308L128.016 77.5269C127.827 77.7833 127.632 78.0344 127.436 78.2824C129.419 78.3043 130.582 78.3442 131.562 78.3809C132.794 78.4266 133.785 78.4137 134.928 77.7047Z" fill="#596449"/>
<path d="M117.243 87.5463C123.129 85.5532 119.257 82.6758 115.354 82.9334C118.026 79.3707 116.445 77.3415 113 75.9852C114.837 74.4538 117.279 73.2321 114.122 69.1343C116.825 68.8246 118.683 67.7562 117.332 61.7393C121.275 63.0569 119.531 67.3788 124.825 66.0444C122.807 72.4728 125.325 72.3936 128.866 70.8442C128.368 73.5168 124.843 78.0454 130.708 76.8205C127.645 80.5106 128.695 82.3731 132.336 83.0841C131.655 87.3544 127.886 88.9677 127.384 93.3913C125.098 89.3882 120.076 92.0666 117.243 87.5463Z" fill="#021B0B" stroke="#101820" stroke-width="0.8"/>
<path d="M118.598 63.6216C119.051 64.1284 119.365 64.7293 119.809 65.3945C120.21 65.9973 120.772 66.6516 121.656 66.9788C122.097 67.1423 122.616 67.1868 123.185 67.1681C122.135 68.1064 121.427 69.6758 120.953 71.7289C120.526 70.1388 120.09 68.5513 119.644 66.9665C119.398 66.0991 119.264 65.5214 118.883 64.708C118.851 64.6397 118.831 64.6101 118.82 64.6114C118.741 64.6178 119.119 66.1441 119.252 66.7038C119.735 68.7324 120.224 70.7655 120.729 72.7883C119.235 70.998 117.73 69.7654 116.154 69.8542C117.674 70.1389 119.31 71.593 120.962 73.7137C121.386 75.3933 121.83 77.0678 122.294 78.7369C121.348 77.8907 120.378 77.0651 119.282 76.4636C117.999 75.7604 116.537 75.3701 114.8 75.8145C114.776 75.8016 114.752 75.7868 114.728 75.7739C115.327 75.2799 115.908 74.7152 116.272 73.8928C116.573 73.2101 116.653 72.3716 116.422 71.4868C116.281 70.9426 115.991 70.3617 115.628 69.7538C116.583 69.4749 117.467 68.9919 118.033 68.0484C118.666 66.9916 118.847 65.5845 118.598 63.6216ZM123.39 67.1584C123.457 67.1546 123.521 67.1533 123.589 67.1481C123.347 68.1341 123.184 69.0202 123.19 69.7325C123.199 70.7674 123.517 71.6703 124.226 72.1797C124.934 72.6898 125.791 72.7014 126.617 72.5545C126.872 72.5094 127.138 72.4212 127.401 72.3452C127.369 72.4289 127.347 72.4998 127.325 72.5706C125.447 73.4426 123.69 74.7293 122.592 77.7465C122.183 76.2717 121.78 74.7954 121.382 73.3177L121.18 72.57C121.652 70.1208 122.413 68.3254 123.39 67.1584ZM114.825 75.8286C116.519 75.7829 117.87 76.1448 119.09 76.8139C120.308 77.4818 121.393 78.4607 122.489 79.446C122.508 79.5149 122.526 79.5857 122.546 79.6546C122.874 80.8113 123.216 81.9563 123.568 83.0872C122.753 82.239 121.887 81.6865 120.971 81.4289C119.709 81.0727 118.375 81.2421 117.081 81.9801C118.468 81.6349 119.702 81.4855 120.863 81.8127C121.913 82.1089 122.914 82.8045 123.857 84.001C124.058 84.6283 124.263 85.2523 124.473 85.8699C124.756 86.702 125.05 87.5224 125.367 88.3268C124.975 88.0801 124.533 87.9215 124.073 87.8618C123.432 87.7768 122.789 87.8618 122.153 87.9668C121.063 88.1471 119.998 88.3796 118.891 88.1458C118.821 88.0685 118.75 87.9996 118.679 87.914C119.566 87.507 120.293 87.0658 120.716 86.4939C121.315 85.6844 121.236 84.54 120.695 83.8374C120.156 83.1355 119.342 82.6956 118.404 82.3936C117.937 82.2458 117.456 82.1406 116.97 82.0793C117.674 80.6876 117.802 79.3867 117.31 78.2642C116.846 77.2074 115.951 76.443 114.825 75.8286ZM127.315 72.6009C127.301 72.646 127.288 72.6878 127.267 72.7413C126.957 73.525 126.627 74.332 126.496 75.1498C126.431 75.5575 126.41 75.9806 126.534 76.4205C126.657 76.8603 126.97 77.3027 127.401 77.5636C127.67 77.7252 127.963 77.825 128.282 77.8843C127.164 78.2101 126.35 78.9907 125.733 79.9747C125.088 81.0025 124.66 82.2648 124.3 83.6004C123.893 82.2945 123.502 80.9837 123.128 79.6682C123.01 79.2573 122.898 78.8413 122.782 78.4278C123.826 75.1131 125.546 73.8303 127.315 72.6009ZM128.593 77.9274C128.663 77.9339 128.73 77.9435 128.803 77.9467C128.079 79.1819 127.793 80.3102 128.137 81.3561C128.387 82.1115 128.953 82.7021 129.648 83.1129C130.04 83.3441 130.495 83.5174 130.981 83.6668C130.002 84.1343 128.955 84.4061 128.017 85.0997C127.135 85.7508 126.388 86.787 126.024 88.7756C125.693 87.7993 125.346 86.8147 125.011 85.8119C124.843 85.309 124.678 84.8009 124.515 84.2889C124.901 82.7439 125.368 81.3072 126.071 80.1866C126.698 79.1884 127.504 78.4413 128.593 77.9274ZM131.056 83.6893C131.113 83.7067 131.169 83.7247 131.227 83.7408C130.81 85.2607 130.038 86.2138 129.118 87.3563C128.485 88.1419 127.803 89.0603 126.554 90.3934C126.472 90.1358 126.389 89.8782 126.304 89.6206C126.593 87.1734 127.344 86.0921 128.254 85.4197C129.13 84.7725 130.197 84.5027 131.056 83.6893ZM119.135 88.4053C120.163 88.7595 121.225 88.5251 122.218 88.3609C122.846 88.2572 123.449 88.1812 124.02 88.2579C124.59 88.3332 125.131 88.5528 125.668 89.0616C125.745 89.2432 125.822 89.4241 125.902 89.6038L125.894 89.6682L125.934 89.6721C126.065 89.9619 126.203 90.2485 126.344 90.5318C124.399 90.1396 123.253 89.9368 122.287 89.768C121.073 89.5562 120.105 89.3366 119.135 88.4053Z" fill="#596449"/>
<path d="M141.931 94.4049C138.099 89.5118 142.915 89.2265 146.038 91.581C145.756 87.1361 148.19 86.3053 151.815 87.0601C151.118 84.7713 149.745 82.4117 154.632 80.7141C152.541 78.974 151.572 77.0613 156 72.7697C151.979 71.711 151.07 76.2814 147.374 72.2642C145.538 78.7467 143.475 77.3002 141.362 74.0635C140.313 76.5719 140.781 82.2919 136.546 78.0524C137.086 82.8181 135.187 83.8002 131.752 82.3995C129.98 86.3446 132.249 89.7598 130.245 93.7352C134.351 91.6396 137.082 96.6325 141.93 94.4049H141.931Z" fill="#021B0B" stroke="#101820" stroke-width="0.8"/>
<path d="M153.91 73.6494C153.253 73.8259 152.66 74.1562 151.925 74.4699C151.258 74.7532 150.43 74.9928 149.512 74.7822C149.053 74.6772 148.594 74.4299 148.129 74.1028C148.493 75.4629 148.226 77.1637 147.496 79.1408C148.725 78.0447 149.96 76.9561 151.202 75.8751C151.882 75.2839 152.311 74.8743 153.076 74.4029C153.139 74.363 153.172 74.3494 153.181 74.3559C153.243 74.4055 152.09 75.4745 151.673 75.8693C150.158 77.3046 148.634 78.7313 147.102 80.1493C149.333 79.4705 151.267 79.2645 152.538 80.2028C151.11 79.6077 148.944 79.9271 146.401 80.7953C145.125 81.9677 143.836 83.125 142.533 84.2671C143.789 84.0784 145.052 83.9193 146.299 84.0172C147.757 84.1318 149.194 84.6071 150.403 85.9299C150.431 85.9325 150.458 85.9325 150.486 85.935C150.256 85.1938 150.078 84.403 150.226 83.5155C150.348 82.7801 150.74 82.0343 151.418 81.4212C151.835 81.0432 152.396 80.7154 153.033 80.4069C152.387 79.6502 151.911 78.7608 151.956 77.6622C152.006 76.4315 152.625 75.1551 153.91 73.6494ZM147.963 73.9824C147.909 73.9418 147.855 73.9057 147.801 73.8639C147.464 74.8215 147.115 75.6523 146.719 76.2447C146.144 77.1051 145.383 77.686 144.512 77.724C143.64 77.7627 142.917 77.3022 142.306 76.7265C142.118 76.5494 141.943 76.3297 141.765 76.1224C141.746 76.21 141.725 76.2814 141.704 76.3529C142.798 78.1111 143.562 80.15 142.828 83.276C143.974 82.2694 145.12 81.2544 146.266 80.2343L146.846 79.7191C147.792 77.4123 148.14 75.4938 147.963 73.9824ZM150.374 85.9286C148.983 84.9613 147.654 84.524 146.268 84.4152C144.882 84.3057 143.439 84.5298 141.982 84.7533L141.82 84.8969C140.917 85.6789 140.005 86.4494 139.083 87.2082C140.23 86.9442 141.258 86.9577 142.165 87.2436C143.416 87.6378 144.438 88.511 145.116 89.8364C144.145 88.7886 143.195 87.9868 142.045 87.6249C141.004 87.2964 139.786 87.3299 138.341 87.8136C137.829 88.2283 137.316 88.6379 136.802 89.0391C136.116 89.5774 135.417 90.0992 134.707 90.604C135.204 90.615 135.647 90.7335 136.044 90.9248C136.627 91.2049 137.118 91.628 137.593 92.0653C138.406 92.8136 139.169 93.5916 140.223 94.0024C140.324 93.9767 140.422 93.9574 140.528 93.9252C140.008 93.0983 139.642 92.3306 139.602 91.6196C139.545 90.615 140.239 89.7012 141.075 89.4101C141.912 89.1183 142.833 89.1969 143.783 89.4571C144.239 89.5827 144.7 89.7617 145.155 89.9813C145.329 88.4312 145.935 87.2726 146.961 86.6035C147.928 85.9737 149.096 85.8243 150.375 85.9279L150.374 85.9286ZM141.697 76.3832C141.684 76.4283 141.671 76.4708 141.66 76.5268C141.489 77.3518 141.323 78.2083 140.985 78.9637C140.816 79.3411 140.601 79.7062 140.257 80.0063C139.881 80.3277 139.399 80.4988 138.904 80.4868C138.59 80.4712 138.281 80.3985 137.992 80.2723C138.748 81.1578 139.002 82.2571 138.979 83.4183C138.955 84.6309 138.621 85.9215 138.19 87.2366C139.246 86.3671 140.292 85.4848 141.326 84.5897C141.648 84.3102 141.972 84.0236 142.294 83.7416C143.238 80.3966 142.502 78.3809 141.697 76.3832ZM137.708 80.1384C137.647 80.1062 137.585 80.0759 137.522 80.0392C137.45 81.4689 137.072 82.5701 136.21 83.2553C135.588 83.7512 134.79 83.9348 133.984 83.8968C133.53 83.8755 133.054 83.7712 132.567 83.6302C133.128 84.5575 133.855 85.3586 134.259 86.4522C134.64 87.4806 134.697 88.7564 133.911 90.6195C134.724 89.9852 135.554 89.3508 136.383 88.6959C136.8 88.3674 137.216 88.0325 137.632 87.6944C138.156 86.1901 138.553 84.732 138.579 83.4099C138.603 82.2314 138.338 81.1656 137.708 80.1384ZM132.49 83.6076C132.433 83.5909 132.377 83.5754 132.319 83.5574C131.835 85.0566 131.959 86.277 132.102 87.737C132.2 88.7416 132.267 89.8828 132.582 91.6828C132.791 91.5121 133.002 91.3421 133.215 91.1733C134.314 88.9676 134.278 87.6519 133.885 86.5906C133.507 85.5686 132.763 84.7591 132.49 83.6076ZM139.876 94.0855C138.823 93.8183 138.063 93.0403 137.323 92.3596C136.854 91.9281 136.391 91.534 135.872 91.2841C135.354 91.0355 134.781 90.9228 134.053 91.0542C133.889 91.1637 133.725 91.2732 133.56 91.3794C133.55 91.3987 133.542 91.4181 133.531 91.4374L133.495 91.4193C133.227 91.59 132.955 91.7536 132.682 91.9133C134.524 92.6513 135.593 93.1092 136.494 93.4975C137.625 93.987 138.555 94.3335 139.876 94.0855Z" fill="#596449"/>
<path d="M140.554 82.5759C142.602 82.5759 144.261 80.9162 144.261 78.869C144.261 76.8217 142.602 75.1621 140.554 75.1621C138.507 75.1621 136.847 76.8217 136.847 78.869C136.847 80.9162 138.507 82.5759 140.554 82.5759Z" fill="#A51C30" stroke="#101820" stroke-width="0.8" stroke-linecap="round"/>
<path d="M135.628 76.5776C137.675 76.5776 139.335 74.918 139.335 72.8707C139.335 70.8235 137.675 69.1638 135.628 69.1638C133.58 69.1638 131.921 70.8235 131.921 72.8707C131.921 74.918 133.58 76.5776 135.628 76.5776Z" fill="#A51C30" stroke="#101820" stroke-width="0.8" stroke-linecap="round"/>
<path d="M133.271 83.0041C135.318 83.0041 136.978 81.3445 136.978 79.2972C136.978 77.25 135.318 75.5903 133.271 75.5903C131.224 75.5903 129.564 77.25 129.564 79.2972C129.564 81.3445 131.224 83.0041 133.271 83.0041Z" fill="#A51C30" stroke="#101820" stroke-width="0.8" stroke-linecap="round"/>
<path d="M92.6639 162.666C86.45 162.586 89.2444 158.655 93.0367 157.696C89.3962 155.131 90.2736 152.713 93.133 150.36C90.9125 149.47 88.2136 149.061 89.9518 144.189C87.2856 144.728 85.1877 144.285 84.6177 138.145C81.2728 140.615 84.2652 144.188 78.8183 144.551C82.7208 150.045 80.3009 150.745 76.454 150.365C77.752 152.754 82.5034 155.973 76.5456 156.617C80.5981 159.182 80.1737 161.278 76.9299 163.078C78.8946 166.93 82.9776 167.302 84.8205 171.354C85.7602 166.841 91.3627 167.84 92.6639 162.666Z" fill="#021B0B" stroke="#101820" stroke-width="0.8"/>
<path d="M83.9931 140.326C83.7194 140.948 83.6054 141.617 83.3888 142.386C83.1926 143.083 82.8601 143.879 82.1204 144.463C81.7519 144.755 81.2709 144.957 80.7247 145.115C82.0125 145.684 83.1715 146.957 84.2552 148.765C84.1704 147.12 84.0957 145.475 84.0311 143.83C83.997 142.93 83.9468 142.339 84.0575 141.448C84.0666 141.373 84.0769 141.338 84.088 141.336C84.1652 141.319 84.2763 142.887 84.3222 143.46C84.4913 145.54 84.6487 147.621 84.7942 149.704C85.6635 147.54 86.7145 145.903 88.2412 145.501C86.8833 146.241 85.7753 148.129 84.8589 150.655C84.9732 152.384 85.0671 154.114 85.1406 155.845C85.7805 154.748 86.4474 153.663 87.3051 152.753C88.3084 151.688 89.5791 150.866 91.3678 150.753C91.3873 150.733 91.4043 150.712 91.4238 150.692C90.7016 150.407 89.9744 150.049 89.3747 149.378C88.8782 148.823 88.5427 148.05 88.4897 147.137C88.4568 146.575 88.5519 145.934 88.7107 145.243C87.7165 145.272 86.726 145.086 85.8972 144.363C84.9686 143.553 84.3622 142.271 83.9931 140.326ZM80.5265 145.169C80.4621 145.186 80.4 145.204 80.3335 145.22C80.8683 146.084 81.2967 146.876 81.5109 147.556C81.8212 148.543 81.7972 149.5 81.2806 150.203C80.7645 150.907 79.9529 151.182 79.1214 151.297C78.8653 151.333 78.5848 151.331 78.3112 151.341C78.3676 151.41 78.4106 151.471 78.4528 151.532C80.508 151.781 82.5769 152.463 84.552 154.994C84.4865 153.47 84.4135 151.941 84.3362 150.408C84.3228 150.151 84.3108 149.893 84.2979 149.635C83.0935 147.451 81.816 145.977 80.5269 145.169L80.5265 145.169ZM91.348 150.774C89.7223 151.253 88.5496 152.014 87.5956 153.027C86.6425 154.038 85.9131 155.303 85.1743 156.579L85.1847 156.795C85.2286 157.989 85.2573 159.182 85.2709 160.376C85.7842 159.318 86.4383 158.525 87.23 157.996C88.3208 157.269 89.6417 157.019 91.0999 157.322C89.6745 157.421 88.4542 157.659 87.4516 158.329C86.544 158.935 85.8064 159.905 85.2777 161.334C85.2803 161.993 85.2788 162.65 85.2686 163.302C85.2586 164.174 85.2278 165.045 85.1761 165.915C85.4736 165.559 85.8445 165.272 86.2635 165.073C86.8469 164.794 87.485 164.677 88.1232 164.581C89.2155 164.416 90.2997 164.309 91.2806 163.745C91.3245 163.65 91.37 163.562 91.4114 163.459C90.4413 163.346 89.6144 163.15 89.0348 162.736C88.2166 162.151 87.9383 161.038 88.2355 160.203C88.5326 159.369 89.1707 158.699 89.9688 158.123C90.3518 157.846 90.781 157.599 91.2365 157.382C90.1377 156.275 89.6148 155.077 89.7364 153.857C89.8513 152.709 90.4665 151.706 91.348 150.774ZM78.4716 151.557C78.4991 151.595 78.5246 151.632 78.5608 151.676C79.0972 152.326 79.6603 152.992 80.0371 153.728C80.226 154.097 80.375 154.493 80.3935 154.95C80.4081 155.444 80.2398 155.926 79.9208 156.304C79.7158 156.541 79.4669 156.726 79.1822 156.88C80.346 156.846 81.3617 157.338 82.2521 158.083C83.1829 158.861 83.9793 159.93 84.7336 161.09C84.7176 159.722 84.6849 158.355 84.6354 156.988C84.6201 156.561 84.5989 156.13 84.5821 155.701C82.5659 152.87 80.534 152.18 78.4716 151.557ZM78.9002 157.018C78.8352 157.046 78.7738 157.076 78.7055 157.101C79.7756 158.053 80.3962 159.037 80.3905 160.139C80.3871 160.934 80.0306 161.67 79.4957 162.277C79.1944 162.616 78.8154 162.922 78.3993 163.214C79.474 163.357 80.5535 163.292 81.6597 163.663C82.6999 164.01 83.7296 164.765 84.6902 166.544C84.7042 165.514 84.7293 164.47 84.7391 163.413C84.7436 162.882 84.7445 162.348 84.7414 161.811C83.8969 160.461 83.0101 159.237 81.9955 158.389C81.0909 157.632 80.0949 157.171 78.9002 157.018ZM78.3344 163.259C78.2848 163.293 78.2379 163.327 78.1882 163.361C79.0529 164.677 80.0824 165.346 81.3089 166.149C82.1534 166.701 83.0856 167.364 84.6845 168.248C84.6841 167.976 84.6826 167.706 84.6842 167.434C83.6542 165.196 82.6064 164.4 81.5335 164.04C80.4998 163.695 79.4028 163.767 78.3344 163.259ZM91.1277 164.067C90.2601 164.721 89.1769 164.826 88.183 164.975C87.554 165.071 86.9563 165.185 86.4366 165.433C85.9177 165.681 85.4705 166.057 85.1169 166.706C85.1004 166.903 85.082 167.099 85.0616 167.294L85.0893 167.353L85.0528 167.369C85.0175 167.686 84.9747 168.001 84.9285 168.313C86.6573 167.341 87.6839 166.794 88.5511 166.336C89.6409 165.759 90.4928 165.253 91.1277 164.067Z" fill="#596449"/>
<path d="M72.0353 176.999C76.6747 172.864 71.9865 171.728 68.4947 173.49C69.5622 169.167 67.314 167.917 63.6125 168.015C64.7054 165.887 66.4754 163.809 61.9684 161.27C64.3353 159.929 65.6287 158.219 62.0334 153.209C66.178 152.881 66.2614 157.541 70.6129 154.244C71.2674 160.95 73.5543 159.893 76.2088 157.083C76.7948 159.737 75.3186 165.284 80.2393 161.864C78.8618 166.458 80.5558 167.762 84.1847 166.994C85.2273 171.191 82.3879 174.149 83.654 178.417C79.9854 175.625 76.4098 180.053 72.0353 176.999Z" fill="#021B0B" stroke="#101820" stroke-width="0.8"/>
<path d="M63.9349 154.446C64.5497 154.736 65.0732 155.166 65.7422 155.605C66.347 156.003 67.1202 156.386 68.0613 156.342C68.5307 156.32 69.0265 156.158 69.5426 155.919C68.943 157.193 68.9041 158.914 69.27 160.989C68.2559 159.692 67.2339 158.401 66.204 157.117C65.6386 156.414 65.2896 155.935 64.6215 155.335C64.5651 155.285 64.5358 155.265 64.5256 155.271C64.4558 155.307 65.4002 156.565 65.7409 157.028C66.9782 158.707 68.2231 160.387 69.4783 162.052C67.4034 160.987 65.5364 160.441 64.1199 161.139C65.6302 160.807 67.7047 161.506 70.0539 162.813C71.1008 164.193 72.1639 165.561 73.2431 166.916C72.041 166.507 70.8263 166.126 69.5817 166C68.126 165.854 66.6279 166.066 65.2027 167.154C65.1752 167.152 65.148 167.147 65.1205 167.145C65.4788 166.456 65.7934 165.709 65.8064 164.81C65.8171 164.064 65.5636 163.261 65.005 162.536C64.662 162.091 64.1688 161.669 63.5964 161.252C64.3665 160.622 64.9923 159.831 65.1442 158.742C65.314 157.522 64.9307 156.156 63.9349 154.446ZM69.7274 155.83C69.7875 155.8 69.8463 155.774 69.9071 155.742C70.0695 156.744 70.2652 157.624 70.5494 158.277C70.9621 159.226 71.6077 159.933 72.4588 160.125C73.3102 160.318 74.1032 159.994 74.8069 159.536C75.0235 159.395 75.2344 159.209 75.4466 159.037C75.4497 159.126 75.4572 159.2 75.4647 159.274C74.0762 160.811 72.9618 162.682 73.13 165.888C72.1776 164.69 71.2297 163.489 70.2862 162.284L69.8079 161.674C69.2855 159.236 69.2841 157.286 69.7274 155.83ZM65.2314 167.157C66.7732 166.453 68.1577 166.258 69.5419 166.398C70.9245 166.536 72.3052 167.014 73.6992 167.493C73.7439 167.548 73.7882 167.607 73.8335 167.662C74.5877 168.599 75.3493 169.519 76.1154 170.423C75.0341 169.96 74.0203 169.79 73.0767 169.911C71.7756 170.076 70.6147 170.753 69.7115 171.938C70.853 171.079 71.931 170.459 73.1271 170.306C74.2097 170.169 75.4027 170.418 76.7387 171.151C77.1687 171.65 77.6011 172.144 78.0356 172.631C78.6216 173.286 79.2125 173.926 79.819 174.543C79.361 174.469 78.8926 174.496 78.4458 174.62C77.8227 174.792 77.2643 175.122 76.7191 175.467C75.7865 176.059 74.8968 176.689 73.787 176.906C73.6916 176.863 73.5995 176.827 73.5008 176.776C74.1587 176.055 74.655 175.365 74.821 174.673C75.056 173.694 74.536 172.671 73.7641 172.236C72.993 171.8 72.0719 171.714 71.0913 171.802C70.6029 171.848 70.1198 171.939 69.6477 172.073C69.7519 170.517 69.3616 169.269 68.4701 168.428C67.6303 167.637 66.5076 167.283 65.2314 167.157ZM75.4671 159.306C75.4717 159.353 75.4767 159.396 75.4781 159.454C75.4992 160.296 75.5103 161.168 75.709 161.972C75.8084 162.373 75.9547 162.77 76.241 163.127C76.5261 163.484 76.9865 163.769 77.4856 163.84C77.7959 163.884 78.1053 163.861 78.4213 163.792C77.5201 164.528 77.0752 165.565 76.8917 166.712C76.6999 167.91 76.7989 169.239 76.9894 170.609C76.1047 169.566 75.2329 168.512 74.3741 167.447C74.1056 167.115 73.8393 166.776 73.5711 166.441C73.2369 162.982 74.3196 161.129 75.4671 159.306ZM78.7244 163.71C78.7916 163.688 78.8576 163.671 78.9253 163.645C78.7422 165.065 78.9192 166.216 79.645 167.044C80.1696 167.642 80.9214 167.964 81.7222 168.071C82.173 168.13 82.6598 168.112 83.1651 168.06C82.4467 168.873 81.5896 169.532 80.9975 170.537C80.4397 171.481 80.157 172.726 80.5991 174.699C79.9123 173.93 79.2086 173.159 78.5086 172.367C78.1573 171.969 77.8064 171.566 77.4564 171.159C77.2084 169.586 77.0768 168.081 77.2857 166.775C77.4731 165.611 77.9228 164.608 78.7244 163.71ZM83.2433 168.051C83.3028 168.045 83.3609 168.04 83.4205 168.032C83.6308 169.594 83.2924 170.773 82.8923 172.184C82.6166 173.154 82.3476 174.266 81.7191 175.981C81.5425 175.776 81.3654 175.572 81.1865 175.368C80.4965 173.002 80.7652 171.713 81.3407 170.739C81.894 169.801 82.7703 169.135 83.2433 168.051ZM74.1131 177.05C75.1971 176.975 76.0836 176.344 76.9329 175.805C77.4704 175.464 77.9962 175.158 78.5519 175.006C79.106 174.852 79.6898 174.843 80.383 175.101C80.5245 175.239 80.6663 175.375 80.81 175.509L80.8275 175.572L80.8658 175.56C81.0999 175.775 81.3388 175.985 81.5793 176.191C79.6358 176.59 78.5019 176.851 77.5462 177.073C76.346 177.352 75.3692 177.528 74.1131 177.05Z" fill="#596449"/>
<path d="M97.1073 176.999C92.4678 172.864 97.1561 171.728 100.648 173.49C99.5803 169.167 101.829 167.917 105.53 168.015C104.437 165.887 102.667 163.809 107.174 161.27C104.807 159.929 103.514 158.219 107.109 153.209C102.965 152.881 102.881 157.541 98.5297 154.244C97.8751 160.95 95.5882 159.893 92.9338 157.083C92.3478 159.737 93.8239 165.284 88.9032 161.864C90.2808 166.458 88.5868 167.762 84.9578 166.994C83.9153 171.191 86.7546 174.149 85.4886 178.417C89.1572 175.625 92.7327 180.053 97.1073 176.999Z" fill="#021B0B" stroke="#101820" stroke-width="0.8"/>
<path d="M105.208 154.446C104.593 154.736 104.069 155.166 103.4 155.605C102.796 156.003 102.022 156.386 101.081 156.342C100.612 156.32 100.116 156.158 99.5999 155.919C100.2 157.193 100.238 158.914 99.8725 160.989C100.887 159.692 101.909 158.401 102.939 157.117C103.504 156.414 103.853 155.935 104.521 155.335C104.577 155.285 104.607 155.265 104.617 155.271C104.687 155.307 103.742 156.565 103.402 157.028C102.164 158.707 100.919 160.387 99.6643 162.052C101.739 160.987 103.606 160.441 105.023 161.139C103.512 160.807 101.438 161.506 99.0887 162.813C98.0418 164.193 96.9786 165.561 95.8994 166.916C97.1015 166.507 98.3163 166.126 99.5609 166C101.017 165.854 102.515 166.066 103.94 167.154C103.967 167.152 103.995 167.147 104.022 167.145C103.664 166.456 103.349 165.709 103.336 164.81C103.325 164.064 103.579 163.261 104.138 162.536C104.481 162.091 104.974 161.669 105.546 161.252C104.776 160.622 104.15 159.831 103.998 158.742C103.829 157.522 104.212 156.156 105.208 154.446ZM99.4152 155.83C99.355 155.8 99.2962 155.774 99.2354 155.742C99.0731 156.744 98.8774 157.624 98.5932 158.277C98.1805 159.226 97.5349 159.933 96.6837 160.125C95.8324 160.318 95.0394 159.994 94.3356 159.536C94.1191 159.395 93.9081 159.209 93.6959 159.037C93.6929 159.126 93.6853 159.2 93.6778 159.274C95.0663 160.811 96.1807 162.682 96.0126 165.888C96.9649 164.69 97.9128 163.489 98.8563 162.284L99.3346 161.674C99.8571 159.236 99.8585 157.286 99.4152 155.83ZM103.911 167.157C102.369 166.453 100.985 166.258 99.6006 166.398C98.2181 166.536 96.8373 167.014 95.4434 167.493C95.3987 167.548 95.3544 167.607 95.3091 167.662C94.5548 168.599 93.7932 169.519 93.0271 170.423C94.1084 169.96 95.1222 169.79 96.0659 169.911C97.3669 170.076 98.5278 170.753 99.431 171.938C98.2896 171.079 97.2115 170.459 96.0155 170.306C94.9328 170.169 93.7399 170.418 92.4039 171.151C91.9738 171.65 91.5415 172.144 91.1069 172.631C90.521 173.286 89.9301 173.926 89.3235 174.543C89.7815 174.469 90.25 174.496 90.6967 174.62C91.3198 174.792 91.8782 175.122 92.4235 175.467C93.3561 176.059 94.2457 176.689 95.3555 176.906C95.4509 176.863 95.543 176.827 95.6417 176.776C94.9839 176.055 94.4875 175.365 94.3215 174.673C94.0865 173.694 94.6066 172.671 95.3785 172.236C96.1495 171.8 97.0707 171.714 98.0512 171.802C98.5396 171.848 99.0228 171.939 99.4948 172.073C99.3906 170.517 99.781 169.269 100.672 168.428C101.512 167.637 102.635 167.283 103.911 167.157ZM93.6755 159.306C93.6709 159.353 93.6658 159.396 93.6645 159.454C93.6434 160.296 93.6322 161.168 93.4336 161.972C93.3342 162.373 93.1878 162.77 92.9015 163.127C92.6164 163.484 92.1561 163.769 91.657 163.84C91.3466 163.884 91.0373 163.861 90.7213 163.792C91.6225 164.528 92.0674 165.565 92.2508 166.712C92.4426 167.91 92.3436 169.239 92.1531 170.609C93.0378 169.566 93.9097 168.512 94.7685 167.447C95.0369 167.115 95.3032 166.776 95.5715 166.441C95.9057 162.982 94.8229 161.129 93.6755 159.306ZM90.4181 163.71C90.351 163.688 90.2849 163.671 90.2173 163.645C90.4004 165.065 90.2233 166.216 89.4975 167.044C88.9729 167.642 88.2211 167.964 87.4203 168.071C86.9696 168.13 86.4828 168.112 85.9774 168.06C86.6958 168.873 87.5529 169.532 88.1451 170.537C88.7028 171.481 88.9856 172.726 88.5435 174.699C89.2303 173.93 89.9339 173.159 90.634 172.367C90.9852 171.969 91.3361 171.566 91.6861 171.159C91.9341 169.586 92.0657 168.081 91.8568 166.775C91.6694 165.611 91.2197 164.608 90.4181 163.71ZM85.8993 168.051C85.8397 168.045 85.7817 168.04 85.722 168.032C85.5117 169.594 85.8501 170.773 86.2502 172.184C86.526 173.154 86.7949 174.266 87.4235 175.981C87.6 175.776 87.7772 175.572 87.9561 175.368C88.6461 173.002 88.3774 171.713 87.8018 170.739C87.2485 169.801 86.3723 169.135 85.8993 168.051ZM95.0294 177.05C93.9455 176.975 93.059 176.344 92.2096 175.805C91.6721 175.464 91.1464 175.158 90.5906 175.006C90.0365 174.852 89.4528 174.843 88.7596 175.101C88.6181 175.239 88.4762 175.375 88.3325 175.509L88.3151 175.572L88.2768 175.56C88.0426 175.775 87.8038 175.985 87.5632 176.191C89.5068 176.59 90.6406 176.851 91.5964 177.073C92.7966 177.352 93.7734 177.528 95.0294 177.05Z" fill="#596449"/>
<path d="M89.3552 167.619C91.2397 166.819 92.1189 164.643 91.319 162.758C90.5191 160.874 88.3429 159.994 86.4584 160.794C84.5739 161.594 83.6947 163.77 84.4946 165.655C85.2945 167.539 87.4707 168.419 89.3552 167.619Z" fill="#A51C30" stroke="#101820" stroke-width="0.8" stroke-linecap="round"/>
<path d="M83.3552 167.619C85.2397 166.819 86.1189 164.643 85.319 162.758C84.5191 160.874 82.3429 159.994 80.4584 160.794C78.5739 161.594 77.6947 163.77 78.4946 165.655C79.2945 167.539 81.4707 168.419 83.3552 167.619Z" fill="#A51C30" stroke="#101820" stroke-width="0.8" stroke-linecap="round"/>
<path d="M86.3552 174.619C88.2397 173.819 89.1189 171.643 88.319 169.758C87.5191 167.874 85.3429 166.994 83.4584 167.794C81.5739 168.594 80.6947 170.77 81.4946 172.655C82.2945 174.539 84.4707 175.419 86.3552 174.619Z" fill="#A51C30" stroke="#101820" stroke-width="0.8" stroke-linecap="round"/>
</svg>
