<?xml version="1.0" encoding="UTF-8" standalone="no"?>
<!-- Created with Inkscape (http://www.inkscape.org/) -->

<svg
   xmlns:dc="http://purl.org/dc/elements/1.1/"
   xmlns:cc="http://creativecommons.org/ns#"
   xmlns:rdf="http://www.w3.org/1999/02/22-rdf-syntax-ns#"
   xmlns:svg="http://www.w3.org/2000/svg"
   xmlns="http://www.w3.org/2000/svg"
   xmlns:sodipodi="http://sodipodi.sourceforge.net/DTD/sodipodi-0.dtd"
   xmlns:inkscape="http://www.inkscape.org/namespaces/inkscape"
   width="135.46666mm"
   height="20.805805mm"
   viewBox="0 0 135.46666 20.805805"
   version="1.1"
   id="svg804"
   inkscape:version="0.92.1 r15371"
   sodipodi:docname="kenyon wordmark.svg">
  <defs
     id="defs798">
    <clipPath
       clipPathUnits="userSpaceOnUse"
       id="clipPath34">
      <path
         d="m 863,257.897 h 422.62 V 372 H 863 Z"
         id="path32"
         inkscape:connector-curvature="0" />
    </clipPath>
  </defs>
  <sodipodi:namedview
     id="base"
     pagecolor="#ffffff"
     bordercolor="#666666"
     borderopacity="1.0"
     inkscape:pageopacity="0.0"
     inkscape:pageshadow="2"
     inkscape:zoom="0.35"
     inkscape:cx="-139.71426"
     inkscape:cy="56.460901"
     inkscape:document-units="mm"
     inkscape:current-layer="layer1"
     showgrid="false"
     fit-margin-top="0"
     fit-margin-left="0"
     fit-margin-right="0"
     fit-margin-bottom="0"
     inkscape:window-width="1600"
     inkscape:window-height="838"
     inkscape:window-x="-8"
     inkscape:window-y="-8"
     inkscape:window-maximized="1" />
  <metadata
     id="metadata801">
    <rdf:RDF>
      <cc:Work
         rdf:about="">
        <dc:format>image/svg+xml</dc:format>
        <dc:type
           rdf:resource="http://purl.org/dc/dcmitype/StillImage" />
        <dc:title></dc:title>
      </cc:Work>
    </rdf:RDF>
  </metadata>
  <g
     inkscape:label="Layer 1"
     inkscape:groupmode="layer"
     id="layer1"
     transform="translate(-13.909517,-142.96614)">
    <g
       transform="matrix(0.339139,0,0,-0.339139,-278.76744,269.12585)"
       id="g28">
      <g
         id="g30"
         clip-path="url(#clipPath34)">
        <g
           id="g36"
           transform="translate(1122.7084,339.8932)">
          <path
             d="m 0,0 c 0,-8.625 4.978,-15.217 11.5,-15.217 5.539,0 9.044,4.488 9.044,11.571 0,9.115 -4.486,15.286 -11.148,15.286 C 3.786,11.64 0,6.942 0,0 m 25.383,-1.893 c 0,-8.415 -6.59,-14.796 -15.286,-14.796 -8.625,0 -14.936,6.1 -14.936,14.446 0,8.625 6.661,15.215 15.427,15.215 8.064,0 14.795,-6.731 14.795,-14.865"
             style="fill:#53369a;fill-opacity:1;fill-rule:nonzero;stroke:none"
             id="path38"
             inkscape:connector-curvature="0" />
        </g>
        <g
           id="g40"
           transform="translate(1197.8328,342.9785)">
          <path
             d="m 0,0 c 2.245,0 2.736,0.21 2.736,1.052 0,3.646 -3.716,7.292 -7.363,7.292 -3.716,0 -6.381,-3.225 -6.944,-8.344 z m -11.709,-2.735 v -0.491 c 0.069,-7.293 5.119,-13.182 11.218,-13.182 2.736,0 4.629,0.771 8.064,3.295 0.211,0.21 0.422,0.281 0.562,0.281 0.211,0 0.421,-0.281 0.421,-0.561 0,-0.701 -0.842,-1.753 -2.736,-3.156 -2.874,-2.174 -5.889,-3.226 -9.116,-3.226 -7.292,0 -13.111,6.451 -13.111,14.516 0,8.133 5.96,15.146 12.901,15.146 3.787,0 7.363,-1.894 9.467,-4.978 1.052,-1.543 2.385,-4.699 2.385,-5.751 0,-0.77 -0.562,-1.052 -2.385,-1.052 -1.612,0 -2.173,0 -4.768,0.071 h -12.902 z"
             style="fill:#53369a;fill-opacity:1;fill-rule:nonzero;stroke:none"
             id="path42"
             inkscape:connector-curvature="0" />
        </g>
        <g
           id="g44"
           transform="translate(1215.1304,343.5391)">
          <path
             d="m 0,0 c 0,-5.399 2.946,-9.536 6.803,-9.536 3.855,0 6.38,3.155 6.38,7.993 0,5.68 -2.945,9.748 -7.081,9.748 C 2.734,8.205 0,4.558 0,0 m -3.225,-25.524 c 0,-3.787 3.154,-5.961 8.626,-5.961 6.099,0 10.798,2.736 10.798,6.311 0,2.035 -1.473,3.015 -4.84,3.156 -6.03,0.21 -9.815,0.561 -11.359,1.052 -2.244,-0.982 -3.225,-2.384 -3.225,-4.558 m 1.682,5.328 c -1.822,1.403 -2.314,2.245 -2.314,3.857 0,2.525 1.473,5.05 3.998,6.803 -3.086,1.893 -4.558,4.558 -4.558,8.344 0,6.101 4.417,10.518 10.519,10.518 2.313,0 5.469,-0.911 7.361,-2.033 0.983,-0.631 1.263,-0.772 1.614,-0.772 0.771,0 2.102,0.421 3.154,1.052 1.193,0.701 1.264,0.772 1.965,2.876 0.069,0.21 0.28,0.42 0.489,0.42 0.351,0 0.632,-0.35 0.632,-0.841 0,-0.842 -0.77,-3.787 -1.333,-5.119 C 19.633,3.997 18.863,3.366 17.811,3.086 17.32,2.946 17.179,2.805 17.179,2.454 c 0,-0.14 0.072,-0.35 0.141,-0.631 0.071,-0.49 0.281,-2.174 0.281,-2.944 0,-5.26 -4.908,-9.748 -10.798,-9.748 -0.913,0 -2.667,0.211 -3.928,0.421 -0.421,0.07 -0.771,0.14 -1.052,0.14 -1.472,0 -3.084,-1.893 -3.084,-3.716 0,-1.332 0.98,-2.315 2.592,-2.805 0.983,-0.211 2.526,-0.351 5.681,-0.421 6.031,-0.141 7.853,-0.42 9.607,-1.402 1.753,-0.982 2.735,-2.735 2.735,-4.838 0,-5.259 -5.96,-9.398 -13.534,-9.398 -7.292,0 -12.272,2.736 -12.272,6.803 0,2.664 1.613,4.558 4.909,5.679 z"
             style="fill:#53369a;fill-opacity:1;fill-rule:nonzero;stroke:none"
             id="path46"
             inkscape:connector-curvature="0" />
        </g>
        <g
           id="g48"
           transform="translate(1253.8879,342.9785)">
          <path
             d="m 0,0 c 2.244,0 2.735,0.21 2.735,1.052 0,3.646 -3.716,7.292 -7.363,7.292 -3.716,0 -6.381,-3.225 -6.943,-8.344 z m -11.71,-2.735 v -0.491 c 0.069,-7.293 5.119,-13.182 11.218,-13.182 2.736,0 4.629,0.771 8.065,3.295 0.21,0.21 0.421,0.281 0.561,0.281 0.211,0 0.421,-0.281 0.421,-0.561 0,-0.701 -0.841,-1.753 -2.736,-3.156 -2.874,-2.174 -5.889,-3.226 -9.116,-3.226 -7.292,0 -13.111,6.451 -13.111,14.516 0,8.133 5.96,15.146 12.902,15.146 3.787,0 7.363,-1.894 9.467,-4.978 1.051,-1.543 2.384,-4.699 2.384,-5.751 0,-0.77 -0.562,-1.052 -2.384,-1.052 -1.613,0 -2.174,0 -4.769,0.071 H -11.71 Z"
             style="fill:#53369a;fill-opacity:1;fill-rule:nonzero;stroke:none"
             id="path50"
             inkscape:connector-curvature="0" />
        </g>
        <g
           id="g52"
           transform="translate(874.6405,333.5135)">
          <path
             d="m 0,0 c 0,-4.487 0.07,-5.119 0.771,-6.24 0.561,-1.052 2.385,-1.824 5.119,-2.244 0.771,-0.141 1.052,-0.351 1.052,-0.842 0,-0.351 -0.281,-0.561 -0.701,-0.561 -0.351,0 -1.122,0.069 -1.964,0.141 -0.35,0.069 -5.399,0.139 -6.801,0.139 -0.211,0 -4.278,-0.07 -4.348,-0.139 -1.052,-0.072 -1.893,-0.141 -2.033,-0.141 -0.561,0 -1.123,0.42 -1.123,0.842 0,0.351 0.281,0.561 0.982,0.63 1.964,0.211 3.085,1.402 3.506,3.857 0.211,1.192 0.281,2.315 0.281,5.541 v 27.838 c 0,5.61 -0.561,6.38 -5.47,7.432 -0.561,0.07 -0.912,0.351 -0.912,0.701 0,0.351 0.492,0.702 0.982,0.702 0.281,0 0.702,0 1.193,-0.07 0.63,-0.071 4.066,-0.211 5.399,-0.211 l 5.75,0.14 c 0.841,0.071 1.542,0.141 1.683,0.141 0.42,0 0.771,-0.281 0.771,-0.631 0,-0.351 -0.28,-0.631 -0.841,-0.841 C 0.421,34.921 0,34.01 0,29.381 V 16.058 c 0,-0.561 0.07,-0.771 0.28,-0.771 0.141,0 0.211,0.07 1.052,0.842 l 13.619,13.183 c 2.525,2.243 3.366,3.435 3.366,4.837 0,1.052 -0.841,1.754 -2.454,2.035 -1.332,0.21 -1.613,0.35 -1.613,0.911 0,0.42 0.421,0.701 1.052,0.701 0.21,0 0.561,0 0.982,-0.07 l 6.311,-0.28 c 2.174,0 5.049,0.069 5.47,0.14 0.49,0.07 0.841,0.14 1.121,0.14 0.491,0 0.912,-0.351 0.912,-0.772 0,-0.42 -0.281,-0.56 -1.613,-0.911 -2.174,-0.491 -4.488,-2.104 -11.85,-8.625 L 6.03,16.83 C 5.259,16.129 5.259,16.129 5.259,15.638 c 0,-0.351 0.14,-0.561 0.842,-1.333 l 16.67,-18.652 c 2.384,-2.455 3.927,-3.226 7.713,-3.927 0.491,-0.141 0.772,-0.351 0.772,-0.702 0,-0.42 -0.421,-0.77 -0.982,-0.77 -0.21,0 -0.491,0 -0.912,0.069 -0.42,0.07 -1.191,0.07 -2.314,0.07 -1.753,0 -3.085,0 -3.646,-0.07 -0.631,-0.069 -1.192,-0.069 -1.543,-0.069 -0.981,0 -1.332,0.21 -2.594,1.612 L 2.104,10.799 C 1.052,11.921 1.052,11.921 0.561,11.921 0.21,11.921 0,11.571 0,11.15 Z"
             style="fill:#53369a;fill-opacity:1;fill-rule:nonzero;stroke:none"
             id="path54"
             inkscape:connector-curvature="0" />
        </g>
        <g
           id="g56"
           transform="translate(919.9154,342.9803)">
          <path
             d="m 0,0 c 2.244,0 2.736,0.21 2.736,1.052 0,3.646 -3.717,7.292 -7.364,7.292 -3.716,0 -6.381,-3.225 -6.942,-8.344 z m -11.71,-2.735 v -0.491 c 0.07,-7.293 5.119,-13.182 11.22,-13.182 2.734,0 4.628,0.77 8.063,3.295 0.211,0.21 0.422,0.28 0.562,0.28 0.211,0 0.421,-0.28 0.421,-0.56 0,-0.701 -0.842,-1.753 -2.736,-3.156 -2.874,-2.174 -5.889,-3.226 -9.115,-3.226 -7.293,0 -13.113,6.451 -13.113,14.516 0,8.133 5.96,15.146 12.902,15.146 3.787,0 7.363,-1.894 9.467,-4.978 1.052,-1.543 2.385,-4.699 2.385,-5.751 0,-0.771 -0.562,-1.052 -2.385,-1.052 -1.613,0 -2.174,0 -4.768,0.071 H -11.71 Z"
             style="fill:#53369a;fill-opacity:1;fill-rule:nonzero;stroke:none"
             id="path58"
             inkscape:connector-curvature="0" />
        </g>
        <g
           id="g60"
           transform="translate(940.416,347.3978)">
          <path
             d="m 0,0 c 3.225,3.926 6.03,5.469 9.606,5.469 3.787,0 7.363,-2.173 9.186,-5.538 1.052,-1.964 1.542,-4.559 1.542,-8.346 v -8.204 c 0,-2.804 0.071,-3.436 0.702,-4.137 0.632,-0.771 1.192,-0.982 3.716,-1.332 0.561,-0.14 0.912,-0.421 0.912,-0.772 0,-0.351 -0.49,-0.701 -1.052,-0.701 -0.28,0 -0.84,0.07 -1.402,0.14 -0.632,0.07 -2.385,0.141 -4.138,0.141 l -5.819,-0.211 c -0.351,0 -0.561,0.211 -0.561,0.631 0,0.491 0.069,0.491 1.612,0.911 0.982,0.211 1.333,0.912 1.333,2.385 v 1.823 0.982 9.116 c 0,3.506 -0.491,5.189 -1.824,6.942 C 12.27,1.193 9.887,2.314 7.292,2.314 3.435,2.314 0,-0.351 0,-3.225 v -13.043 c 0,-3.366 0.069,-3.856 0.841,-4.629 0.561,-0.561 2.384,-1.191 3.997,-1.262 0.771,-0.069 1.122,-0.28 1.122,-0.77 0,-0.282 -0.351,-0.562 -0.772,-0.562 -0.42,0 -0.981,0.07 -1.753,0.14 -0.491,0.071 -1.121,0.071 -2.384,0.071 -5.68,0 -6.241,0 -8.555,-0.211 h -0.21 c -0.421,0 -0.632,0.211 -0.632,0.49 0,0.351 0.211,0.562 0.632,0.702 1.963,0.632 2.383,0.982 2.805,2.454 0.21,0.701 0.21,1.052 0.21,2.875 v 14.516 c 0,1.753 -0.281,3.085 -0.701,3.576 -0.561,0.561 -0.772,0.631 -3.506,0.631 -0.561,0 -0.912,0.21 -0.912,0.631 0,0.351 0.281,0.49 0.842,0.631 3.015,0.772 4.067,1.193 7.574,2.946 0.35,0.21 0.56,0.28 0.84,0.28 C 0,6.241 0,6.171 0,3.926 Z"
             style="fill:#53369a;fill-opacity:1;fill-rule:nonzero;stroke:none"
             id="path62"
             inkscape:connector-curvature="0" />
        </g>
        <g
           id="g64"
           transform="translate(985.125,343.1209)">
          <path
             d="m 0,0 c 0.562,1.472 0.841,2.945 0.841,4.067 0,2.173 -0.841,2.945 -3.646,3.576 -0.631,0.14 -0.841,0.35 -0.841,0.771 0,0.351 0.21,0.562 0.632,0.562 0.279,0 0.771,0 1.401,-0.072 0.422,-0.069 1.332,-0.069 2.526,-0.069 2.032,0 3.645,0 4.206,0.069 0.631,0.072 1.192,0.072 1.543,0.072 0.491,0 0.7,-0.211 0.7,-0.562 0,-0.351 -0.209,-0.561 -0.7,-0.771 C 4.769,6.941 4.558,6.661 3.576,4.136 l -12.13,-34.149 c -0.632,-1.823 -0.632,-1.893 -0.983,-2.104 -0.139,-0.069 -0.77,-0.14 -1.963,-0.14 -2.664,0 -2.805,0 -2.805,0.491 0,0.14 0.141,0.421 0.422,0.632 3.084,3.015 5.96,8.274 5.96,10.798 0,0.842 -0.422,2.104 -1.333,4.207 l -8.556,19.915 c -1.121,2.665 -1.822,3.365 -3.365,3.787 -0.561,0.14 -0.77,0.351 -0.77,0.63 0,0.422 0.49,0.773 1.052,0.773 0.35,0 0.98,-0.072 1.753,-0.141 0.56,-0.07 1.681,-0.07 3.155,-0.07 2.383,0 4.067,0.07 4.768,0.139 l 1.402,0.072 c 0.491,0 0.771,-0.282 0.771,-0.702 0,-0.491 -0.42,-0.631 -1.822,-0.912 -1.543,-0.211 -2.035,-0.631 -2.035,-1.612 0,-0.842 0.351,-2.174 1.052,-3.857 l 6.733,-15.987 z"
             style="fill:#53369a;fill-opacity:1;fill-rule:nonzero;stroke:none"
             id="path66"
             inkscape:connector-curvature="0" />
        </g>
        <g
           id="g68"
           transform="translate(997.3034,339.895)">
          <path
             d="m 0,0 c 0,-8.625 4.978,-15.217 11.499,-15.217 5.54,0 9.046,4.488 9.046,11.571 0,9.115 -4.488,15.286 -11.15,15.286 C 3.785,11.64 0,6.942 0,0 m 25.383,-1.893 c 0,-8.415 -6.591,-14.796 -15.287,-14.796 -8.624,0 -14.936,6.1 -14.936,14.446 0,8.625 6.662,15.215 15.428,15.215 8.064,0 14.795,-6.731 14.795,-14.865"
             style="fill:#53369a;fill-opacity:1;fill-rule:nonzero;stroke:none"
             id="path70"
             inkscape:connector-curvature="0" />
        </g>
        <g
           id="g72"
           transform="translate(1034.4688,347.3978)">
          <path
             d="m 0,0 c 3.226,3.926 6.031,5.469 9.606,5.469 3.787,0 7.363,-2.173 9.186,-5.538 1.052,-1.964 1.543,-4.559 1.543,-8.346 v -8.204 c 0,-2.804 0.069,-3.436 0.701,-4.137 0.632,-0.771 1.193,-0.982 3.716,-1.332 0.561,-0.14 0.912,-0.421 0.912,-0.772 0,-0.351 -0.49,-0.701 -1.052,-0.701 -0.28,0 -0.841,0.07 -1.403,0.14 -0.63,0.07 -2.383,0.141 -4.136,0.141 l -5.82,-0.211 c -0.351,0 -0.561,0.211 -0.561,0.631 0,0.491 0.07,0.491 1.613,0.911 0.98,0.211 1.331,0.912 1.331,2.385 v 1.823 0.982 9.116 c 0,3.506 -0.49,5.189 -1.822,6.942 C 12.271,1.193 9.887,2.314 7.292,2.314 3.435,2.314 0,-0.351 0,-3.225 v -13.043 c 0,-3.366 0.07,-3.856 0.841,-4.629 0.56,-0.561 2.385,-1.191 3.997,-1.262 0.771,-0.069 1.122,-0.28 1.122,-0.77 0,-0.282 -0.351,-0.562 -0.772,-0.562 -0.42,0 -0.981,0.07 -1.753,0.14 -0.491,0.071 -1.122,0.071 -2.384,0.071 -5.68,0 -6.24,0 -8.554,-0.211 h -0.211 c -0.421,0 -0.631,0.211 -0.631,0.49 0,0.351 0.21,0.562 0.631,0.702 1.964,0.632 2.384,0.982 2.805,2.454 0.211,0.701 0.211,1.052 0.211,2.875 v 14.516 c 0,1.753 -0.282,3.085 -0.702,3.576 -0.561,0.561 -0.772,0.631 -3.506,0.631 -0.561,0 -0.912,0.21 -0.912,0.631 0,0.351 0.28,0.49 0.842,0.631 3.015,0.772 4.067,1.193 7.573,2.946 0.351,0.21 0.56,0.28 0.841,0.28 C 0,6.241 0,6.171 0,3.926 Z"
             style="fill:#53369a;fill-opacity:1;fill-rule:nonzero;stroke:none"
             id="path74"
             inkscape:connector-curvature="0" />
        </g>
        <g
           id="g76"
           transform="translate(1113.7455,358.8882)">
          <path
             d="m 0,0 c 0.065,-0.491 0.129,-0.842 0.129,-0.912 0,-0.351 -0.261,-0.631 -0.589,-0.631 -0.327,0 -0.461,0.141 -1.116,1.402 -4.003,7.573 -9.387,11.29 -16.411,11.29 -10.831,0 -17.46,-7.714 -17.46,-20.265 0,-14.095 7.812,-24.122 18.708,-24.122 3.873,0 7.482,1.192 10.633,3.506 2.43,1.753 4.399,3.998 5.319,5.89 0.721,1.683 0.852,1.824 1.245,1.824 0.263,0 0.526,-0.281 0.526,-0.632 0,-0.21 0,-0.21 -0.197,-1.192 l -0.722,-4.137 -0.131,-0.632 c -0.133,-0.842 -0.263,-0.98 -1.773,-1.963 -4.924,-3.296 -10.042,-4.909 -15.688,-4.909 -6.432,0 -11.946,1.894 -15.819,5.329 -4.661,4.208 -7.483,11.08 -7.483,18.443 0,14.305 9.78,24.823 23.106,24.823 4.07,0 8.795,-1.262 12.274,-3.225 1.575,-0.842 2.1,-1.122 2.297,-1.122 0.131,0 0.328,0.07 0.526,0.28 0.526,0.351 0.787,0.491 0.919,0.491 0.393,0 0.591,-0.35 0.721,-1.333 z"
             style="fill:#53369a;fill-opacity:1;fill-rule:nonzero;stroke:none"
             id="path78"
             inkscape:connector-curvature="0" />
        </g>
        <g
           id="g80"
           transform="translate(1158.1655,331.9886)">
          <path
             d="m 0,0 c 0,-1.823 0.491,-4.137 0.982,-4.908 0.561,-0.842 1.613,-1.333 3.927,-1.753 0.701,-0.071 0.98,-0.351 0.98,-0.772 0,-0.351 -0.351,-0.702 -0.771,-0.702 -0.209,0 -0.491,0.072 -0.841,0.141 l -1.682,0.07 H 0.069 c -3.366,0 -5.889,0 -6.1,-0.139 -0.631,-0.072 -1.192,-0.141 -1.332,-0.141 -0.492,0 -0.912,0.351 -0.912,0.771 0,0.35 0.282,0.561 0.983,0.772 2.664,0.911 2.734,1.052 2.593,6.381 v 30.877 c 0,2.103 -0.07,2.525 -0.489,3.156 -0.492,0.631 -1.123,0.981 -1.895,0.981 -0.28,0 -0.701,0 -1.261,-0.07 h -0.351 c -0.562,0 -0.913,0.281 -0.913,0.631 0,0.281 0.281,0.561 0.913,0.702 1.191,0.35 1.612,0.421 2.805,0.982 l 2.102,0.841 c 1.614,0.631 1.824,0.771 2.666,1.332 0.279,0.211 0.49,0.281 0.701,0.281 0.351,0 0.49,-0.491 0.49,-1.403 V 37.469 C 0,37.189 0,36.979 0,36.838 Z"
             style="fill:#53369a;fill-opacity:1;fill-rule:nonzero;stroke:none"
             id="path82"
             inkscape:connector-curvature="0" />
        </g>
        <g
           id="g84"
           transform="translate(1175.0403,331.9886)">
          <path
             d="m 0,0 c 0,-1.823 0.492,-4.137 0.983,-4.908 0.561,-0.842 1.613,-1.333 3.926,-1.753 0.701,-0.071 0.982,-0.351 0.982,-0.772 0,-0.351 -0.35,-0.702 -0.77,-0.702 -0.212,0 -0.491,0.072 -0.841,0.141 l -1.684,0.07 H 0.072 c -3.366,0 -5.891,0 -6.102,-0.139 -0.63,-0.072 -1.192,-0.141 -1.331,-0.141 -0.491,0 -0.913,0.351 -0.913,0.771 0,0.35 0.282,0.561 0.983,0.772 2.664,0.911 2.735,1.052 2.594,6.381 v 30.877 c 0,2.103 -0.07,2.525 -0.49,3.156 -0.492,0.631 -1.122,0.981 -1.895,0.981 -0.279,0 -0.701,0 -1.261,-0.07 h -0.351 c -0.561,0 -0.911,0.281 -0.911,0.631 0,0.281 0.281,0.561 0.911,0.702 1.193,0.35 1.612,0.421 2.805,0.982 l 2.104,0.841 c 1.612,0.631 1.822,0.771 2.664,1.332 0.281,0.211 0.492,0.281 0.701,0.281 0.351,0 0.492,-0.491 0.492,-1.403 V 37.469 C 0,37.189 0,36.979 0,36.838 Z"
             style="fill:#53369a;fill-opacity:1;fill-rule:nonzero;stroke:none"
             id="path86"
             inkscape:connector-curvature="0" />
        </g>
      </g>
    </g>
  </g>
</svg>
