<svg xmlns="http://www.w3.org/2000/svg" width="26" height="32" viewBox="6 24 26 32" fill="none">
<path d="M17.9008 38.1996C17.9008 39.0996 17.1008 39.7996 16.1008 39.7996C15.1008 39.7996 14.3008 39.0996 14.3008 38.1996C14.3008 37.2996 15.1008 36.5996 16.1008 36.5996C17.1008 36.5996 17.9008 37.2996 17.9008 38.1996Z" fill="#FA9449"/>
<path d="M20.6996 35.9004C19.7996 35.9004 19.0996 36.6004 19.0996 37.4004C19.0996 38.2004 19.7996 38.9004 20.6996 38.9004C21.5996 38.9004 22.2996 38.2004 22.2996 37.4004C22.2996 36.6004 21.5996 35.9004 20.6996 35.9004Z" fill="#FA9449"/>
<path d="M26.4004 38.5992C26.4004 37.7992 25.7004 37.1992 24.9004 37.1992C24.1004 37.1992 23.4004 37.7992 23.4004 38.5992C23.4004 39.3992 24.1004 39.9992 24.9004 39.9992C25.8004 39.8992 26.4004 39.2992 26.4004 38.5992Z" fill="#FA9449"/>
<path d="M10.8008 43.1992C9.70078 43.1992 8.80078 43.9992 8.80078 44.9992C8.80078 45.9992 9.70078 46.7992 10.8008 46.7992C11.9008 46.7992 12.8008 45.9992 12.8008 44.9992C12.8008 44.0992 11.9008 43.1992 10.8008 43.1992Z" fill="#FA9449"/>
<path d="M12.5992 39.0996C11.5992 39.0996 10.6992 39.8996 10.6992 40.8996C10.6992 41.8996 11.4992 42.6996 12.5992 42.6996C13.5992 42.6996 14.4992 41.8996 14.4992 40.8996C14.4992 39.8996 13.6992 39.0996 12.5992 39.0996Z" fill="#FA9449"/>
<path d="M28.2004 42.7008C28.9004 42.7008 29.5004 42.2008 29.5004 41.5008C29.5004 40.8008 28.9004 40.3008 28.2004 40.3008C27.5004 40.3008 26.9004 40.8008 26.9004 41.5008C26.9004 42.2008 27.4004 42.7008 28.2004 42.7008Z" fill="#FA9449"/>
<path d="M29.5008 44.0996C28.8008 44.0996 28.3008 44.5996 28.3008 45.1996C28.3008 45.7996 28.8008 46.2996 29.5008 46.2996C30.2008 46.2996 30.7008 45.7996 30.7008 45.1996C30.7008 44.5996 30.2008 44.0996 29.5008 44.0996Z" fill="#FA9449"/>
<path d="M29 48.0996C28.4 48.0996 28 48.4996 28 48.9996C28 49.4996 28.5 49.8996 29 49.8996C29.6 49.8996 30 49.4996 30 48.9996C30 48.4996 29.5 48.0996 29 48.0996Z" fill="#FA9449"/>
<path d="M26.9 51.5996C26.4 51.5996 26 51.9996 26 52.3996C26 52.7996 26.4 53.1996 26.9 53.1996C27.4 53.1996 27.8 52.7996 27.8 52.3996C27.8 51.9996 27.3 51.5996 26.9 51.5996Z" fill="#FA9449"/>
<path d="M23.6008 53.5C23.1008 53.5 22.8008 53.8 22.8008 54.3C22.8008 54.7 23.2008 55.1 23.6008 55.1C24.1008 55.1 24.4008 54.8 24.4008 54.3C24.4008 53.8 24.1008 53.5 23.6008 53.5Z" fill="#FA9449"/>
<path d="M15.8993 27.1C16.4993 27 16.8993 26.5 16.7993 25.9C16.6993 25.3 16.1993 25 15.4993 25C14.8993 25.1 14.4993 25.6 14.5993 26.2C14.6993 26.8 15.2993 27.2 15.8993 27.1Z" fill="#FA9449"/>
<path d="M12.8992 26.8998C13.4992 26.7998 13.7992 26.2998 13.7992 25.7998C13.6992 25.2998 13.1992 24.8998 12.5992 24.9998C11.9992 25.0998 11.6992 25.5998 11.6992 26.0998C11.8992 26.5998 12.3992 26.9998 12.8992 26.8998Z" fill="#FA9449"/>
<path d="M10.1994 28.0004C10.6994 27.9004 11.0994 27.5004 10.9994 27.0004C10.8994 26.5004 10.4994 26.2004 9.89941 26.3004C9.39941 26.4004 8.99941 26.8004 9.09941 27.3004C9.29941 27.8004 9.69941 28.1004 10.1994 28.0004Z" fill="#FA9449"/>
<path d="M20.0006 31.1995C20.7006 31.0995 21.2006 30.4995 21.1006 29.8995C21.0006 29.2995 20.4006 28.7995 19.7006 28.8995C19.0006 28.9995 18.5006 29.5995 18.6006 30.1995C18.7006 30.7995 19.3006 31.2995 20.0006 31.1995Z" fill="#FA9449"/>
<path d="M19.4007 27.3001C19.3007 26.7001 18.7007 26.3001 18.1007 26.4001C17.5007 26.5001 17.0007 27.0001 17.1007 27.7001C17.2007 28.3001 17.8007 28.7001 18.4007 28.6001C19.1007 28.5001 19.5007 27.9001 19.4007 27.3001Z" fill="#FA9449"/>
<path d="M8.6008 30.0004C9.1008 29.9004 9.4008 29.5004 9.3008 29.1004C9.2008 28.7004 8.8008 28.4004 8.4008 28.4004C7.9008 28.5004 7.6008 28.9004 7.7008 29.3004C7.7008 29.8004 8.1008 30.1004 8.6008 30.0004Z" fill="#FA9449"/>
<path d="M8.69961 31.5999C8.59961 31.1999 8.19961 30.8999 7.79961 30.9999C7.39961 31.0999 7.09961 31.3998 7.09961 31.7998C7.09961 32.1998 7.59961 32.4998 7.99961 32.3998C8.49961 32.3998 8.79961 31.9999 8.69961 31.5999Z" fill="#FA9449"/>
<path d="M9.3 34.0001C9.2 33.7001 8.9 33.4001 8.6 33.5001C8.2 33.5001 8 33.8001 8 34.2001C8.1 34.5001 8.4 34.8001 8.7 34.7001C9.1 34.6001 9.4 34.3001 9.3 34.0001Z" fill="#FA9449"/>
<path d="M10.3008 35.5C10.0008 35.5 9.80078 35.8 9.80078 36.1C9.80078 36.4 10.1008 36.6 10.4008 36.5C10.7008 36.5 10.9008 36.2 10.9008 35.9C10.8008 35.7 10.6008 35.5 10.3008 35.5Z" fill="#FA9449"/>
<path d="M12.5002 36.5006C12.2002 36.5006 12.0002 36.8006 12.1002 37.1006C12.1002 37.4006 12.4002 37.6006 12.7002 37.5006C13.0002 37.5006 13.2002 37.2006 13.1002 36.9006C13.1002 36.6006 12.8002 36.4006 12.5002 36.5006Z" fill="#FA9449"/>
</svg>